NotoSansOriyaUI-CondensedExtraThin.ufo
<glyph name="exclam" format="2">
  <advance width="285"/>
  <unicode hex="0021"/>
  <outline>
    <contour>
      <point x="146" y="267" type="line"/>
      <point x="170" y="267" type="line"/>
      <point x="172" y="807" type="line"/>
      <point x="144" y="807" type="line"/>
    </contour>
    <contour>
      <point x="131" y="116" type="curve" smooth="yes"/>
      <point x="131" y="99"/>
      <point x="136" y="85"/>
      <point x="156" y="85" type="curve" smooth="yes"/>
      <point x="180" y="85"/>
      <point x="183" y="99"/>
      <point x="183" y="116" type="curve" smooth="yes"/>
      <point x="183" y="132"/>
      <point x="180" y="147"/>
      <point x="156" y="147" type="curve" smooth="yes"/>
      <point x="136" y="147"/>
      <point x="131" y="132"/>
    </contour>
  </outline>
</glyph>
<glyph name="quotedbl" format="2">
  <advance width="350"/>
  <unicode hex="0022"/>
  <outline>
    <contour>
      <point x="109" y="564" type="line"/>
      <point x="132" y="564" type="line"/>
      <point x="135" y="822" type="line"/>
      <point x="106" y="822" type="line"/>
    </contour>
    <contour>
      <point x="235" y="564" type="line"/>
      <point x="258" y="564" type="line"/>
      <point x="261" y="822" type="line"/>
      <point x="232" y="822" type="line"/>
    </contour>
  </outline>
</glyph>
<glyph name="zero" format="2">
  <advance width="411"/>
  <unicode hex="0030"/>
  <outline>
    <contour>
      <point x="205" y="83" type="curve" smooth="yes"/>
      <point x="316" y="83"/>
      <point x="361" y="213"/>
      <point x="361" y="450" type="curve" smooth="yes"/>
      <point x="361" y="688"/>
      <point x="319" y="817"/>
      <point x="206" y="817" type="curve" smooth="yes"/>
      <point x="98" y="817"/>
      <point x="51" y="690"/>
      <point x="51" y="451" type="curve" smooth="yes"/>
      <point x="51" y="214"/>
      <point x="94" y="83"/>
    </contour>
    <contour>
      <point x="205" y="109" type="curve" smooth="yes"/>
      <point x="114" y="109"/>
      <point x="78" y="227"/>
      <point x="78" y="451" type="curve" smooth="yes"/>
      <point x="78" y="674"/>
      <point x="115" y="791"/>
      <point x="207" y="791" type="curve" smooth="yes"/>
      <point x="298" y="791"/>
      <point x="334" y="671"/>
      <point x="334" y="451" type="curve" smooth="yes"/>
      <point x="334" y="228"/>
      <point x="298" y="109"/>
    </contour>
  </outline>
</glyph>
<glyph name="one" format="2">
  <advance width="411"/>
  <unicode hex="0031"/>
  <outline>
    <contour>
      <point x="217" y="93" type="line"/>
      <point x="243" y="93" type="line"/>
      <point x="243" y="807" type="line"/>
      <point x="220" y="807" type="line"/>
      <point x="79" y="662" type="line"/>
      <point x="97" y="643" type="line"/>
      <point x="178" y="731" type="line" smooth="yes"/>
      <point x="196" y="750"/>
      <point x="206" y="761"/>
      <point x="218" y="776" type="curve"/>
      <point x="217" y="749"/>
      <point x="217" y="719"/>
      <point x="217" y="684" type="curve" smooth="yes"/>
    </contour>
  </outline>
</glyph>
<glyph name="semicolon" format="2">
  <advance width="234"/>
  <unicode hex="003B"/>
  <outline>
    <contour>
      <point x="128" y="209" type="line"/>
      <point x="100" y="209" type="line"/>
      <point x="89" y="133"/>
      <point x="73" y="61"/>
      <point x="44" y="-36" type="curve"/>
      <point x="66" y="-36" type="line"/>
      <point x="94" y="33"/>
      <point x="116" y="123"/>
      <point x="131" y="197" type="curve"/>
    </contour>
    <contour>
      <point x="116" y="563" type="curve" smooth="yes"/>
      <point x="140" y="563"/>
      <point x="143" y="577"/>
      <point x="143" y="594" type="curve" smooth="yes"/>
      <point x="143" y="610"/>
      <point x="140" y="625"/>
      <point x="116" y="625" type="curve" smooth="yes"/>
      <point x="96" y="625"/>
      <point x="91" y="610"/>
      <point x="91" y="594" type="curve" smooth="yes"/>
      <point x="91" y="577"/>
      <point x="96" y="563"/>
    </contour>
  </outline>
</glyph>
<glyph name="bracketleft" format="2">
  <advance width="278"/>
  <unicode hex="005B"/>
  <outline>
    <contour>
      <point x="94" y="925" type="line"/>
      <point x="94" y="-72" type="line"/>
      <point x="223" y="-72" type="line"/>
      <point x="223" y="-46" type="line"/>
      <point x="120" y="-46" type="line"/>
      <point x="120" y="899" type="line"/>
      <point x="223" y="899" type="line"/>
      <point x="223" y="925" type="line"/>
    </contour>
  </outline>
</glyph>
<glyph name="underscore" format="2">
  <advance width="300"/>
  <unicode hex="005F"/>
  <outline>
    <contour>
      <point x="0" y="3" type="line"/>
      <point x="0" y="-23" type="line"/>
      <point x="300" y="-23" type="line"/>
      <point x="300" y="3" type="line"/>
    </contour>
  </outline>
</glyph>
<glyph name="dbldanda" format="2">
  <advance width="336"/>
  <unicode hex="0965"/>
  <note>
dbldanda.orya
</note>
  <outline>
    <contour>
      <point x="74" y="751" type="line"/>
      <point x="74" y="93" type="line"/>
      <point x="100" y="93" type="line"/>
      <point x="100" y="751" type="line"/>
    </contour>
    <contour>
      <point x="236" y="751" type="line"/>
      <point x="236" y="93" type="line"/>
      <point x="262" y="93" type="line"/>
      <point x="262" y="751" type="line"/>
    </contour>
  </outline>
</glyph>
<glyph name="anusvara-oriya" format="2">
  <advance width="215"/>
  <unicode hex="0B02"/>
  <note>
anusvaraorya
</note>
  <outline>
    <contour>
      <point x="108" y="521" type="curve" smooth="yes"/>
      <point x="165" y="521"/>
      <point x="205" y="568"/>
      <point x="205" y="638" type="curve" smooth="yes"/>
      <point x="205" y="709"/>
      <point x="163" y="759"/>
      <point x="107" y="759" type="curve" smooth="yes"/>
      <point x="50" y="759"/>
      <point x="10" y="709"/>
      <point x="10" y="639" type="curve" smooth="yes"/>
      <point x="10" y="568"/>
      <point x="51" y="521"/>
    </contour>
    <contour>
      <point x="107" y="734" type="curve" smooth="yes"/>
      <point x="149" y="734"/>
      <point x="180" y="694"/>
      <point x="180" y="640" type="curve" smooth="yes"/>
      <point x="180" y="585"/>
      <point x="148" y="546"/>
      <point x="107" y="546" type="curve" smooth="yes"/>
      <point x="67" y="546"/>
      <point x="35" y="583"/>
      <point x="35" y="639" type="curve" smooth="yes"/>
      <point x="35" y="692"/>
      <point x="64" y="734"/>
    </contour>
  </outline>
</glyph>
<glyph name="visarga-oriya" format="2">
  <advance width="326"/>
  <unicode hex="0B03"/>
  <note>
visargaorya
</note>
  <outline>
    <contour>
      <point x="163" y="734" type="curve" smooth="yes"/>
      <point x="233" y="734"/>
      <point x="269" y="684"/>
      <point x="269" y="610" type="curve" smooth="yes"/>
      <point x="269" y="419"/>
      <point x="30" y="427"/>
      <point x="30" y="235" type="curve" smooth="yes"/>
      <point x="30" y="145"/>
      <point x="83" y="85"/>
      <point x="165" y="85" type="curve" smooth="yes"/>
      <point x="251" y="85"/>
      <point x="296" y="150"/>
      <point x="296" y="236" type="curve" smooth="yes"/>
      <point x="296" y="433"/>
      <point x="57" y="426"/>
      <point x="57" y="611" type="curve" smooth="yes"/>
      <point x="57" y="683"/>
      <point x="93" y="734"/>
    </contour>
    <contour>
      <point x="164" y="759" type="curve" smooth="yes"/>
      <point x="76" y="759"/>
      <point x="31" y="693"/>
      <point x="31" y="608" type="curve" smooth="yes"/>
      <point x="31" y="412"/>
      <point x="271" y="415"/>
      <point x="271" y="237" type="curve" smooth="yes"/>
      <point x="271" y="156"/>
      <point x="221" y="110"/>
      <point x="165" y="110" type="curve" smooth="yes"/>
      <point x="108" y="110"/>
      <point x="55" y="156"/>
      <point x="55" y="237" type="curve" smooth="yes"/>
      <point x="55" y="409"/>
      <point x="295" y="412"/>
      <point x="295" y="609" type="curve" smooth="yes"/>
      <point x="295" y="693"/>
      <point x="250" y="759"/>
    </contour>
  </outline>
</glyph>
<glyph name="u-oriya" format="2">
  <advance width="543"/>
  <unicode hex="0B09"/>
  <note>
uorya
</note>
  <guideline x="46" y="371" angle="90"/>
  <guideline x="307" y="217" angle="0"/>
  <anchor x="464" y="751" name="topright"/>
  <outline>
    <contour>
      <point x="264" y="734" type="curve" smooth="yes"/>
      <point x="373" y="734"/>
      <point x="483" y="648"/>
      <point x="483" y="468" type="curve" smooth="yes"/>
      <point x="483" y="370"/>
      <point x="452" y="302"/>
      <point x="411" y="244" type="curve"/>
      <point x="524" y="47" type="line"/>
      <point x="474" y="67" type="line"/>
      <point x="553" y="117" type="line"/>
      <point x="544" y="61" type="line"/>
      <point x="437" y="249" type="line"/>
      <point x="425" y="221" type="line"/>
      <point x="472" y="287"/>
      <point x="509" y="360"/>
      <point x="509" y="469" type="curve" smooth="yes"/>
      <point x="509" y="665"/>
      <point x="385" y="759"/>
      <point x="263" y="759" type="curve" smooth="yes"/>
      <point x="144" y="759"/>
      <point x="28" y="671"/>
      <point x="28" y="502" type="curve" smooth="yes"/>
      <point x="28" y="416"/>
      <point x="61" y="344"/>
      <point x="116" y="297" type="curve"/>
      <point x="121" y="329" type="line"/>
      <point x="80" y="369"/>
      <point x="54" y="429"/>
      <point x="54" y="502" type="curve" smooth="yes"/>
      <point x="54" y="654"/>
      <point x="158" y="734"/>
    </contour>
    <contour>
      <point x="246" y="85" type="curve" smooth="yes"/>
      <point x="334" y="85"/>
      <point x="381" y="152"/>
      <point x="381" y="230" type="curve" smooth="yes"/>
      <point x="381" y="283"/>
      <point x="359" y="340"/>
      <point x="313" y="383" type="curve"/>
      <point x="298" y="364" type="line"/>
      <point x="336" y="329"/>
      <point x="355" y="279"/>
      <point x="355" y="232" type="curve" smooth="yes"/>
      <point x="355" y="167"/>
      <point x="318" y="110"/>
      <point x="246" y="110" type="curve" smooth="yes"/>
      <point x="172" y="110"/>
      <point x="129" y="170"/>
      <point x="129" y="257" type="curve" smooth="yes"/>
      <point x="129" y="334"/>
      <point x="163" y="388"/>
      <point x="222" y="450" type="curve"/>
      <point x="204" y="466" type="line"/>
      <point x="139" y="399"/>
      <point x="103" y="341"/>
      <point x="103" y="257" type="curve" smooth="yes"/>
      <point x="103" y="154"/>
      <point x="156" y="85"/>
    </contour>
    <contour>
      <point x="254" y="291" type="line"/>
      <point x="368" y="438" type="line"/>
      <point x="350" y="453" type="line"/>
      <point x="236" y="306" type="line"/>
    </contour>
  </outline>
</glyph>
<glyph name="cha-oriya" format="2">
  <advance width="515"/>
  <unicode hex="0B1B"/>
  <note>
chaorya
</note>
  <anchor x="367" y="93" name="bottom"/>
  <anchor x="404" y="93" name="bottom_ra"/>
  <anchor x="258" y="751" name="top"/>
  <anchor x="442" y="751" name="topright"/>
  <outline>
    <contour>
      <point x="127" y="370" type="curve"/>
      <point x="125" y="401" type="line"/>
      <point x="83" y="425"/>
      <point x="54" y="487"/>
      <point x="54" y="546" type="curve" smooth="yes"/>
      <point x="54" y="653"/>
      <point x="140" y="734"/>
      <point x="257" y="734" type="curve" smooth="yes"/>
      <point x="374" y="734"/>
      <point x="461" y="653"/>
      <point x="461" y="545" type="curve" smooth="yes"/>
      <point x="461" y="506"/>
      <point x="450" y="464"/>
      <point x="434" y="439" type="curve"/>
      <point x="425" y="447" type="line"/>
      <point x="470" y="425" type="line"/>
      <point x="459" y="427" type="line"/>
      <point x="475" y="457"/>
      <point x="487" y="504"/>
      <point x="487" y="547" type="curve" smooth="yes"/>
      <point x="487" y="668"/>
      <point x="391" y="759"/>
      <point x="258" y="759" type="curve" smooth="yes"/>
      <point x="123" y="759"/>
      <point x="28" y="666"/>
      <point x="28" y="549" type="curve" smooth="yes"/>
      <point x="28" y="472"/>
      <point x="69" y="399"/>
    </contour>
    <contour>
      <point x="126" y="110" type="curve" smooth="yes"/>
      <point x="88" y="110"/>
      <point x="66" y="144"/>
      <point x="66" y="187" type="curve" smooth="yes"/>
      <point x="66" y="232"/>
      <point x="90" y="261"/>
      <point x="125" y="261" type="curve" smooth="yes"/>
      <point x="165" y="261"/>
      <point x="201" y="223"/>
      <point x="235" y="182" type="curve"/>
      <point x="197" y="136"/>
      <point x="159" y="110"/>
    </contour>
    <contour>
      <point x="125" y="85" type="curve" smooth="yes"/>
      <point x="165" y="85"/>
      <point x="207" y="111"/>
      <point x="252" y="166" type="curve"/>
      <point x="297" y="108"/>
      <point x="344" y="85"/>
      <point x="381" y="85" type="curve" smooth="yes"/>
      <point x="430" y="85"/>
      <point x="464" y="125"/>
      <point x="464" y="187" type="curve" smooth="yes"/>
      <point x="464" y="246"/>
      <point x="432" y="286"/>
      <point x="377" y="286" type="curve" smooth="yes"/>
      <point x="342" y="286"/>
      <point x="309" y="270"/>
      <point x="250" y="200" type="curve"/>
      <point x="164" y="297"/>
      <point x="116" y="316"/>
      <point x="36" y="339" type="curve"/>
      <point x="28" y="315" type="line"/>
      <point x="64" y="305"/>
      <point x="102" y="293"/>
      <point x="132" y="279" type="curve"/>
      <point x="122" y="286" type="line"/>
      <point x="73" y="286"/>
      <point x="40" y="247"/>
      <point x="40" y="187" type="curve" smooth="yes"/>
      <point x="40" y="127"/>
      <point x="73" y="85"/>
    </contour>
    <contour>
      <point x="379" y="110" type="curve" smooth="yes"/>
      <point x="350" y="110"/>
      <point x="307" y="131"/>
      <point x="265" y="182" type="curve"/>
      <point x="322" y="244"/>
      <point x="340" y="261"/>
      <point x="372" y="261" type="curve" smooth="yes"/>
      <point x="415" y="261"/>
      <point x="438" y="231"/>
      <point x="438" y="186" type="curve" smooth="yes"/>
      <point x="438" y="141"/>
      <point x="414" y="110"/>
    </contour>
    <contour>
      <point x="250" y="243" type="curve" smooth="yes"/>
      <point x="183" y="243"/>
      <point x="135" y="302"/>
      <point x="135" y="387" type="curve" smooth="yes"/>
      <point x="135" y="472"/>
      <point x="183" y="531"/>
      <point x="250" y="531" type="curve" smooth="yes"/>
      <point x="317" y="531"/>
      <point x="365" y="472"/>
      <point x="365" y="387" type="curve" smooth="yes"/>
      <point x="365" y="302"/>
      <point x="317" y="243"/>
    </contour>
    <contour>
      <point x="250" y="220" type="curve" smooth="yes"/>
      <point x="329" y="220"/>
      <point x="390" y="289"/>
      <point x="390" y="388" type="curve" smooth="yes"/>
      <point x="390" y="484"/>
      <point x="334" y="555"/>
      <point x="250" y="555" type="curve" smooth="yes"/>
      <point x="166" y="555"/>
      <point x="110" y="484"/>
      <point x="110" y="388" type="curve" smooth="yes"/>
      <point x="110" y="289"/>
      <point x="171" y="220"/>
    </contour>
  </outline>
</glyph>
<glyph name="ja-oriya" format="2">
  <advance width="544"/>
  <unicode hex="0B1C"/>
  <note>
jaorya
</note>
  <anchor x="388" y="93" name="bottom"/>
  <anchor x="414" y="93" name="bottom_ra"/>
  <anchor x="274" y="751" name="top"/>
  <anchor x="471" y="751" name="topright"/>
  <outline>
    <contour>
      <point x="223" y="85" type="curve" smooth="yes"/>
      <point x="252" y="85"/>
      <point x="285" y="93"/>
      <point x="320" y="111" type="curve"/>
      <point x="304" y="96" type="line"/>
      <point x="268" y="170"/>
      <point x="263" y="237"/>
      <point x="263" y="275" type="curve" smooth="yes"/>
      <point x="263" y="366"/>
      <point x="286" y="415"/>
      <point x="329" y="415" type="curve" smooth="yes"/>
      <point x="368" y="415"/>
      <point x="388" y="385"/>
      <point x="388" y="331" type="curve" smooth="yes"/>
      <point x="388" y="93" type="line"/>
      <point x="414" y="93" type="line"/>
      <point x="414" y="331" type="line" smooth="yes"/>
      <point x="414" y="397"/>
      <point x="390" y="440"/>
      <point x="330" y="440" type="curve" smooth="yes"/>
      <point x="265" y="440"/>
      <point x="237" y="371"/>
      <point x="237" y="278" type="curve" smooth="yes"/>
      <point x="237" y="230"/>
      <point x="247" y="161"/>
      <point x="274" y="103" type="curve"/>
      <point x="287" y="123" type="line"/>
      <point x="265" y="114"/>
      <point x="245" y="110"/>
      <point x="227" y="110" type="curve" smooth="yes"/>
      <point x="161" y="110"/>
      <point x="118" y="162"/>
      <point x="118" y="248" type="curve" smooth="yes"/>
      <point x="118" y="320"/>
      <point x="148" y="392"/>
      <point x="207" y="455" type="curve"/>
      <point x="210" y="441" type="line"/>
      <point x="174" y="473" type="line"/>
      <point x="188" y="471" type="line"/>
      <point x="130" y="409"/>
      <point x="92" y="332"/>
      <point x="92" y="244" type="curve" smooth="yes"/>
      <point x="92" y="144"/>
      <point x="146" y="85"/>
    </contour>
    <contour>
      <point x="106" y="312" type="curve"/>
      <point x="113" y="345" type="line"/>
      <point x="77" y="390"/>
      <point x="54" y="445"/>
      <point x="54" y="506" type="curve" smooth="yes"/>
      <point x="54" y="632"/>
      <point x="148" y="734"/>
      <point x="272" y="734" type="curve" smooth="yes"/>
      <point x="399" y="734"/>
      <point x="490" y="634"/>
      <point x="490" y="499" type="curve" smooth="yes"/>
      <point x="490" y="441"/>
      <point x="474" y="379"/>
      <point x="440" y="335" type="curve"/>
      <point x="435" y="348" type="line"/>
      <point x="473" y="319" type="line"/>
      <point x="460" y="320" type="line"/>
      <point x="495" y="366"/>
      <point x="516" y="431"/>
      <point x="516" y="500" type="curve" smooth="yes"/>
      <point x="516" y="654"/>
      <point x="412" y="759"/>
      <point x="274" y="759" type="curve" smooth="yes"/>
      <point x="131" y="759"/>
      <point x="28" y="647"/>
      <point x="28" y="507" type="curve" smooth="yes"/>
      <point x="28" y="432"/>
      <point x="58" y="361"/>
    </contour>
  </outline>
</glyph>
<glyph name="ra-oriya" format="2">
  <advance width="532"/>
  <unicode hex="0B30"/>
  <note>
raorya
</note>
  <anchor x="234" y="93" name="bottom"/>
  <anchor x="419" y="93" name="bottom_ra"/>
  <anchor x="263" y="751" name="top"/>
  <anchor x="464" y="751" name="topright"/>
  <outline>
    <contour>
      <point x="513" y="47" type="line"/>
      <point x="463" y="67" type="line"/>
      <point x="542" y="117" type="line"/>
      <point x="533" y="61" type="line"/>
      <point x="426" y="249" type="line"/>
      <point x="414" y="221" type="line"/>
      <point x="461" y="287"/>
      <point x="509" y="358"/>
      <point x="509" y="474" type="curve" smooth="yes"/>
      <point x="509" y="665"/>
      <point x="384" y="759"/>
      <point x="261" y="759" type="curve" smooth="yes"/>
      <point x="144" y="759"/>
      <point x="28" y="673"/>
      <point x="28" y="504" type="curve" smooth="yes"/>
      <point x="28" y="416"/>
      <point x="61" y="344"/>
      <point x="116" y="297" type="curve"/>
      <point x="121" y="329" type="line"/>
      <point x="80" y="369"/>
      <point x="54" y="429"/>
      <point x="54" y="504" type="curve" smooth="yes"/>
      <point x="54" y="656"/>
      <point x="157" y="734"/>
      <point x="262" y="734" type="curve" smooth="yes"/>
      <point x="371" y="734"/>
      <point x="483" y="649"/>
      <point x="483" y="474" type="curve" smooth="yes"/>
      <point x="483" y="368"/>
      <point x="441" y="302"/>
      <point x="400" y="244" type="curve"/>
    </contour>
    <contour>
      <point x="234" y="85" type="curve" smooth="yes"/>
      <point x="316" y="85"/>
      <point x="370" y="156"/>
      <point x="370" y="263" type="curve" smooth="yes"/>
      <point x="370" y="369"/>
      <point x="316" y="440"/>
      <point x="234" y="440" type="curve" smooth="yes"/>
      <point x="152" y="440"/>
      <point x="98" y="369"/>
      <point x="98" y="263" type="curve" smooth="yes"/>
      <point x="98" y="156"/>
      <point x="152" y="85"/>
    </contour>
    <contour>
      <point x="234" y="110" type="curve" smooth="yes"/>
      <point x="167" y="110"/>
      <point x="124" y="171"/>
      <point x="124" y="264" type="curve" smooth="yes"/>
      <point x="124" y="356"/>
      <point x="167" y="415"/>
      <point x="234" y="415" type="curve" smooth="yes"/>
      <point x="301" y="415"/>
      <point x="344" y="355"/>
      <point x="344" y="263" type="curve" smooth="yes"/>
      <point x="344" y="170"/>
      <point x="301" y="110"/>
    </contour>
  </outline>
</glyph>
<glyph name="iMatra-oriya" format="2">
  <unicode hex="0B3F"/>
  <note>
ivowelsignorya
</note>
  <anchor x="300" y="751" name="_top"/>
  <outline>
    <contour>
      <point x="110" y="807" type="line"/>
      <point x="155" y="870"/>
      <point x="226" y="904"/>
      <point x="301" y="904" type="curve" smooth="yes"/>
      <point x="374" y="904"/>
      <point x="444" y="870"/>
      <point x="489" y="807" type="curve"/>
      <point x="509" y="821" type="line"/>
      <point x="458" y="893"/>
      <point x="380" y="929"/>
      <point x="301" y="929" type="curve" smooth="yes"/>
      <point x="222" y="929"/>
      <point x="143" y="893"/>
      <point x="90" y="821" type="curve"/>
    </contour>
  </outline>
</glyph>
<glyph name="eMatra-oriya" format="2">
  <advance width="375"/>
  <unicode hex="0B47"/>
  <note>
evowelsignorya
</note>
  <outline>
    <contour>
      <point x="39" y="423" type="curve"/>
      <point x="38" y="397" type="line"/>
      <point x="85" y="414"/>
      <point x="129" y="424"/>
      <point x="164" y="424" type="curve" smooth="yes"/>
      <point x="254" y="424"/>
      <point x="304" y="356"/>
      <point x="304" y="255" type="curve" smooth="yes"/>
      <point x="304" y="167"/>
      <point x="267" y="110"/>
      <point x="199" y="110" type="curve" smooth="yes"/>
      <point x="101" y="110"/>
      <point x="56" y="228"/>
      <point x="56" y="397" type="curve" smooth="yes"/>
      <point x="56" y="592"/>
      <point x="116" y="734"/>
      <point x="247" y="734" type="curve" smooth="yes"/>
      <point x="290" y="734"/>
      <point x="332" y="719"/>
      <point x="359" y="692" type="curve"/>
      <point x="321" y="672" type="line"/>
      <point x="349" y="730" type="line"/>
      <point x="319" y="750"/>
      <point x="283" y="759"/>
      <point x="247" y="759" type="curve" smooth="yes"/>
      <point x="110" y="759"/>
      <point x="30" y="626"/>
      <point x="30" y="399" type="curve" smooth="yes"/>
      <point x="30" y="203"/>
      <point x="90" y="85"/>
      <point x="197" y="85" type="curve" smooth="yes"/>
      <point x="279" y="85"/>
      <point x="330" y="153"/>
      <point x="330" y="257" type="curve" smooth="yes"/>
      <point x="330" y="373"/>
      <point x="267" y="449"/>
      <point x="166" y="449" type="curve" smooth="yes"/>
      <point x="131" y="449"/>
      <point x="86" y="440"/>
    </contour>
  </outline>
</glyph>
<glyph name="aiLength-oriya" format="2">
  <advance width="500"/>
  <unicode hex="0B56"/>
  <note>
ailengthmarkorya
</note>
  <guideline x="979" y="527" angle="90"/>
  <anchor x="404" y="751" name="_topright"/>
  <outline>
    <contour>
      <point x="376" y="804" type="line"/>
      <point x="430" y="780" type="line"/>
      <point x="400" y="766" type="line"/>
      <point x="424" y="799"/>
      <point x="438" y="838"/>
      <point x="438" y="873" type="curve" smooth="yes"/>
      <point x="438" y="931"/>
      <point x="402" y="969"/>
      <point x="347" y="969" type="curve" smooth="yes"/>
      <point x="277" y="969"/>
      <point x="200" y="909"/>
      <point x="135" y="909" type="curve" smooth="yes"/>
      <point x="95" y="909"/>
      <point x="64" y="931"/>
      <point x="39" y="995" type="curve"/>
      <point x="78" y="982" type="line"/>
      <point x="11" y="942" type="line"/>
      <point x="23" y="976" type="line"/>
      <point x="50" y="906"/>
      <point x="91" y="884"/>
      <point x="134" y="884" type="curve" smooth="yes"/>
      <point x="204" y="884"/>
      <point x="280" y="944"/>
      <point x="343" y="944" type="curve" smooth="yes"/>
      <point x="390" y="944"/>
      <point x="412" y="909"/>
      <point x="412" y="869" type="curve" smooth="yes"/>
      <point x="412" y="840"/>
      <point x="399" y="806"/>
      <point x="380" y="778" type="curve"/>
    </contour>
  </outline>
</glyph>
<glyph name="auLength-oriya" format="2">
  <advance width="130"/>
  <unicode hex="0B57"/>
  <note>
aulengthmarkorya
</note>
  <outline>
    <contour>
      <point x="52" y="786" type="line"/>
      <point x="52" y="93" type="line"/>
      <point x="78" y="93" type="line"/>
      <point x="78" y="787" type="line"/>
    </contour>
    <contour>
      <point x="52" y="786" type="curve"/>
      <point x="72" y="769" type="line"/>
      <point x="113" y="803"/>
      <point x="131" y="839"/>
      <point x="131" y="878" type="curve" smooth="yes"/>
      <point x="131" y="930"/>
      <point x="95" y="969"/>
      <point x="40" y="969" type="curve" smooth="yes"/>
      <point x="-29" y="969"/>
      <point x="-107" y="909"/>
      <point x="-172" y="909" type="curve" smooth="yes"/>
      <point x="-212" y="909"/>
      <point x="-243" y="931"/>
      <point x="-268" y="995" type="curve"/>
      <point x="-229" y="982" type="line"/>
      <point x="-296" y="942" type="line"/>
      <point x="-284" y="976" type="line"/>
      <point x="-257" y="906"/>
      <point x="-216" y="884"/>
      <point x="-173" y="884" type="curve" smooth="yes"/>
      <point x="-103" y="884"/>
      <point x="-27" y="944"/>
      <point x="36" y="944" type="curve" smooth="yes"/>
      <point x="84" y="944"/>
      <point x="105" y="909"/>
      <point x="105" y="874" type="curve" smooth="yes"/>
      <point x="105" y="842"/>
      <point x="90" y="812"/>
    </contour>
  </outline>
</glyph>
<glyph name="rrVocalic-oriya" format="2">
  <advance width="576"/>
  <unicode hex="0B60"/>
  <note>
rrvocalicorya
</note>
  <guideline x="366" y="-205" angle="0"/>
  <outline>
    <contour>
      <point x="106" y="303" type="curve"/>
      <point x="114" y="332" type="line"/>
      <point x="77" y="378"/>
      <point x="54" y="439"/>
      <point x="54" y="506" type="curve" smooth="yes"/>
      <point x="54" y="636"/>
      <point x="142" y="734"/>
      <point x="260" y="734" type="curve" smooth="yes"/>
      <point x="377" y="734"/>
      <point x="459" y="640"/>
      <point x="459" y="518" type="curve" smooth="yes"/>
      <point x="459" y="478"/>
      <point x="450" y="437"/>
      <point x="434" y="402" type="curve"/>
      <point x="465" y="412" type="line"/>
      <point x="478" y="445"/>
      <point x="485" y="481"/>
      <point x="485" y="518" type="curve" smooth="yes"/>
      <point x="485" y="657"/>
      <point x="389" y="759"/>
      <point x="260" y="759" type="curve" smooth="yes"/>
      <point x="125" y="759"/>
      <point x="28" y="647"/>
      <point x="28" y="503" type="curve" smooth="yes"/>
      <point x="28" y="427"/>
      <point x="58" y="351"/>
    </contour>
    <contour>
      <point x="234" y="85" type="curve" smooth="yes"/>
      <point x="316" y="85"/>
      <point x="370" y="156"/>
      <point x="370" y="263" type="curve" smooth="yes"/>
      <point x="370" y="369"/>
      <point x="316" y="440"/>
      <point x="234" y="440" type="curve" smooth="yes"/>
      <point x="152" y="440"/>
      <point x="98" y="369"/>
      <point x="98" y="263" type="curve" smooth="yes"/>
      <point x="98" y="156"/>
      <point x="152" y="85"/>
    </contour>
    <contour>
      <point x="234" y="110" type="curve" smooth="yes"/>
      <point x="167" y="110"/>
      <point x="124" y="171"/>
      <point x="124" y="264" type="curve" smooth="yes"/>
      <point x="124" y="356"/>
      <point x="167" y="415"/>
      <point x="234" y="415" type="curve" smooth="yes"/>
      <point x="301" y="415"/>
      <point x="344" y="355"/>
      <point x="344" y="263" type="curve" smooth="yes"/>
      <point x="344" y="170"/>
      <point x="301" y="110"/>
    </contour>
    <contour>
      <point x="415" y="202" type="line"/>
      <point x="425" y="204" type="line"/>
      <point x="504" y="205"/>
      <point x="548" y="264"/>
      <point x="548" y="321" type="curve" smooth="yes"/>
      <point x="548" y="368"/>
      <point x="518" y="415"/>
      <point x="455" y="424" type="curve"/>
      <point x="434" y="402" type="line"/>
      <point x="437" y="402" type="line" smooth="yes"/>
      <point x="497" y="402"/>
      <point x="522" y="359"/>
      <point x="522" y="318" type="curve" smooth="yes"/>
      <point x="522" y="275"/>
      <point x="488" y="228"/>
      <point x="419" y="227" type="curve"/>
    </contour>
    <contour>
      <point x="473" y="-150" type="line"/>
      <point x="432" y="-129" type="line"/>
      <point x="518" y="-73" type="line"/>
      <point x="495" y="-139" type="line"/>
      <point x="395" y="37" type="line"/>
      <point x="390" y="15" type="line"/>
      <point x="478" y="16"/>
      <point x="523" y="72"/>
      <point x="523" y="127" type="curve" smooth="yes"/>
      <point x="523" y="172"/>
      <point x="493" y="215"/>
      <point x="430" y="224" type="curve"/>
      <point x="415" y="202" type="line"/>
      <point x="468" y="202"/>
      <point x="498" y="164"/>
      <point x="498" y="125" type="curve" smooth="yes"/>
      <point x="498" y="83"/>
      <point x="463" y="40"/>
      <point x="386" y="39" type="curve"/>
      <point x="375" y="22" type="line"/>
    </contour>
  </outline>
</glyph>
<glyph name="zero-oriya" format="2">
  <advance width="411"/>
  <unicode hex="0B66"/>
  <note>
zeroorya
</note>
  <outline>
    <contour>
      <point x="206" y="159" type="curve" smooth="yes"/>
      <point x="319" y="159"/>
      <point x="395" y="259"/>
      <point x="395" y="410" type="curve" smooth="yes"/>
      <point x="395" y="560"/>
      <point x="319" y="660"/>
      <point x="206" y="660" type="curve" smooth="yes"/>
      <point x="93" y="660"/>
      <point x="17" y="560"/>
      <point x="17" y="410" type="curve" smooth="yes"/>
      <point x="17" y="259"/>
      <point x="93" y="159"/>
    </contour>
    <contour>
      <point x="206" y="635" type="curve" smooth="yes"/>
      <point x="304" y="635"/>
      <point x="369" y="545"/>
      <point x="369" y="410" type="curve" smooth="yes"/>
      <point x="369" y="275"/>
      <point x="304" y="184"/>
      <point x="206" y="184" type="curve" smooth="yes"/>
      <point x="108" y="184"/>
      <point x="43" y="275"/>
      <point x="43" y="410" type="curve" smooth="yes"/>
      <point x="43" y="545"/>
      <point x="108" y="635"/>
    </contour>
  </outline>
</glyph>
<glyph name="six-oriya" format="2">
  <advance width="411"/>
  <unicode hex="0B6C"/>
  <note>
sixorya
</note>
  <outline>
    <contour>
      <point x="13" y="433" type="line"/>
      <point x="41" y="348"/>
      <point x="81" y="315"/>
      <point x="136" y="315" type="curve" smooth="yes"/>
      <point x="200" y="315"/>
      <point x="236" y="359"/>
      <point x="236" y="416" type="curve" smooth="yes"/>
      <point x="236" y="469"/>
      <point x="203" y="507"/>
      <point x="171" y="543" type="curve" smooth="yes"/>
      <point x="140" y="578"/>
      <point x="111" y="611"/>
      <point x="111" y="655" type="curve" smooth="yes"/>
      <point x="111" y="698"/>
      <point x="139" y="734"/>
      <point x="193" y="734" type="curve" smooth="yes"/>
      <point x="293" y="734"/>
      <point x="363" y="621"/>
      <point x="363" y="468" type="curve" smooth="yes"/>
      <point x="363" y="278"/>
      <point x="257" y="166"/>
      <point x="42" y="110" type="curve"/>
      <point x="50" y="85" type="line"/>
      <point x="278" y="144"/>
      <point x="389" y="267"/>
      <point x="389" y="470" type="curve" smooth="yes"/>
      <point x="389" y="645"/>
      <point x="306" y="759"/>
      <point x="193" y="759" type="curve" smooth="yes"/>
      <point x="130" y="759"/>
      <point x="85" y="721"/>
      <point x="85" y="655" type="curve" smooth="yes"/>
      <point x="85" y="600"/>
      <point x="118" y="563"/>
      <point x="150" y="528" type="curve" smooth="yes"/>
      <point x="181" y="495"/>
      <point x="210" y="462"/>
      <point x="210" y="416" type="curve" smooth="yes"/>
      <point x="210" y="374"/>
      <point x="184" y="340"/>
      <point x="138" y="340" type="curve" smooth="yes"/>
      <point x="95" y="340"/>
      <point x="62" y="363"/>
      <point x="34" y="441" type="curve"/>
    </contour>
  </outline>
</glyph>
<glyph name="_part.pha" format="2">
  <advance width="644"/>
  <outline>
    <contour>
      <point x="544" y="693" type="curve" smooth="yes"/>
      <point x="492" y="693"/>
      <point x="455" y="642"/>
      <point x="455" y="567" type="curve" smooth="yes"/>
      <point x="455" y="485"/>
      <point x="498" y="443"/>
      <point x="545" y="443" type="curve" smooth="yes"/>
      <point x="602" y="443"/>
      <point x="631" y="506"/>
      <point x="631" y="568" type="curve" smooth="yes"/>
      <point x="631" y="631"/>
      <point x="601" y="693"/>
    </contour>
    <contour>
      <point x="545" y="668" type="curve" smooth="yes"/>
      <point x="585" y="668"/>
      <point x="606" y="618"/>
      <point x="606" y="568" type="curve" smooth="yes"/>
      <point x="606" y="518"/>
      <point x="585" y="468"/>
      <point x="544" y="468" type="curve" smooth="yes"/>
      <point x="511" y="468"/>
      <point x="481" y="501"/>
      <point x="481" y="567" type="curve" smooth="yes"/>
      <point x="481" y="633"/>
      <point x="511" y="668"/>
    </contour>
  </outline>
</glyph>
<glyph name="_part_ta-oriya.below" format="2">
  <advance width="425"/>
  <note>
tasubscriptorya
</note>
  <outline>
    <contour>
      <point x="4" y="-58" type="line"/>
      <point x="-3" y="-27" type="line"/>
      <point x="50" y="-70"/>
      <point x="118" y="-91"/>
      <point x="181" y="-91" type="curve" smooth="yes"/>
      <point x="293" y="-91"/>
      <point x="392" y="-23"/>
      <point x="392" y="107" type="curve" smooth="yes"/>
      <point x="392" y="172"/>
      <point x="366" y="209"/>
      <point x="320" y="209" type="curve" smooth="yes"/>
      <point x="266" y="209"/>
      <point x="242" y="160"/>
      <point x="242" y="113" type="curve" smooth="yes"/>
      <point x="242" y="64"/>
      <point x="267" y="17"/>
      <point x="315" y="17" type="curve" smooth="yes"/>
      <point x="349" y="17"/>
      <point x="370" y="40"/>
      <point x="381" y="80" type="curve"/>
      <point x="363" y="67" type="line"/>
      <point x="349" y="-22"/>
      <point x="269" y="-66"/>
      <point x="181" y="-66" type="curve" smooth="yes"/>
      <point x="123" y="-66"/>
      <point x="62" y="-47"/>
      <point x="14" y="-10" type="curve"/>
      <point x="35" y="-9" type="line"/>
    </contour>
    <contour>
      <point x="366" y="114" type="curve" smooth="yes"/>
      <point x="366" y="68"/>
      <point x="349" y="42"/>
      <point x="318" y="42" type="curve" smooth="yes"/>
      <point x="287" y="42"/>
      <point x="268" y="69"/>
      <point x="268" y="116" type="curve" smooth="yes"/>
      <point x="268" y="159"/>
      <point x="286" y="184"/>
      <point x="317" y="184" type="curve" smooth="yes"/>
      <point x="348" y="184"/>
      <point x="366" y="158"/>
    </contour>
  </outline>
</glyph>
<glyph name="aiLength-oriya.stem" format="2">
  <note>
ailengthmarkorya
</note>
  <anchor x="364" y="751" name="_topright"/>
  <outline>
    <contour>
      <point x="351" y="751" type="curve"/>
      <point x="386" y="734" type="line"/>
      <point x="371" y="735" type="line"/>
      <point x="414" y="772"/>
      <point x="438" y="825"/>
      <point x="438" y="873" type="curve" smooth="yes"/>
      <point x="438" y="931"/>
      <point x="402" y="969"/>
      <point x="347" y="969" type="curve" smooth="yes"/>
      <point x="277" y="969"/>
      <point x="200" y="909"/>
      <point x="135" y="909" type="curve" smooth="yes"/>
      <point x="95" y="909"/>
      <point x="64" y="931"/>
      <point x="39" y="995" type="curve"/>
      <point x="78" y="982" type="line"/>
      <point x="11" y="942" type="line"/>
      <point x="23" y="976" type="line"/>
      <point x="50" y="906"/>
      <point x="91" y="884"/>
      <point x="134" y="884" type="curve" smooth="yes"/>
      <point x="204" y="884"/>
      <point x="280" y="944"/>
      <point x="343" y="944" type="curve" smooth="yes"/>
      <point x="390" y="944"/>
      <point x="412" y="909"/>
      <point x="412" y="869" type="curve" smooth="yes"/>
      <point x="412" y="828"/>
      <point x="390" y="780"/>
    </contour>
  </outline>
</glyph>
<glyph name="aiLength-oriya.umbrella" format="2">
  <advance width="500"/>
  <note>
ailengthmarkorya
</note>
  <guideline x="979" y="527" angle="90"/>
  <anchor x="385" y="751" name="_topright"/>
  <outline>
    <contour>
      <point x="317" y="707" type="line"/>
      <point x="365" y="680" type="line"/>
      <point x="332" y="667" type="line"/>
      <point x="388" y="725"/>
      <point x="419" y="801"/>
      <point x="419" y="862" type="curve" smooth="yes"/>
      <point x="419" y="923"/>
      <point x="388" y="969"/>
      <point x="327" y="969" type="curve" smooth="yes"/>
      <point x="258" y="969"/>
      <point x="180" y="909"/>
      <point x="115" y="909" type="curve" smooth="yes"/>
      <point x="75" y="909"/>
      <point x="44" y="931"/>
      <point x="19" y="995" type="curve"/>
      <point x="58" y="982" type="line"/>
      <point x="-9" y="942" type="line"/>
      <point x="3" y="976" type="line"/>
      <point x="30" y="906"/>
      <point x="71" y="884"/>
      <point x="114" y="884" type="curve" smooth="yes"/>
      <point x="184" y="884"/>
      <point x="261" y="944"/>
      <point x="322" y="944" type="curve" smooth="yes"/>
      <point x="369" y="944"/>
      <point x="393" y="909"/>
      <point x="393" y="859" type="curve" smooth="yes"/>
      <point x="393" y="803"/>
      <point x="362" y="729"/>
      <point x="306" y="677" type="curve"/>
    </contour>
  </outline>
</glyph>
<glyph name="ai_reph-oriya" format="2">
  <advance width="623"/>
  <outline>
    <contour>
      <point x="496" y="421" type="curve" smooth="yes"/>
      <point x="516" y="421"/>
      <point x="548" y="427"/>
      <point x="567" y="441" type="curve"/>
      <point x="567" y="467" type="line"/>
      <point x="548" y="451"/>
      <point x="516" y="445"/>
      <point x="496" y="445" type="curve" smooth="yes"/>
      <point x="476" y="445"/>
      <point x="444" y="451"/>
      <point x="425" y="467" type="curve"/>
      <point x="425" y="441" type="line"/>
      <point x="444" y="427"/>
      <point x="476" y="421"/>
    </contour>
    <contour>
      <point x="609" y="911" type="line"/>
      <point x="711" y="1024" type="line"/>
      <point x="694" y="1039" type="line"/>
      <point x="593" y="927" type="line"/>
    </contour>
    <contour>
      <point x="545" y="786" type="line"/>
      <point x="545" y="93" type="line"/>
      <point x="571" y="93" type="line"/>
      <point x="571" y="787" type="line"/>
    </contour>
    <contour>
      <point x="545" y="786" type="curve"/>
      <point x="565" y="769" type="line"/>
      <point x="606" y="803"/>
      <point x="624" y="839"/>
      <point x="624" y="878" type="curve" smooth="yes"/>
      <point x="624" y="930"/>
      <point x="588" y="969"/>
      <point x="533" y="969" type="curve" smooth="yes"/>
      <point x="464" y="969"/>
      <point x="386" y="909"/>
      <point x="321" y="909" type="curve" smooth="yes"/>
      <point x="281" y="909"/>
      <point x="250" y="931"/>
      <point x="225" y="995" type="curve"/>
      <point x="264" y="982" type="line"/>
      <point x="197" y="942" type="line"/>
      <point x="209" y="976" type="line"/>
      <point x="236" y="906"/>
      <point x="277" y="884"/>
      <point x="320" y="884" type="curve" smooth="yes"/>
      <point x="390" y="884"/>
      <point x="466" y="944"/>
      <point x="529" y="944" type="curve" smooth="yes"/>
      <point x="577" y="944"/>
      <point x="598" y="909"/>
      <point x="598" y="874" type="curve" smooth="yes"/>
      <point x="598" y="842"/>
      <point x="583" y="812"/>
    </contour>
    <contour>
      <point x="227" y="507" type="curve"/>
      <point x="240" y="493" type="line"/>
      <point x="240" y="615"/>
      <point x="312" y="727"/>
      <point x="422" y="726" type="curve"/>
      <point x="415" y="738" type="line"/>
      <point x="415" y="102" type="line"/>
      <point x="437" y="105" type="line"/>
      <point x="274" y="253"/>
      <point x="134" y="419"/>
      <point x="-5" y="603" type="curve"/>
      <point x="23" y="602" type="line"/>
      <point x="-46" y="550" type="line"/>
      <point x="-28" y="588" type="line"/>
      <point x="103" y="416"/>
      <point x="243" y="248"/>
      <point x="412" y="93" type="curve"/>
      <point x="441" y="93" type="line"/>
      <point x="441" y="751" type="line"/>
      <point x="425" y="751" type="line" smooth="yes"/>
      <point x="298" y="751"/>
      <point x="215" y="623"/>
      <point x="215" y="509" type="curve" smooth="yes"/>
      <point x="215" y="455"/>
      <point x="235" y="444"/>
      <point x="249" y="444" type="curve" smooth="yes"/>
      <point x="269" y="444"/>
      <point x="279" y="463"/>
      <point x="279" y="481" type="curve" smooth="yes"/>
      <point x="279" y="500"/>
      <point x="269" y="519"/>
      <point x="250" y="519" type="curve" smooth="yes"/>
      <point x="242" y="519"/>
      <point x="234" y="516"/>
    </contour>
  </outline>
</glyph>
<glyph name="ba_ja-oriya" format="2">
  <advance width="471"/>
  <guideline x="107" y="142" angle="90"/>
  <guideline x="333" y="177" angle="90"/>
  <guideline x="393" y="173" angle="90"/>
  <anchor x="234" y="751" name="top"/>
  <anchor x="398" y="751" name="topright"/>
  <outline>
    <contour>
      <point x="222" y="-155" type="curve" smooth="yes"/>
      <point x="248" y="-155"/>
      <point x="277" y="-147"/>
      <point x="308" y="-132" type="curve"/>
      <point x="294" y="-148" type="line"/>
      <point x="277" y="-102"/>
      <point x="260" y="-52"/>
      <point x="260" y="2" type="curve" smooth="yes"/>
      <point x="260" y="58"/>
      <point x="279" y="107"/>
      <point x="319" y="107" type="curve" smooth="yes"/>
      <point x="352" y="107"/>
      <point x="367" y="80"/>
      <point x="367" y="44" type="curve" smooth="yes"/>
      <point x="367" y="-151" type="line"/>
      <point x="393" y="-151" type="line"/>
      <point x="393" y="44" type="line" smooth="yes"/>
      <point x="393" y="56"/>
      <point x="391" y="129"/>
      <point x="322" y="129" type="curve" smooth="yes"/>
      <point x="260" y="129"/>
      <point x="235" y="72"/>
      <point x="235" y="0" type="curve" smooth="yes"/>
      <point x="235" y="-53"/>
      <point x="248" y="-91"/>
      <point x="265" y="-140" type="curve"/>
      <point x="274" y="-121" type="line"/>
      <point x="257" y="-128"/>
      <point x="241" y="-132"/>
      <point x="224" y="-132" type="curve" smooth="yes"/>
      <point x="169" y="-132"/>
      <point x="137" y="-88"/>
      <point x="137" y="-24" type="curve" smooth="yes"/>
      <point x="137" y="40"/>
      <point x="176" y="96"/>
      <point x="217" y="141" type="curve"/>
      <point x="205" y="104" type="line"/>
      <point x="161" y="134" type="line"/>
      <point x="200" y="156" type="line"/>
      <point x="148" y="103"/>
      <point x="112" y="45"/>
      <point x="112" y="-26" type="curve" smooth="yes"/>
      <point x="112" y="-108"/>
      <point x="159" y="-155"/>
    </contour>
    <contour>
      <point x="307" y="189" type="line"/>
      <point x="333" y="189" type="line"/>
      <point x="333" y="375" type="line"/>
      <point x="307" y="349" type="line"/>
    </contour>
    <contour>
      <point x="218" y="233" type="curve" smooth="yes"/>
      <point x="287" y="233"/>
      <point x="333" y="290"/>
      <point x="333" y="375" type="curve" smooth="yes"/>
      <point x="333" y="460"/>
      <point x="287" y="516"/>
      <point x="218" y="516" type="curve" smooth="yes"/>
      <point x="148" y="516"/>
      <point x="102" y="460"/>
      <point x="102" y="375" type="curve" smooth="yes"/>
      <point x="102" y="290"/>
      <point x="148" y="233"/>
    </contour>
    <contour>
      <point x="218" y="258" type="curve" smooth="yes"/>
      <point x="164" y="258"/>
      <point x="128" y="305"/>
      <point x="128" y="375" type="curve" smooth="yes"/>
      <point x="128" y="445"/>
      <point x="164" y="491"/>
      <point x="218" y="491" type="curve" smooth="yes"/>
      <point x="271" y="491"/>
      <point x="307" y="445"/>
      <point x="307" y="375" type="curve" smooth="yes"/>
      <point x="307" y="305"/>
      <point x="271" y="258"/>
    </contour>
    <contour>
      <point x="116" y="365" type="curve"/>
      <point x="124" y="388" type="line"/>
      <point x="81" y="426"/>
      <point x="54" y="481"/>
      <point x="54" y="546" type="curve" smooth="yes"/>
      <point x="54" y="671"/>
      <point x="144" y="734"/>
      <point x="234" y="734" type="curve" smooth="yes"/>
      <point x="325" y="734"/>
      <point x="417" y="669"/>
      <point x="417" y="539" type="curve" smooth="yes"/>
      <point x="417" y="484"/>
      <point x="402" y="434"/>
      <point x="368" y="394" type="curve"/>
      <point x="364" y="412" type="line"/>
      <point x="403" y="381" type="line"/>
      <point x="390" y="381" type="line"/>
      <point x="423" y="421"/>
      <point x="443" y="476"/>
      <point x="443" y="539" type="curve" smooth="yes"/>
      <point x="443" y="686"/>
      <point x="338" y="759"/>
      <point x="234" y="759" type="curve" smooth="yes"/>
      <point x="130" y="759"/>
      <point x="28" y="687"/>
      <point x="28" y="549" type="curve" smooth="yes"/>
      <point x="28" y="470"/>
      <point x="61" y="404"/>
    </contour>
  </outline>
</glyph>
<glyph name="bha_alt-oriya.below" format="2">
  <advance width="285"/>
  <anchor x="135" y="205" name="_bottom"/>
  <outline>
    <contour>
      <point x="42" y="-46" type="line"/>
      <point x="250" y="-123" type="line"/>
      <point x="259" y="-100" type="line"/>
      <point x="109" y="-44" type="line"/>
      <point x="77" y="-36" type="line"/>
      <point x="51" y="-23" type="line"/>
    </contour>
    <contour>
      <point x="43" y="178" type="curve"/>
      <point x="55" y="158" type="line"/>
      <point x="80" y="176"/>
      <point x="106" y="184"/>
      <point x="130" y="184" type="curve" smooth="yes"/>
      <point x="181" y="184"/>
      <point x="224" y="149"/>
      <point x="224" y="86" type="curve" smooth="yes"/>
      <point x="224" y="15"/>
      <point x="170" y="-33"/>
      <point x="103" y="-33" type="curve" smooth="yes"/>
      <point x="87" y="-33"/>
      <point x="69" y="-30"/>
      <point x="51" y="-23" type="curve"/>
      <point x="100" y="-58" type="line"/>
      <point x="201" y="-58"/>
      <point x="250" y="16"/>
      <point x="250" y="89" type="curve" smooth="yes"/>
      <point x="250" y="164"/>
      <point x="198" y="209"/>
      <point x="135" y="209" type="curve" smooth="yes"/>
      <point x="105" y="209"/>
      <point x="73" y="199"/>
    </contour>
  </outline>
</glyph>
<glyph name="ca-oriya.base" format="2">
  <advance width="482"/>
  <anchor x="331" y="203" name="bottom"/>
  <anchor x="239" y="751" name="top"/>
  <anchor x="409" y="751" name="topright"/>
  <outline>
    <contour>
      <point x="111" y="367" type="curve"/>
      <point x="118" y="390" type="line"/>
      <point x="80" y="427"/>
      <point x="54" y="490"/>
      <point x="54" y="547" type="curve" smooth="yes"/>
      <point x="54" y="659"/>
      <point x="128" y="734"/>
      <point x="240" y="734" type="curve" smooth="yes"/>
      <point x="353" y="734"/>
      <point x="428" y="656"/>
      <point x="428" y="539" type="curve" smooth="yes"/>
      <point x="428" y="487"/>
      <point x="409" y="430"/>
      <point x="380" y="396" type="curve"/>
      <point x="375" y="412" type="line"/>
      <point x="416" y="379" type="line"/>
      <point x="403" y="383" type="line"/>
      <point x="434" y="421"/>
      <point x="454" y="482"/>
      <point x="454" y="537" type="curve" smooth="yes"/>
      <point x="454" y="670"/>
      <point x="368" y="759"/>
      <point x="239" y="759" type="curve" smooth="yes"/>
      <point x="112" y="759"/>
      <point x="28" y="675"/>
      <point x="28" y="548" type="curve" smooth="yes"/>
      <point x="28" y="477"/>
      <point x="61" y="405"/>
    </contour>
    <contour>
      <point x="219" y="183" type="curve" smooth="yes"/>
      <point x="294" y="183"/>
      <point x="344" y="243"/>
      <point x="344" y="334" type="curve" smooth="yes"/>
      <point x="344" y="425"/>
      <point x="294" y="486"/>
      <point x="219" y="486" type="curve" smooth="yes"/>
      <point x="144" y="486"/>
      <point x="94" y="425"/>
      <point x="94" y="334" type="curve" smooth="yes"/>
      <point x="94" y="243"/>
      <point x="144" y="183"/>
    </contour>
    <contour>
      <point x="219" y="208" type="curve" smooth="yes"/>
      <point x="160" y="208"/>
      <point x="120" y="258"/>
      <point x="120" y="335" type="curve" smooth="yes"/>
      <point x="120" y="412"/>
      <point x="160" y="461"/>
      <point x="219" y="461" type="curve" smooth="yes"/>
      <point x="278" y="461"/>
      <point x="318" y="411"/>
      <point x="318" y="334" type="curve" smooth="yes"/>
      <point x="318" y="257"/>
      <point x="278" y="208"/>
    </contour>
  </outline>
</glyph>
<glyph name="ca-oriya.below" format="2">
  <note>
casubscriptorya
</note>
  <guideline x="145" y="159" angle="90"/>
  <anchor x="180" y="203" name="_bottom"/>
  <outline>
    <contour>
      <point x="63" y="-35" type="curve"/>
      <point x="75" y="-14" type="line"/>
      <point x="54" y="10"/>
      <point x="43" y="41"/>
      <point x="43" y="72" type="curve" smooth="yes"/>
      <point x="43" y="129"/>
      <point x="74" y="186"/>
      <point x="144" y="186" type="curve" smooth="yes"/>
      <point x="214" y="186"/>
      <point x="245" y="129"/>
      <point x="245" y="71" type="curve" smooth="yes"/>
      <point x="245" y="40"/>
      <point x="236" y="8"/>
      <point x="215" y="-19" type="curve"/>
      <point x="218" y="-1" type="line"/>
      <point x="251" y="-24" type="line"/>
      <point x="239" y="-27" type="line"/>
      <point x="261" y="2"/>
      <point x="271" y="37"/>
      <point x="271" y="70" type="curve" smooth="yes"/>
      <point x="271" y="142"/>
      <point x="231" y="209"/>
      <point x="145" y="209" type="curve" smooth="yes"/>
      <point x="58" y="209"/>
      <point x="18" y="142"/>
      <point x="18" y="73" type="curve" smooth="yes"/>
      <point x="18" y="34"/>
      <point x="32" y="-6"/>
    </contour>
    <contour>
      <point x="138" y="-155" type="curve" smooth="yes"/>
      <point x="185" y="-155"/>
      <point x="217" y="-117"/>
      <point x="217" y="-59" type="curve" smooth="yes"/>
      <point x="217" y="-1"/>
      <point x="185" y="37"/>
      <point x="138" y="37" type="curve" smooth="yes"/>
      <point x="90" y="37"/>
      <point x="59" y="-1"/>
      <point x="59" y="-59" type="curve" smooth="yes"/>
      <point x="59" y="-116"/>
      <point x="89" y="-155"/>
    </contour>
    <contour>
      <point x="138" y="-132" type="curve" smooth="yes"/>
      <point x="105" y="-132"/>
      <point x="84" y="-102"/>
      <point x="84" y="-58" type="curve" smooth="yes"/>
      <point x="84" y="-15"/>
      <point x="105" y="14"/>
      <point x="138" y="14" type="curve" smooth="yes"/>
      <point x="171" y="14"/>
      <point x="192" y="-16"/>
      <point x="192" y="-59" type="curve" smooth="yes"/>
      <point x="192" y="-102"/>
      <point x="171" y="-132"/>
    </contour>
  </outline>
</glyph>
<glyph name="ca_ra-oriya" format="2">
  <advance width="518"/>
  <anchor x="234" y="93" name="bottom"/>
  <anchor x="259" y="751" name="top"/>
  <anchor x="445" y="751" name="topright"/>
  <outline>
    <contour>
      <point x="113" y="300" type="curve"/>
      <point x="121" y="327" type="line"/>
      <point x="81" y="371"/>
      <point x="54" y="435"/>
      <point x="54" y="505" type="curve" smooth="yes"/>
      <point x="54" y="633"/>
      <point x="141" y="734"/>
      <point x="261" y="734" type="curve" smooth="yes"/>
      <point x="378" y="734"/>
      <point x="464" y="635"/>
      <point x="464" y="500" type="curve" smooth="yes"/>
      <point x="464" y="442"/>
      <point x="448" y="381"/>
      <point x="414" y="335" type="curve"/>
      <point x="409" y="348" type="line"/>
      <point x="447" y="319" type="line"/>
      <point x="434" y="320" type="line"/>
      <point x="469" y="366"/>
      <point x="490" y="431"/>
      <point x="490" y="501" type="curve" smooth="yes"/>
      <point x="490" y="654"/>
      <point x="390" y="759"/>
      <point x="259" y="759" type="curve" smooth="yes"/>
      <point x="125" y="759"/>
      <point x="28" y="648"/>
      <point x="28" y="507" type="curve" smooth="yes"/>
      <point x="28" y="423"/>
      <point x="62" y="345"/>
    </contour>
    <contour>
      <point x="234" y="85" type="curve" smooth="yes"/>
      <point x="316" y="85"/>
      <point x="370" y="156"/>
      <point x="370" y="263" type="curve" smooth="yes"/>
      <point x="370" y="369"/>
      <point x="316" y="440"/>
      <point x="234" y="440" type="curve" smooth="yes"/>
      <point x="152" y="440"/>
      <point x="98" y="369"/>
      <point x="98" y="263" type="curve" smooth="yes"/>
      <point x="98" y="156"/>
      <point x="152" y="85"/>
    </contour>
    <contour>
      <point x="234" y="110" type="curve" smooth="yes"/>
      <point x="167" y="110"/>
      <point x="124" y="171"/>
      <point x="124" y="264" type="curve" smooth="yes"/>
      <point x="124" y="356"/>
      <point x="167" y="415"/>
      <point x="234" y="415" type="curve" smooth="yes"/>
      <point x="301" y="415"/>
      <point x="344" y="355"/>
      <point x="344" y="263" type="curve" smooth="yes"/>
      <point x="344" y="170"/>
      <point x="301" y="110"/>
    </contour>
    <contour>
      <point x="440" y="-47" type="line"/>
      <point x="440" y="103" type="line"/>
      <point x="414" y="103" type="line"/>
      <point x="414" y="-22" type="line"/>
      <point x="72" y="-22" type="line"/>
      <point x="72" y="-47" type="line"/>
    </contour>
  </outline>
</glyph>
<glyph name="da-oriya.base" format="2">
  <advance width="505"/>
  <anchor x="330" y="203" name="bottom"/>
  <anchor x="250" y="751" name="top"/>
  <anchor x="432" y="751" name="topright"/>
  <outline>
    <contour>
      <point x="226" y="253" type="curve" smooth="yes"/>
      <point x="266" y="253"/>
      <point x="310" y="271"/>
      <point x="338" y="312" type="curve"/>
      <point x="323" y="331" type="line"/>
      <point x="301" y="294"/>
      <point x="263" y="278"/>
      <point x="228" y="278" type="curve" smooth="yes"/>
      <point x="180" y="278"/>
      <point x="137" y="309"/>
      <point x="137" y="363" type="curve" smooth="yes"/>
      <point x="137" y="406"/>
      <point x="162" y="458"/>
      <point x="208" y="493" type="curve"/>
      <point x="194" y="511" type="line"/>
      <point x="143" y="475"/>
      <point x="111" y="416"/>
      <point x="111" y="364" type="curve" smooth="yes"/>
      <point x="111" y="295"/>
      <point x="167" y="253"/>
    </contour>
    <contour>
      <point x="317" y="189" type="line"/>
      <point x="343" y="189" type="line"/>
      <point x="343" y="463" type="line"/>
      <point x="317" y="463" type="line"/>
      <point x="317" y="304" type="line"/>
      <point x="317" y="294" type="line"/>
    </contour>
    <contour>
      <point x="121" y="357" type="curve"/>
      <point x="126" y="386" type="line"/>
      <point x="81" y="419"/>
      <point x="54" y="478"/>
      <point x="54" y="546" type="curve" smooth="yes"/>
      <point x="54" y="655"/>
      <point x="134" y="734"/>
      <point x="252" y="734" type="curve" smooth="yes"/>
      <point x="371" y="734"/>
      <point x="451" y="653"/>
      <point x="451" y="533" type="curve" smooth="yes"/>
      <point x="451" y="489"/>
      <point x="440" y="434"/>
      <point x="406" y="397" type="curve"/>
      <point x="402" y="410" type="line"/>
      <point x="438" y="381" type="line"/>
      <point x="424" y="383" type="line"/>
      <point x="459" y="421"/>
      <point x="477" y="478"/>
      <point x="477" y="537" type="curve" smooth="yes"/>
      <point x="477" y="670"/>
      <point x="384" y="759"/>
      <point x="250" y="759" type="curve" smooth="yes"/>
      <point x="120" y="759"/>
      <point x="28" y="675"/>
      <point x="28" y="539" type="curve" smooth="yes"/>
      <point x="28" y="463"/>
      <point x="57" y="405"/>
    </contour>
  </outline>
</glyph>
<glyph name="da_ra-oriya" format="2">
  <advance width="544"/>
  <anchor x="273" y="751" name="top"/>
  <anchor x="471" y="751" name="topright"/>
  <outline>
    <contour>
      <point x="254" y="168" type="curve" smooth="yes"/>
      <point x="296" y="168"/>
      <point x="341" y="190"/>
      <point x="369" y="237" type="curve"/>
      <point x="354" y="256" type="line"/>
      <point x="331" y="214"/>
      <point x="293" y="193"/>
      <point x="255" y="193" type="curve" smooth="yes"/>
      <point x="206" y="193"/>
      <point x="161" y="228"/>
      <point x="161" y="294" type="curve" smooth="yes"/>
      <point x="161" y="346"/>
      <point x="188" y="407"/>
      <point x="238" y="448" type="curve"/>
      <point x="222" y="467" type="line"/>
      <point x="166" y="422"/>
      <point x="135" y="354"/>
      <point x="135" y="295" type="curve" smooth="yes"/>
      <point x="135" y="214"/>
      <point x="193" y="168"/>
    </contour>
    <contour>
      <point x="348" y="93" type="line"/>
      <point x="374" y="93" type="line"/>
      <point x="374" y="413" type="line"/>
      <point x="348" y="413" type="line"/>
      <point x="348" y="223" type="line"/>
      <point x="348" y="211" type="line"/>
    </contour>
    <contour>
      <point x="154" y="276" type="curve"/>
      <point x="152" y="309" type="line"/>
      <point x="75" y="359"/>
      <point x="54" y="451"/>
      <point x="54" y="502" type="curve" smooth="yes"/>
      <point x="54" y="634"/>
      <point x="148" y="734"/>
      <point x="273" y="734" type="curve" smooth="yes"/>
      <point x="396" y="734"/>
      <point x="490" y="637"/>
      <point x="490" y="499" type="curve" smooth="yes"/>
      <point x="490" y="441"/>
      <point x="474" y="379"/>
      <point x="440" y="335" type="curve"/>
      <point x="435" y="348" type="line"/>
      <point x="473" y="319" type="line"/>
      <point x="460" y="320" type="line"/>
      <point x="495" y="366"/>
      <point x="516" y="431"/>
      <point x="516" y="500" type="curve" smooth="yes"/>
      <point x="516" y="654"/>
      <point x="412" y="759"/>
      <point x="273" y="759" type="curve" smooth="yes"/>
      <point x="131" y="759"/>
      <point x="28" y="649"/>
      <point x="28" y="502" type="curve" smooth="yes"/>
      <point x="28" y="440"/>
      <point x="50" y="334"/>
    </contour>
    <contour>
      <point x="444" y="-47" type="line"/>
      <point x="444" y="103" type="line"/>
      <point x="418" y="103" type="line"/>
      <point x="418" y="-22" type="line"/>
      <point x="120" y="-22" type="line"/>
      <point x="120" y="-47" type="line"/>
    </contour>
  </outline>
</glyph>
<glyph name="da_ra_uMatra-oriya" format="2">
  <advance width="505"/>
  <anchor x="250" y="751" name="top"/>
  <anchor x="432" y="751" name="topright"/>
  <outline>
    <contour>
      <point x="226" y="253" type="curve" smooth="yes"/>
      <point x="266" y="253"/>
      <point x="310" y="271"/>
      <point x="338" y="312" type="curve"/>
      <point x="323" y="331" type="line"/>
      <point x="301" y="294"/>
      <point x="263" y="278"/>
      <point x="228" y="278" type="curve" smooth="yes"/>
      <point x="180" y="278"/>
      <point x="137" y="309"/>
      <point x="137" y="363" type="curve" smooth="yes"/>
      <point x="137" y="406"/>
      <point x="162" y="458"/>
      <point x="208" y="493" type="curve"/>
      <point x="194" y="511" type="line"/>
      <point x="143" y="475"/>
      <point x="111" y="416"/>
      <point x="111" y="364" type="curve" smooth="yes"/>
      <point x="111" y="295"/>
      <point x="167" y="253"/>
    </contour>
    <contour>
      <point x="121" y="357" type="curve"/>
      <point x="126" y="386" type="line"/>
      <point x="81" y="419"/>
      <point x="54" y="478"/>
      <point x="54" y="546" type="curve" smooth="yes"/>
      <point x="54" y="655"/>
      <point x="134" y="734"/>
      <point x="252" y="734" type="curve" smooth="yes"/>
      <point x="371" y="734"/>
      <point x="451" y="653"/>
      <point x="451" y="533" type="curve" smooth="yes"/>
      <point x="451" y="489"/>
      <point x="440" y="434"/>
      <point x="406" y="397" type="curve"/>
      <point x="402" y="410" type="line"/>
      <point x="438" y="381" type="line"/>
      <point x="424" y="383" type="line"/>
      <point x="459" y="421"/>
      <point x="477" y="478"/>
      <point x="477" y="537" type="curve" smooth="yes"/>
      <point x="477" y="670"/>
      <point x="384" y="759"/>
      <point x="250" y="759" type="curve" smooth="yes"/>
      <point x="120" y="759"/>
      <point x="28" y="675"/>
      <point x="28" y="539" type="curve" smooth="yes"/>
      <point x="28" y="463"/>
      <point x="57" y="405"/>
    </contour>
    <contour>
      <point x="317" y="463" type="line"/>
      <point x="317" y="118" type="line"/>
      <point x="39" y="118" type="line"/>
      <point x="39" y="93" type="line"/>
      <point x="343" y="93" type="line"/>
      <point x="343" y="463" type="line"/>
    </contour>
    <contour>
      <point x="141" y="-110" type="curve" smooth="yes"/>
      <point x="201" y="-110"/>
      <point x="273" y="-56"/>
      <point x="273" y="75" type="curve" smooth="yes"/>
      <point x="273" y="101" type="line"/>
      <point x="247" y="101" type="line"/>
      <point x="247" y="75" type="line" smooth="yes"/>
      <point x="247" y="-40"/>
      <point x="189" y="-85"/>
      <point x="142" y="-85" type="curve" smooth="yes"/>
      <point x="107" y="-85"/>
      <point x="90" y="-61"/>
      <point x="90" y="-36" type="curve" smooth="yes"/>
      <point x="90" y="-10"/>
      <point x="109" y="14"/>
      <point x="144" y="14" type="curve" smooth="yes"/>
      <point x="222" y="14"/>
      <point x="256" y="-110"/>
      <point x="358" y="-110" type="curve" smooth="yes"/>
      <point x="378" y="-110"/>
      <point x="397" y="-105"/>
      <point x="412" y="-94" type="curve"/>
      <point x="404" y="-118" type="line"/>
      <point x="386" y="-58" type="line"/>
      <point x="403" y="-74" type="line"/>
      <point x="389" y="-81"/>
      <point x="371" y="-85"/>
      <point x="356" y="-85" type="curve" smooth="yes"/>
      <point x="270" y="-85"/>
      <point x="235" y="39"/>
      <point x="141" y="39" type="curve" smooth="yes"/>
      <point x="90" y="39"/>
      <point x="64" y="2"/>
      <point x="64" y="-35" type="curve" smooth="yes"/>
      <point x="64" y="-73"/>
      <point x="91" y="-110"/>
    </contour>
  </outline>
</glyph>
<glyph name="da_va-oriya" format="2">
  <advance width="544"/>
  <anchor x="348" y="93" name="bottom"/>
  <anchor x="444" y="93" name="bottom_ra"/>
  <anchor x="204" y="113" name="curve"/>
  <anchor x="273" y="751" name="top"/>
  <anchor x="471" y="751" name="topright"/>
  <anchor x="348" y="112" name="vertical"/>
  <outline>
    <contour>
      <point x="254" y="168" type="curve" smooth="yes"/>
      <point x="296" y="168"/>
      <point x="341" y="190"/>
      <point x="369" y="237" type="curve"/>
      <point x="354" y="256" type="line"/>
      <point x="331" y="214"/>
      <point x="293" y="193"/>
      <point x="255" y="193" type="curve" smooth="yes"/>
      <point x="206" y="193"/>
      <point x="161" y="228"/>
      <point x="161" y="294" type="curve" smooth="yes"/>
      <point x="161" y="346"/>
      <point x="188" y="407"/>
      <point x="238" y="448" type="curve"/>
      <point x="222" y="467" type="line"/>
      <point x="166" y="422"/>
      <point x="135" y="354"/>
      <point x="135" y="295" type="curve" smooth="yes"/>
      <point x="135" y="214"/>
      <point x="193" y="168"/>
    </contour>
    <contour>
      <point x="348" y="93" type="line"/>
      <point x="374" y="93" type="line"/>
      <point x="374" y="413" type="line"/>
      <point x="348" y="413" type="line"/>
      <point x="348" y="223" type="line"/>
      <point x="348" y="211" type="line"/>
    </contour>
    <contour>
      <point x="154" y="276" type="curve"/>
      <point x="152" y="309" type="line"/>
      <point x="75" y="359"/>
      <point x="54" y="451"/>
      <point x="54" y="502" type="curve" smooth="yes"/>
      <point x="54" y="634"/>
      <point x="148" y="734"/>
      <point x="273" y="734" type="curve" smooth="yes"/>
      <point x="396" y="734"/>
      <point x="490" y="637"/>
      <point x="490" y="499" type="curve" smooth="yes"/>
      <point x="490" y="441"/>
      <point x="474" y="379"/>
      <point x="440" y="335" type="curve"/>
      <point x="435" y="348" type="line"/>
      <point x="473" y="319" type="line"/>
      <point x="460" y="320" type="line"/>
      <point x="495" y="366"/>
      <point x="516" y="431"/>
      <point x="516" y="500" type="curve" smooth="yes"/>
      <point x="516" y="654"/>
      <point x="412" y="759"/>
      <point x="273" y="759" type="curve" smooth="yes"/>
      <point x="131" y="759"/>
      <point x="28" y="649"/>
      <point x="28" y="502" type="curve" smooth="yes"/>
      <point x="28" y="440"/>
      <point x="50" y="334"/>
    </contour>
    <contour>
      <point x="277" y="-75" type="curve" smooth="yes"/>
      <point x="311" y="-75"/>
      <point x="342" y="-61"/>
      <point x="363" y="-35" type="curve"/>
      <point x="360" y="-5" type="line"/>
      <point x="342" y="-34"/>
      <point x="311" y="-51"/>
      <point x="279" y="-51" type="curve" smooth="yes"/>
      <point x="233" y="-51"/>
      <point x="208" y="-15"/>
      <point x="208" y="31" type="curve" smooth="yes"/>
      <point x="208" y="55"/>
      <point x="216" y="88"/>
      <point x="229" y="113" type="curve"/>
      <point x="238" y="97" type="line"/>
      <point x="192" y="118" type="line"/>
      <point x="207" y="120" type="line"/>
      <point x="192" y="93"/>
      <point x="182" y="57"/>
      <point x="182" y="28" type="curve" smooth="yes"/>
      <point x="182" y="-28"/>
      <point x="215" y="-75"/>
    </contour>
    <contour>
      <point x="348" y="-151" type="line"/>
      <point x="374" y="-151" type="line"/>
      <point x="374" y="112" type="line"/>
      <point x="348" y="112" type="line"/>
      <point x="348" y="-36" type="line"/>
      <point x="348" y="-45" type="line"/>
    </contour>
  </outline>
</glyph>
<glyph name="dda-oriya.REV_BRACKET.141" format="2">
  <advance width="521"/>
  <note>
ddaorya
</note>
  <anchor x="246" y="93" name="bottom"/>
  <anchor x="450" y="93" name="bottom_ra"/>
  <anchor x="246" y="3" name="nukta"/>
  <anchor x="262" y="751" name="top"/>
  <anchor x="448" y="751" name="topright"/>
  <outline>
    <contour>
      <point x="116" y="300" type="curve"/>
      <point x="124" y="327" type="line"/>
      <point x="82" y="371"/>
      <point x="54" y="435"/>
      <point x="54" y="507" type="curve" smooth="yes"/>
      <point x="54" y="634"/>
      <point x="143" y="734"/>
      <point x="262" y="734" type="curve" smooth="yes"/>
      <point x="381" y="734"/>
      <point x="467" y="635"/>
      <point x="467" y="500" type="curve" smooth="yes"/>
      <point x="467" y="441"/>
      <point x="451" y="381"/>
      <point x="417" y="335" type="curve"/>
      <point x="412" y="348" type="line"/>
      <point x="450" y="319" type="line"/>
      <point x="437" y="320" type="line"/>
      <point x="472" y="366"/>
      <point x="493" y="431"/>
      <point x="493" y="501" type="curve" smooth="yes"/>
      <point x="493" y="654"/>
      <point x="393" y="759"/>
      <point x="262" y="759" type="curve" smooth="yes"/>
      <point x="126" y="759"/>
      <point x="28" y="648"/>
      <point x="28" y="507" type="curve" smooth="yes"/>
      <point x="28" y="423"/>
      <point x="63" y="345"/>
    </contour>
    <contour>
      <point x="105" y="257" type="curve" smooth="yes"/>
      <point x="105" y="154"/>
      <point x="156" y="85"/>
      <point x="246" y="85" type="curve" smooth="yes"/>
      <point x="334" y="85"/>
      <point x="381" y="152"/>
      <point x="381" y="230" type="curve" smooth="yes"/>
      <point x="381" y="283"/>
      <point x="359" y="340"/>
      <point x="313" y="383" type="curve"/>
      <point x="298" y="364" type="line"/>
      <point x="336" y="329"/>
      <point x="355" y="279"/>
      <point x="355" y="232" type="curve" smooth="yes"/>
      <point x="355" y="167"/>
      <point x="318" y="110"/>
      <point x="246" y="110" type="curve" smooth="yes"/>
      <point x="172" y="110"/>
      <point x="131" y="170"/>
      <point x="131" y="257" type="curve" smooth="yes"/>
      <point x="131" y="326"/>
      <point x="160" y="388"/>
      <point x="215" y="450" type="curve"/>
      <point x="197" y="466" type="line"/>
      <point x="137" y="399"/>
      <point x="105" y="323"/>
    </contour>
    <contour>
      <point x="254" y="291" type="line"/>
      <point x="368" y="438" type="line"/>
      <point x="350" y="453" type="line"/>
      <point x="236" y="306" type="line"/>
    </contour>
  </outline>
</glyph>
<glyph name="ddha_ra-oriya" format="2">
  <advance width="521"/>
  <guideline x="441" y="31" angle="90"/>
  <anchor x="275" y="751" name="top"/>
  <anchor x="470" y="751" name="topright"/>
  <outline>
    <contour>
      <point x="98" y="247" type="curve" smooth="yes"/>
      <point x="98" y="163"/>
      <point x="136" y="85"/>
      <point x="224" y="85" type="curve" smooth="yes"/>
      <point x="333" y="85"/>
      <point x="381" y="203"/>
      <point x="381" y="285" type="curve" smooth="yes"/>
      <point x="381" y="363"/>
      <point x="337" y="401"/>
      <point x="295" y="401" type="curve" smooth="yes"/>
      <point x="253" y="401"/>
      <point x="210" y="363"/>
      <point x="210" y="282" type="curve" smooth="yes"/>
      <point x="210" y="201"/>
      <point x="252" y="107"/>
      <point x="388" y="59" type="curve"/>
      <point x="373" y="52" type="line"/>
      <point x="392" y="94" type="line"/>
      <point x="397" y="79" type="line"/>
      <point x="280" y="124"/>
      <point x="236" y="194"/>
      <point x="236" y="281" type="curve" smooth="yes"/>
      <point x="236" y="345"/>
      <point x="264" y="376"/>
      <point x="295" y="376" type="curve" smooth="yes"/>
      <point x="326" y="376"/>
      <point x="355" y="345"/>
      <point x="355" y="279" type="curve" smooth="yes"/>
      <point x="355" y="195"/>
      <point x="305" y="110"/>
      <point x="224" y="110" type="curve" smooth="yes"/>
      <point x="153" y="110"/>
      <point x="124" y="176"/>
      <point x="124" y="248" type="curve" smooth="yes"/>
      <point x="124" y="314"/>
      <point x="148" y="385"/>
      <point x="211" y="454" type="curve"/>
      <point x="192" y="471" type="line"/>
      <point x="126" y="397"/>
      <point x="98" y="321"/>
    </contour>
    <contour>
      <point x="116" y="300" type="curve"/>
      <point x="124" y="327" type="line"/>
      <point x="82" y="371"/>
      <point x="54" y="435"/>
      <point x="54" y="507" type="curve" smooth="yes"/>
      <point x="54" y="634"/>
      <point x="143" y="734"/>
      <point x="262" y="734" type="curve" smooth="yes"/>
      <point x="381" y="734"/>
      <point x="467" y="635"/>
      <point x="467" y="500" type="curve" smooth="yes"/>
      <point x="467" y="444"/>
      <point x="452" y="386"/>
      <point x="421" y="341" type="curve"/>
      <point x="441" y="326" type="line"/>
      <point x="474" y="371"/>
      <point x="493" y="434"/>
      <point x="493" y="501" type="curve" smooth="yes"/>
      <point x="493" y="654"/>
      <point x="393" y="759"/>
      <point x="262" y="759" type="curve" smooth="yes"/>
      <point x="126" y="759"/>
      <point x="28" y="648"/>
      <point x="28" y="507" type="curve" smooth="yes"/>
      <point x="28" y="423"/>
      <point x="63" y="345"/>
    </contour>
    <contour>
      <point x="451" y="-47" type="line"/>
      <point x="451" y="103" type="line"/>
      <point x="425" y="103" type="line"/>
      <point x="425" y="-34" type="line"/>
      <point x="437" y="-22" type="line"/>
      <point x="83" y="-22" type="line"/>
      <point x="83" y="-47" type="line"/>
    </contour>
  </outline>
</glyph>
<glyph name="e-oriya.REV_BRACKET.141" format="2">
  <advance width="493"/>
  <note>
eorya
</note>
  <anchor x="428" y="751" name="topright"/>
  <outline>
    <contour>
      <point x="227" y="507" type="curve"/>
      <point x="240" y="493" type="line"/>
      <point x="240" y="615"/>
      <point x="312" y="727"/>
      <point x="422" y="726" type="curve"/>
      <point x="415" y="738" type="line"/>
      <point x="415" y="102" type="line"/>
      <point x="437" y="105" type="line"/>
      <point x="274" y="253"/>
      <point x="134" y="419"/>
      <point x="-5" y="603" type="curve"/>
      <point x="23" y="602" type="line"/>
      <point x="-46" y="550" type="line"/>
      <point x="-28" y="588" type="line"/>
      <point x="103" y="416"/>
      <point x="243" y="248"/>
      <point x="412" y="93" type="curve"/>
      <point x="441" y="93" type="line"/>
      <point x="441" y="751" type="line"/>
      <point x="425" y="751" type="line" smooth="yes"/>
      <point x="298" y="751"/>
      <point x="215" y="623"/>
      <point x="215" y="509" type="curve" smooth="yes"/>
      <point x="215" y="455"/>
      <point x="235" y="444"/>
      <point x="249" y="444" type="curve" smooth="yes"/>
      <point x="269" y="444"/>
      <point x="279" y="463"/>
      <point x="279" y="481" type="curve" smooth="yes"/>
      <point x="279" y="500"/>
      <point x="269" y="519"/>
      <point x="250" y="519" type="curve" smooth="yes"/>
      <point x="242" y="519"/>
      <point x="234" y="516"/>
    </contour>
  </outline>
</glyph>
<glyph name="ha-oriya.base" format="2">
  <advance width="472"/>
  <note>
hasquishorya
</note>
  <guideline x="301" y="57" angle="90"/>
  <anchor x="288" y="203" name="bottom"/>
  <anchor x="234" y="751" name="top"/>
  <anchor x="399" y="751" name="topright"/>
  <outline>
    <contour>
      <point x="368" y="177" type="line"/>
      <point x="376" y="198" type="line"/>
      <point x="102" y="295" type="line"/>
      <point x="106" y="280" type="line"/>
      <point x="180" y="350" type="line"/>
      <point x="157" y="359" type="line"/>
      <point x="85" y="292" type="line"/>
      <point x="86" y="276" type="line"/>
    </contour>
    <contour>
      <point x="216" y="340" type="curve" smooth="yes"/>
      <point x="256" y="340"/>
      <point x="288" y="354"/>
      <point x="313" y="390" type="curve"/>
      <point x="306" y="415" type="line"/>
      <point x="282" y="377"/>
      <point x="252" y="363"/>
      <point x="218" y="363" type="curve" smooth="yes"/>
      <point x="164" y="363"/>
      <point x="138" y="403"/>
      <point x="138" y="450" type="curve" smooth="yes"/>
      <point x="138" y="491"/>
      <point x="158" y="537"/>
      <point x="197" y="565" type="curve"/>
      <point x="182" y="583" type="line"/>
      <point x="136" y="552"/>
      <point x="112" y="499"/>
      <point x="112" y="450" type="curve" smooth="yes"/>
      <point x="112" y="392"/>
      <point x="146" y="340"/>
    </contour>
    <contour>
      <point x="288" y="288" type="line"/>
      <point x="314" y="288" type="line"/>
      <point x="314" y="536" type="line"/>
      <point x="288" y="536" type="line"/>
      <point x="288" y="381" type="line"/>
      <point x="288" y="373" type="line"/>
    </contour>
    <contour>
      <point x="375" y="376" type="line"/>
      <point x="422" y="422"/>
      <point x="444" y="483"/>
      <point x="444" y="546" type="curve" smooth="yes"/>
      <point x="444" y="685"/>
      <point x="338" y="759"/>
      <point x="234" y="759" type="curve" smooth="yes"/>
      <point x="137" y="759"/>
      <point x="28" y="694"/>
      <point x="28" y="574" type="curve" smooth="yes"/>
      <point x="28" y="512"/>
      <point x="58" y="448"/>
      <point x="127" y="414" type="curve"/>
      <point x="129" y="442" type="line"/>
      <point x="79" y="469"/>
      <point x="54" y="519"/>
      <point x="54" y="573" type="curve" smooth="yes"/>
      <point x="54" y="678"/>
      <point x="149" y="736"/>
      <point x="235" y="736" type="curve" smooth="yes"/>
      <point x="337" y="736"/>
      <point x="418" y="656"/>
      <point x="418" y="544" type="curve" smooth="yes"/>
      <point x="418" y="489"/>
      <point x="399" y="431"/>
      <point x="354" y="389" type="curve"/>
      <point x="343" y="433" type="line"/>
      <point x="417" y="376" type="line"/>
    </contour>
  </outline>
</glyph>
<glyph name="ha-oriya.below" format="2">
  <note>
hasubscriptorya
</note>
  <guideline x="149" y="162" angle="90"/>
  <anchor x="184" y="203" name="_bottom"/>
  <outline>
    <contour>
      <point x="73" y="-5" type="curve"/>
      <point x="77" y="19" type="line"/>
      <point x="56" y="35"/>
      <point x="43" y="64"/>
      <point x="43" y="94" type="curve" smooth="yes"/>
      <point x="43" y="153"/>
      <point x="93" y="184"/>
      <point x="145" y="184" type="curve" smooth="yes"/>
      <point x="199" y="184"/>
      <point x="255" y="150"/>
      <point x="255" y="81" type="curve" smooth="yes"/>
      <point x="255" y="47"/>
      <point x="240" y="13"/>
      <point x="216" y="-7" type="curve"/>
      <point x="215" y="19" type="line"/>
      <point x="262" y="-20" type="line"/>
      <point x="239" y="-21" type="line"/>
      <point x="265" y="3"/>
      <point x="280" y="42"/>
      <point x="280" y="82" type="curve" smooth="yes"/>
      <point x="280" y="167"/>
      <point x="211" y="209"/>
      <point x="144" y="209" type="curve" smooth="yes"/>
      <point x="80" y="209"/>
      <point x="18" y="171"/>
      <point x="18" y="97" type="curve" smooth="yes"/>
      <point x="18" y="56"/>
      <point x="38" y="14"/>
    </contour>
    <contour>
      <point x="230" y="-155" type="line"/>
      <point x="238" y="-134" type="line"/>
      <point x="73" y="-77" type="line"/>
      <point x="74" y="-90" type="line"/>
      <point x="124" y="-43" type="line"/>
      <point x="103" y="-33" type="line"/>
      <point x="52" y="-80" type="line"/>
      <point x="54" y="-94" type="line"/>
    </contour>
    <contour>
      <point x="70" y="11" type="curve" smooth="yes"/>
      <point x="70" y="-27"/>
      <point x="91" y="-61"/>
      <point x="130" y="-61" type="curve" smooth="yes"/>
      <point x="154" y="-61"/>
      <point x="179" y="-48"/>
      <point x="194" y="-20" type="curve"/>
      <point x="184" y="-1" type="line"/>
      <point x="176" y="-25"/>
      <point x="154" y="-38"/>
      <point x="134" y="-38" type="curve" smooth="yes"/>
      <point x="108" y="-38"/>
      <point x="94" y="-14"/>
      <point x="94" y="13" type="curve" smooth="yes"/>
      <point x="94" y="38"/>
      <point x="107" y="68"/>
      <point x="128" y="83" type="curve"/>
      <point x="115" y="101" type="line"/>
      <point x="86" y="81"/>
      <point x="70" y="44"/>
    </contour>
    <contour>
      <point x="173" y="-85" type="line"/>
      <point x="198" y="-85" type="line"/>
      <point x="198" y="71" type="line"/>
      <point x="173" y="71" type="line"/>
      <point x="172" y="-27" type="line"/>
      <point x="172" y="-33" type="line"/>
    </contour>
  </outline>
</glyph>
<glyph name="ha_ka-oriya" format="2">
  <advance width="472"/>
  <note>
hakaorya
</note>
  <guideline x="314" y="372" angle="90"/>
  <guideline x="374" y="372" angle="90"/>
  <anchor x="234" y="751" name="top"/>
  <anchor x="399" y="751" name="topright"/>
  <outline>
    <contour>
      <point x="216" y="340" type="curve" smooth="yes"/>
      <point x="256" y="340"/>
      <point x="288" y="354"/>
      <point x="313" y="390" type="curve"/>
      <point x="306" y="415" type="line"/>
      <point x="282" y="377"/>
      <point x="252" y="363"/>
      <point x="218" y="363" type="curve" smooth="yes"/>
      <point x="164" y="363"/>
      <point x="138" y="403"/>
      <point x="138" y="450" type="curve" smooth="yes"/>
      <point x="138" y="491"/>
      <point x="158" y="537"/>
      <point x="197" y="565" type="curve"/>
      <point x="182" y="583" type="line"/>
      <point x="136" y="552"/>
      <point x="112" y="499"/>
      <point x="112" y="450" type="curve" smooth="yes"/>
      <point x="112" y="392"/>
      <point x="146" y="340"/>
    </contour>
    <contour>
      <point x="288" y="288" type="line"/>
      <point x="314" y="288" type="line"/>
      <point x="314" y="536" type="line"/>
      <point x="288" y="536" type="line"/>
      <point x="288" y="381" type="line"/>
      <point x="288" y="373" type="line"/>
    </contour>
    <contour>
      <point x="375" y="376" type="line"/>
      <point x="422" y="422"/>
      <point x="444" y="483"/>
      <point x="444" y="546" type="curve" smooth="yes"/>
      <point x="444" y="685"/>
      <point x="338" y="759"/>
      <point x="234" y="759" type="curve" smooth="yes"/>
      <point x="137" y="759"/>
      <point x="28" y="694"/>
      <point x="28" y="574" type="curve" smooth="yes"/>
      <point x="28" y="512"/>
      <point x="58" y="448"/>
      <point x="127" y="414" type="curve"/>
      <point x="129" y="442" type="line"/>
      <point x="79" y="469"/>
      <point x="54" y="519"/>
      <point x="54" y="573" type="curve" smooth="yes"/>
      <point x="54" y="678"/>
      <point x="149" y="736"/>
      <point x="235" y="736" type="curve" smooth="yes"/>
      <point x="337" y="736"/>
      <point x="418" y="656"/>
      <point x="418" y="544" type="curve" smooth="yes"/>
      <point x="418" y="489"/>
      <point x="399" y="431"/>
      <point x="354" y="389" type="curve"/>
      <point x="343" y="433" type="line"/>
      <point x="417" y="376" type="line"/>
    </contour>
    <contour>
      <point x="174" y="-3" type="curve" smooth="yes"/>
      <point x="221" y="-3"/>
      <point x="252" y="41"/>
      <point x="252" y="103" type="curve" smooth="yes"/>
      <point x="252" y="168"/>
      <point x="221" y="209"/>
      <point x="174" y="209" type="curve" smooth="yes"/>
      <point x="127" y="209"/>
      <point x="96" y="168"/>
      <point x="96" y="102" type="curve" smooth="yes"/>
      <point x="96" y="40"/>
      <point x="127" y="-3"/>
    </contour>
    <contour>
      <point x="174" y="20" type="curve" smooth="yes"/>
      <point x="143" y="20"/>
      <point x="121" y="52"/>
      <point x="121" y="102" type="curve" smooth="yes"/>
      <point x="121" y="153"/>
      <point x="143" y="186"/>
      <point x="174" y="186" type="curve" smooth="yes"/>
      <point x="205" y="186"/>
      <point x="227" y="153"/>
      <point x="227" y="102" type="curve" smooth="yes"/>
      <point x="227" y="52"/>
      <point x="205" y="20"/>
    </contour>
    <contour>
      <point x="324" y="206" type="curve" smooth="yes"/>
      <point x="116" y="289" type="line"/>
      <point x="180" y="350" type="line"/>
      <point x="157" y="359" type="line"/>
      <point x="85" y="292" type="line"/>
      <point x="86" y="276" type="line"/>
      <point x="279" y="199" type="line"/>
      <point x="286" y="208" type="line"/>
      <point x="246" y="199"/>
      <point x="229" y="165"/>
      <point x="228" y="120" type="curve" smooth="yes"/>
      <point x="227" y="79" type="line"/>
      <point x="227" y="-71" type="line"/>
      <point x="253" y="-71" type="line"/>
      <point x="253" y="120" type="line" smooth="yes"/>
      <point x="253" y="162"/>
      <point x="271" y="186"/>
      <point x="301" y="186" type="curve" smooth="yes"/>
      <point x="332" y="186"/>
      <point x="348" y="162"/>
      <point x="348" y="120" type="curve" smooth="yes"/>
      <point x="348" y="-71" type="line"/>
      <point x="374" y="-71" type="line"/>
      <point x="374" y="120" type="line" smooth="yes"/>
      <point x="374" y="161"/>
      <point x="362" y="191"/>
    </contour>
  </outline>
</glyph>
<glyph name="ha_ma-oriya" format="2">
  <advance width="472"/>
  <note>
hamaorya
</note>
  <guideline x="314" y="372" angle="90"/>
  <guideline x="374" y="372" angle="90"/>
  <anchor x="234" y="751" name="top"/>
  <anchor x="399" y="751" name="topright"/>
  <outline>
    <contour>
      <point x="375" y="376" type="line"/>
      <point x="422" y="422"/>
      <point x="444" y="483"/>
      <point x="444" y="546" type="curve" smooth="yes"/>
      <point x="444" y="685"/>
      <point x="338" y="759"/>
      <point x="234" y="759" type="curve" smooth="yes"/>
      <point x="137" y="759"/>
      <point x="28" y="694"/>
      <point x="28" y="574" type="curve" smooth="yes"/>
      <point x="28" y="512"/>
      <point x="58" y="448"/>
      <point x="127" y="414" type="curve"/>
      <point x="129" y="442" type="line"/>
      <point x="79" y="469"/>
      <point x="54" y="519"/>
      <point x="54" y="573" type="curve" smooth="yes"/>
      <point x="54" y="678"/>
      <point x="149" y="736"/>
      <point x="235" y="736" type="curve" smooth="yes"/>
      <point x="337" y="736"/>
      <point x="418" y="656"/>
      <point x="418" y="544" type="curve" smooth="yes"/>
      <point x="418" y="489"/>
      <point x="399" y="431"/>
      <point x="354" y="389" type="curve"/>
      <point x="343" y="433" type="line"/>
      <point x="417" y="376" type="line"/>
    </contour>
    <contour>
      <point x="230" y="-75" type="curve" smooth="yes"/>
      <point x="270" y="-75"/>
      <point x="309" y="-42"/>
      <point x="309" y="25" type="curve" smooth="yes"/>
      <point x="309" y="104"/>
      <point x="258" y="176"/>
      <point x="147" y="209" type="curve"/>
      <point x="140" y="186" type="line"/>
      <point x="246" y="159"/>
      <point x="284" y="92"/>
      <point x="284" y="26" type="curve" smooth="yes"/>
      <point x="284" y="-26"/>
      <point x="258" y="-52"/>
      <point x="231" y="-52" type="curve" smooth="yes"/>
      <point x="204" y="-52"/>
      <point x="176" y="-26"/>
      <point x="176" y="25" type="curve" smooth="yes"/>
      <point x="176" y="115"/>
      <point x="248" y="186"/>
      <point x="344" y="186" type="curve" smooth="yes"/>
      <point x="354" y="186"/>
      <point x="363" y="185"/>
      <point x="372" y="184" type="curve"/>
      <point x="374" y="207" type="line"/>
      <point x="364" y="208"/>
      <point x="354" y="209"/>
      <point x="345" y="209" type="curve" smooth="yes"/>
      <point x="237" y="209"/>
      <point x="151" y="129"/>
      <point x="151" y="24" type="curve" smooth="yes"/>
      <point x="151" y="-42"/>
      <point x="191" y="-75"/>
    </contour>
    <contour>
      <point x="348" y="-71" type="line"/>
      <point x="374" y="-71" type="line"/>
      <point x="374" y="207" type="line"/>
      <point x="106" y="294" type="line"/>
      <point x="108" y="282" type="line"/>
      <point x="180" y="350" type="line"/>
      <point x="157" y="359" type="line"/>
      <point x="85" y="292" type="line"/>
      <point x="86" y="276" type="line"/>
      <point x="359" y="188" type="line"/>
      <point x="348" y="204" type="line"/>
    </contour>
    <contour>
      <point x="216" y="340" type="curve" smooth="yes"/>
      <point x="256" y="340"/>
      <point x="288" y="354"/>
      <point x="313" y="390" type="curve"/>
      <point x="306" y="415" type="line"/>
      <point x="282" y="377"/>
      <point x="252" y="363"/>
      <point x="218" y="363" type="curve" smooth="yes"/>
      <point x="164" y="363"/>
      <point x="138" y="403"/>
      <point x="138" y="450" type="curve" smooth="yes"/>
      <point x="138" y="491"/>
      <point x="158" y="537"/>
      <point x="197" y="565" type="curve"/>
      <point x="182" y="583" type="line"/>
      <point x="136" y="552"/>
      <point x="112" y="499"/>
      <point x="112" y="450" type="curve" smooth="yes"/>
      <point x="112" y="392"/>
      <point x="146" y="340"/>
    </contour>
    <contour>
      <point x="288" y="288" type="line"/>
      <point x="314" y="288" type="line"/>
      <point x="314" y="536" type="line"/>
      <point x="288" y="536" type="line"/>
      <point x="288" y="381" type="line"/>
      <point x="288" y="373" type="line"/>
    </contour>
  </outline>
</glyph>
<glyph name="ha_u-oriya" format="2">
  <advance width="472"/>
  <note>
huorya
</note>
  <guideline x="288" y="191" angle="90"/>
  <guideline x="314" y="191" angle="90"/>
  <anchor x="234" y="751" name="top"/>
  <anchor x="399" y="751" name="topright"/>
  <outline>
    <contour>
      <point x="199" y="-20" type="curve" smooth="yes"/>
      <point x="275" y="-20"/>
      <point x="314" y="78"/>
      <point x="314" y="203" type="curve"/>
      <point x="288" y="219" type="line"/>
      <point x="288" y="203" type="line"/>
      <point x="288" y="93"/>
      <point x="259" y="5"/>
      <point x="199" y="5" type="curve" smooth="yes"/>
      <point x="165" y="5"/>
      <point x="145" y="34"/>
      <point x="145" y="64" type="curve" smooth="yes"/>
      <point x="145" y="90"/>
      <point x="160" y="120"/>
      <point x="195" y="120" type="curve" smooth="yes"/>
      <point x="270" y="120"/>
      <point x="297" y="-20"/>
      <point x="383" y="-20" type="curve" smooth="yes"/>
      <point x="405" y="-20"/>
      <point x="426" y="-11"/>
      <point x="442" y="7" type="curve"/>
      <point x="443" y="-10" type="line"/>
      <point x="414" y="28" type="line"/>
      <point x="428" y="25" type="line"/>
      <point x="413" y="12"/>
      <point x="400" y="5"/>
      <point x="384" y="5" type="curve" smooth="yes"/>
      <point x="312" y="5"/>
      <point x="286" y="145"/>
      <point x="194" y="145" type="curve" smooth="yes"/>
      <point x="145" y="145"/>
      <point x="119" y="104"/>
      <point x="119" y="64" type="curve" smooth="yes"/>
      <point x="119" y="15"/>
      <point x="154" y="-20"/>
    </contour>
    <contour>
      <point x="368" y="177" type="line"/>
      <point x="376" y="198" type="line"/>
      <point x="102" y="295" type="line"/>
      <point x="106" y="280" type="line"/>
      <point x="180" y="350" type="line"/>
      <point x="157" y="359" type="line"/>
      <point x="85" y="292" type="line"/>
      <point x="86" y="276" type="line"/>
    </contour>
    <contour>
      <point x="216" y="340" type="curve" smooth="yes"/>
      <point x="256" y="340"/>
      <point x="288" y="354"/>
      <point x="313" y="390" type="curve"/>
      <point x="306" y="415" type="line"/>
      <point x="282" y="377"/>
      <point x="252" y="363"/>
      <point x="218" y="363" type="curve" smooth="yes"/>
      <point x="164" y="363"/>
      <point x="138" y="403"/>
      <point x="138" y="450" type="curve" smooth="yes"/>
      <point x="138" y="491"/>
      <point x="158" y="537"/>
      <point x="197" y="565" type="curve"/>
      <point x="182" y="583" type="line"/>
      <point x="136" y="552"/>
      <point x="112" y="499"/>
      <point x="112" y="450" type="curve" smooth="yes"/>
      <point x="112" y="392"/>
      <point x="146" y="340"/>
    </contour>
    <contour>
      <point x="288" y="288" type="line"/>
      <point x="314" y="288" type="line"/>
      <point x="314" y="536" type="line"/>
      <point x="288" y="536" type="line"/>
      <point x="288" y="381" type="line"/>
      <point x="288" y="373" type="line"/>
    </contour>
    <contour>
      <point x="375" y="376" type="line"/>
      <point x="422" y="422"/>
      <point x="444" y="483"/>
      <point x="444" y="546" type="curve" smooth="yes"/>
      <point x="444" y="685"/>
      <point x="338" y="759"/>
      <point x="234" y="759" type="curve" smooth="yes"/>
      <point x="137" y="759"/>
      <point x="28" y="694"/>
      <point x="28" y="574" type="curve" smooth="yes"/>
      <point x="28" y="512"/>
      <point x="58" y="448"/>
      <point x="127" y="414" type="curve"/>
      <point x="129" y="442" type="line"/>
      <point x="79" y="469"/>
      <point x="54" y="519"/>
      <point x="54" y="573" type="curve" smooth="yes"/>
      <point x="54" y="678"/>
      <point x="149" y="736"/>
      <point x="235" y="736" type="curve" smooth="yes"/>
      <point x="337" y="736"/>
      <point x="418" y="656"/>
      <point x="418" y="544" type="curve" smooth="yes"/>
      <point x="418" y="489"/>
      <point x="399" y="431"/>
      <point x="354" y="389" type="curve"/>
      <point x="343" y="433" type="line"/>
      <point x="417" y="376" type="line"/>
    </contour>
  </outline>
</glyph>
<glyph name="ha_uu-oriya" format="2">
  <advance width="472"/>
  <note>
huuorya
</note>
  <guideline x="288" y="191" angle="90"/>
  <guideline x="314" y="191" angle="90"/>
  <anchor x="234" y="751" name="top"/>
  <anchor x="399" y="751" name="topright"/>
  <outline>
    <contour>
      <point x="314" y="137" type="curve"/>
      <point x="314" y="203" type="line"/>
      <point x="288" y="213" type="line"/>
      <point x="288" y="203" type="line"/>
      <point x="288" y="145" type="line"/>
      <point x="301" y="161" type="line"/>
      <point x="217" y="161"/>
      <point x="169" y="130"/>
      <point x="169" y="69" type="curve" smooth="yes"/>
      <point x="169" y="16"/>
      <point x="205" y="-16"/>
      <point x="260" y="-16" type="curve" smooth="yes"/>
      <point x="302" y="-16"/>
      <point x="333" y="2"/>
      <point x="361" y="31" type="curve"/>
      <point x="386" y="7"/>
      <point x="415" y="-16"/>
      <point x="448" y="-16" type="curve" smooth="yes"/>
      <point x="460" y="-16"/>
      <point x="477" y="-13"/>
      <point x="493" y="-6" type="curve"/>
      <point x="485" y="17" type="line"/>
      <point x="473" y="11"/>
      <point x="459" y="8"/>
      <point x="448" y="8" type="curve" smooth="yes"/>
      <point x="420" y="8"/>
      <point x="395" y="30"/>
      <point x="361" y="63" type="curve"/>
      <point x="334" y="31"/>
      <point x="303" y="9"/>
      <point x="261" y="9" type="curve" smooth="yes"/>
      <point x="219" y="9"/>
      <point x="195" y="31"/>
      <point x="195" y="68" type="curve" smooth="yes"/>
      <point x="195" y="115"/>
      <point x="232" y="137"/>
    </contour>
    <contour>
      <point x="368" y="177" type="line"/>
      <point x="376" y="198" type="line"/>
      <point x="102" y="295" type="line"/>
      <point x="106" y="280" type="line"/>
      <point x="180" y="350" type="line"/>
      <point x="157" y="359" type="line"/>
      <point x="85" y="292" type="line"/>
      <point x="86" y="276" type="line"/>
    </contour>
    <contour>
      <point x="216" y="340" type="curve" smooth="yes"/>
      <point x="256" y="340"/>
      <point x="288" y="354"/>
      <point x="313" y="390" type="curve"/>
      <point x="306" y="415" type="line"/>
      <point x="282" y="377"/>
      <point x="252" y="363"/>
      <point x="218" y="363" type="curve" smooth="yes"/>
      <point x="164" y="363"/>
      <point x="138" y="403"/>
      <point x="138" y="450" type="curve" smooth="yes"/>
      <point x="138" y="491"/>
      <point x="158" y="537"/>
      <point x="197" y="565" type="curve"/>
      <point x="182" y="583" type="line"/>
      <point x="136" y="552"/>
      <point x="112" y="499"/>
      <point x="112" y="450" type="curve" smooth="yes"/>
      <point x="112" y="392"/>
      <point x="146" y="340"/>
    </contour>
    <contour>
      <point x="288" y="288" type="line"/>
      <point x="314" y="288" type="line"/>
      <point x="314" y="536" type="line"/>
      <point x="288" y="536" type="line"/>
      <point x="288" y="381" type="line"/>
      <point x="288" y="373" type="line"/>
    </contour>
    <contour>
      <point x="375" y="376" type="line"/>
      <point x="422" y="422"/>
      <point x="444" y="483"/>
      <point x="444" y="546" type="curve" smooth="yes"/>
      <point x="444" y="685"/>
      <point x="338" y="759"/>
      <point x="234" y="759" type="curve" smooth="yes"/>
      <point x="137" y="759"/>
      <point x="28" y="694"/>
      <point x="28" y="574" type="curve" smooth="yes"/>
      <point x="28" y="512"/>
      <point x="58" y="448"/>
      <point x="127" y="414" type="curve"/>
      <point x="129" y="442" type="line"/>
      <point x="79" y="469"/>
      <point x="54" y="519"/>
      <point x="54" y="573" type="curve" smooth="yes"/>
      <point x="54" y="678"/>
      <point x="149" y="736"/>
      <point x="235" y="736" type="curve" smooth="yes"/>
      <point x="337" y="736"/>
      <point x="418" y="656"/>
      <point x="418" y="544" type="curve" smooth="yes"/>
      <point x="418" y="489"/>
      <point x="399" y="431"/>
      <point x="354" y="389" type="curve"/>
      <point x="343" y="433" type="line"/>
      <point x="417" y="376" type="line"/>
    </contour>
  </outline>
</glyph>
<glyph name="iMatra-oriya.wide" format="2">
  <note>
ivowelsignorya
</note>
  <anchor x="300" y="751" name="_top"/>
  <outline>
    <contour>
      <point x="89" y="807" type="line"/>
      <point x="136" y="872"/>
      <point x="218" y="904"/>
      <point x="301" y="904" type="curve" smooth="yes"/>
      <point x="383" y="904"/>
      <point x="465" y="872"/>
      <point x="513" y="807" type="curve"/>
      <point x="533" y="821" type="line"/>
      <point x="481" y="893"/>
      <point x="391" y="929"/>
      <point x="301" y="929" type="curve" smooth="yes"/>
      <point x="211" y="929"/>
      <point x="121" y="893"/>
      <point x="69" y="821" type="curve"/>
    </contour>
  </outline>
</glyph>
<glyph name="iMatra_reph-oriya" format="2">
  <advance width="600"/>
  <anchor x="300" y="751" name="_top"/>
  <outline>
    <contour>
      <point x="110" y="807" type="line"/>
      <point x="155" y="870"/>
      <point x="226" y="904"/>
      <point x="301" y="904" type="curve" smooth="yes"/>
      <point x="374" y="904"/>
      <point x="444" y="870"/>
      <point x="489" y="807" type="curve"/>
      <point x="509" y="823" type="line"/>
      <point x="459" y="892"/>
      <point x="382" y="929"/>
      <point x="301" y="929" type="curve" smooth="yes"/>
      <point x="220" y="929"/>
      <point x="141" y="892"/>
      <point x="90" y="823" type="curve"/>
    </contour>
    <contour>
      <point x="376" y="898" type="line"/>
      <point x="489" y="1024" type="line"/>
      <point x="472" y="1039" type="line"/>
      <point x="355" y="908" type="line"/>
    </contour>
  </outline>
</glyph>
<glyph name="iMatra_reph-oriya.wide" format="2">
  <anchor x="300" y="751" name="_top"/>
  <outline>
    <contour>
      <point x="89" y="807" type="line"/>
      <point x="136" y="872"/>
      <point x="218" y="904"/>
      <point x="301" y="904" type="curve" smooth="yes"/>
      <point x="383" y="904"/>
      <point x="465" y="872"/>
      <point x="513" y="807" type="curve"/>
      <point x="533" y="821" type="line"/>
      <point x="481" y="893"/>
      <point x="391" y="929"/>
      <point x="301" y="929" type="curve" smooth="yes"/>
      <point x="211" y="929"/>
      <point x="121" y="893"/>
      <point x="69" y="821" type="curve"/>
    </contour>
    <contour>
      <point x="406" y="898" type="line"/>
      <point x="538" y="1045" type="line"/>
      <point x="521" y="1060" type="line"/>
      <point x="385" y="908" type="line"/>
    </contour>
  </outline>
</glyph>
<glyph name="ii-oriya.REV_BRACKET.141" format="2">
  <advance width="581"/>
  <note>
iiorya
</note>
  <anchor x="502" y="751" name="topright"/>
  <outline>
    <contour>
      <point x="449" y="244" type="curve"/>
      <point x="560" y="51" type="line"/>
      <point x="515" y="69" type="line"/>
      <point x="583" y="111" type="line"/>
      <point x="581" y="62" type="line"/>
      <point x="475" y="249" type="line"/>
      <point x="472" y="233" type="line"/>
      <point x="518" y="300"/>
      <point x="547" y="381"/>
      <point x="547" y="480" type="curve" smooth="yes"/>
      <point x="547" y="664"/>
      <point x="447" y="759"/>
      <point x="340" y="759" type="curve" smooth="yes"/>
      <point x="252" y="759"/>
      <point x="177" y="696"/>
      <point x="149" y="582" type="curve"/>
      <point x="179" y="590" type="line"/>
      <point x="205" y="682"/>
      <point x="266" y="734"/>
      <point x="340" y="734" type="curve" smooth="yes"/>
      <point x="439" y="734"/>
      <point x="521" y="639"/>
      <point x="521" y="478" type="curve" smooth="yes"/>
      <point x="521" y="384"/>
      <point x="493" y="306"/>
    </contour>
    <contour>
      <point x="180" y="85" type="curve" smooth="yes"/>
      <point x="237" y="85"/>
      <point x="265" y="146"/>
      <point x="265" y="252" type="curve" smooth="yes"/>
      <point x="265" y="358"/>
      <point x="237" y="419"/>
      <point x="180" y="419" type="curve" smooth="yes"/>
      <point x="126" y="419"/>
      <point x="93" y="360"/>
      <point x="93" y="252" type="curve" smooth="yes"/>
      <point x="93" y="145"/>
      <point x="125" y="85"/>
    </contour>
    <contour>
      <point x="181" y="110" type="curve" smooth="yes"/>
      <point x="142" y="110"/>
      <point x="119" y="160"/>
      <point x="119" y="253" type="curve" smooth="yes"/>
      <point x="119" y="342"/>
      <point x="140" y="394"/>
      <point x="181" y="394" type="curve" smooth="yes"/>
      <point x="222" y="394"/>
      <point x="243" y="343"/>
      <point x="243" y="253" type="curve" smooth="yes"/>
      <point x="243" y="160"/>
      <point x="220" y="110"/>
    </contour>
    <contour>
      <point x="332" y="85" type="curve" smooth="yes"/>
      <point x="387" y="85"/>
      <point x="419" y="144"/>
      <point x="419" y="252" type="curve" smooth="yes"/>
      <point x="419" y="359"/>
      <point x="388" y="419"/>
      <point x="331" y="419" type="curve" smooth="yes"/>
      <point x="278" y="419"/>
      <point x="247" y="360"/>
      <point x="247" y="252" type="curve" smooth="yes"/>
      <point x="247" y="145"/>
      <point x="277" y="85"/>
    </contour>
    <contour>
      <point x="331" y="110" type="curve" smooth="yes"/>
      <point x="292" y="110"/>
      <point x="269" y="161"/>
      <point x="269" y="253" type="curve" smooth="yes"/>
      <point x="269" y="344"/>
      <point x="292" y="394"/>
      <point x="331" y="394" type="curve" smooth="yes"/>
      <point x="372" y="394"/>
      <point x="393" y="343"/>
      <point x="393" y="253" type="curve" smooth="yes"/>
      <point x="393" y="161"/>
      <point x="371" y="110"/>
    </contour>
    <contour>
      <point x="95" y="287" type="curve"/>
      <point x="103" y="315" type="line"/>
      <point x="70" y="342"/>
      <point x="54" y="384"/>
      <point x="54" y="427" type="curve" smooth="yes"/>
      <point x="54" y="521"/>
      <point x="118" y="581"/>
      <point x="185" y="581" type="curve" smooth="yes"/>
      <point x="228" y="581"/>
      <point x="272" y="557"/>
      <point x="302" y="501" type="curve"/>
      <point x="276" y="501" type="line"/>
      <point x="343" y="557" type="line"/>
      <point x="319" y="519" type="line"/>
      <point x="286" y="579"/>
      <point x="235" y="606"/>
      <point x="185" y="606" type="curve" smooth="yes"/>
      <point x="105" y="606"/>
      <point x="28" y="538"/>
      <point x="28" y="429" type="curve" smooth="yes"/>
      <point x="28" y="375"/>
      <point x="49" y="322"/>
    </contour>
  </outline>
</glyph>
<glyph name="ja-oriya.below" format="2">
  <note>
jasubscriptorya
</note>
  <guideline x="210" y="124" angle="0"/>
  <guideline x="157" y="206" angle="90"/>
  <guideline x="89" y="113" angle="0"/>
  <anchor x="187" y="203" name="_bottom"/>
  <outline>
    <contour>
      <point x="128" y="-75" type="curve" smooth="yes"/>
      <point x="154" y="-75"/>
      <point x="183" y="-67"/>
      <point x="214" y="-52" type="curve"/>
      <point x="200" y="-68" type="line"/>
      <point x="183" y="-22"/>
      <point x="166" y="28"/>
      <point x="166" y="82" type="curve" smooth="yes"/>
      <point x="166" y="138"/>
      <point x="185" y="187"/>
      <point x="225" y="187" type="curve" smooth="yes"/>
      <point x="258" y="187"/>
      <point x="273" y="160"/>
      <point x="273" y="124" type="curve" smooth="yes"/>
      <point x="273" y="-71" type="line"/>
      <point x="299" y="-71" type="line"/>
      <point x="299" y="124" type="line" smooth="yes"/>
      <point x="299" y="136"/>
      <point x="297" y="209"/>
      <point x="228" y="209" type="curve" smooth="yes"/>
      <point x="166" y="209"/>
      <point x="141" y="152"/>
      <point x="141" y="80" type="curve" smooth="yes"/>
      <point x="141" y="27"/>
      <point x="154" y="-11"/>
      <point x="171" y="-60" type="curve"/>
      <point x="180" y="-41" type="line"/>
      <point x="163" y="-48"/>
      <point x="147" y="-52"/>
      <point x="130" y="-52" type="curve" smooth="yes"/>
      <point x="75" y="-52"/>
      <point x="43" y="-8"/>
      <point x="43" y="56" type="curve" smooth="yes"/>
      <point x="43" y="120"/>
      <point x="82" y="176"/>
      <point x="123" y="221" type="curve"/>
      <point x="111" y="184" type="line"/>
      <point x="67" y="214" type="line"/>
      <point x="106" y="236" type="line"/>
      <point x="54" y="183"/>
      <point x="18" y="125"/>
      <point x="18" y="54" type="curve" smooth="yes"/>
      <point x="18" y="-28"/>
      <point x="65" y="-75"/>
    </contour>
  </outline>
</glyph>
<glyph name="ja_ja-oriya" format="2">
  <advance width="505"/>
  <note>
jajaorya
</note>
  <guideline x="383" y="177" angle="90"/>
  <guideline x="443" y="173" angle="90"/>
  <anchor x="251" y="751" name="top"/>
  <anchor x="432" y="751" name="topright"/>
  <outline>
    <contour>
      <point x="100" y="379" type="curve"/>
      <point x="107" y="407" type="line"/>
      <point x="75" y="445"/>
      <point x="54" y="490"/>
      <point x="54" y="546" type="curve" smooth="yes"/>
      <point x="54" y="655"/>
      <point x="134" y="734"/>
      <point x="252" y="734" type="curve" smooth="yes"/>
      <point x="371" y="734"/>
      <point x="451" y="653"/>
      <point x="451" y="533" type="curve" smooth="yes"/>
      <point x="451" y="489"/>
      <point x="440" y="434"/>
      <point x="406" y="397" type="curve"/>
      <point x="402" y="410" type="line"/>
      <point x="438" y="381" type="line"/>
      <point x="424" y="383" type="line"/>
      <point x="459" y="421"/>
      <point x="477" y="478"/>
      <point x="477" y="537" type="curve" smooth="yes"/>
      <point x="477" y="670"/>
      <point x="384" y="759"/>
      <point x="251" y="759" type="curve" smooth="yes"/>
      <point x="120" y="759"/>
      <point x="28" y="672"/>
      <point x="28" y="548" type="curve" smooth="yes"/>
      <point x="28" y="480"/>
      <point x="56" y="421"/>
    </contour>
    <contour>
      <point x="272" y="-75" type="curve" smooth="yes"/>
      <point x="298" y="-75"/>
      <point x="327" y="-67"/>
      <point x="358" y="-52" type="curve"/>
      <point x="344" y="-68" type="line"/>
      <point x="327" y="-22"/>
      <point x="310" y="28"/>
      <point x="310" y="82" type="curve" smooth="yes"/>
      <point x="310" y="138"/>
      <point x="329" y="187"/>
      <point x="369" y="187" type="curve" smooth="yes"/>
      <point x="402" y="187"/>
      <point x="418" y="160"/>
      <point x="418" y="124" type="curve" smooth="yes"/>
      <point x="418" y="-71" type="line"/>
      <point x="443" y="-71" type="line"/>
      <point x="443" y="124" type="line" smooth="yes"/>
      <point x="443" y="136"/>
      <point x="441" y="209"/>
      <point x="372" y="209" type="curve" smooth="yes"/>
      <point x="310" y="209"/>
      <point x="285" y="152"/>
      <point x="285" y="80" type="curve" smooth="yes"/>
      <point x="285" y="27"/>
      <point x="298" y="-11"/>
      <point x="315" y="-60" type="curve"/>
      <point x="324" y="-41" type="line"/>
      <point x="307" y="-48"/>
      <point x="291" y="-52"/>
      <point x="274" y="-52" type="curve" smooth="yes"/>
      <point x="219" y="-52"/>
      <point x="187" y="-8"/>
      <point x="187" y="56" type="curve" smooth="yes"/>
      <point x="187" y="108"/>
      <point x="212" y="154"/>
      <point x="244" y="194" type="curve"/>
      <point x="217" y="198" type="line"/>
      <point x="183" y="155"/>
      <point x="162" y="109"/>
      <point x="162" y="54" type="curve" smooth="yes"/>
      <point x="162" y="-28"/>
      <point x="209" y="-75"/>
    </contour>
    <contour>
      <point x="213" y="183" type="curve" smooth="yes"/>
      <point x="243" y="183"/>
      <point x="274" y="191"/>
      <point x="308" y="206" type="curve"/>
      <point x="279" y="193" type="line"/>
      <point x="263" y="235"/>
      <point x="245" y="285"/>
      <point x="245" y="347" type="curve" smooth="yes"/>
      <point x="245" y="410"/>
      <point x="258" y="461"/>
      <point x="308" y="461" type="curve" smooth="yes"/>
      <point x="357" y="461"/>
      <point x="357" y="414"/>
      <point x="357" y="392" type="curve" smooth="yes"/>
      <point x="357" y="189" type="line"/>
      <point x="383" y="189" type="line"/>
      <point x="383" y="392" type="line" smooth="yes"/>
      <point x="383" y="449"/>
      <point x="358" y="486"/>
      <point x="309" y="486" type="curve" smooth="yes"/>
      <point x="243" y="486"/>
      <point x="219" y="423"/>
      <point x="219" y="348" type="curve" smooth="yes"/>
      <point x="219" y="288"/>
      <point x="237" y="237"/>
      <point x="252" y="198" type="curve"/>
      <point x="268" y="217" type="line"/>
      <point x="250" y="211"/>
      <point x="230" y="208"/>
      <point x="216" y="208" type="curve" smooth="yes"/>
      <point x="155" y="208"/>
      <point x="114" y="245"/>
      <point x="114" y="320" type="curve" smooth="yes"/>
      <point x="114" y="386"/>
      <point x="143" y="440"/>
      <point x="190" y="492" type="curve"/>
      <point x="172" y="507" type="line"/>
      <point x="122" y="458"/>
      <point x="88" y="392"/>
      <point x="88" y="318" type="curve" smooth="yes"/>
      <point x="88" y="230"/>
      <point x="139" y="183"/>
    </contour>
  </outline>
</glyph>
<glyph name="ja_ja_va-oriya" format="2">
  <advance width="603"/>
  <guideline x="383" y="177" angle="90"/>
  <guideline x="443" y="173" angle="90"/>
  <anchor x="251" y="751" name="top"/>
  <anchor x="432" y="751" name="topright"/>
  <outline>
    <contour>
      <point x="545" y="-151" type="line"/>
      <point x="571" y="-151" type="line"/>
      <point x="571" y="153" type="line"/>
      <point x="545" y="153" type="line"/>
      <point x="545" y="-73" type="line"/>
      <point x="545" y="-82" type="line"/>
    </contour>
    <contour>
      <point x="417" y="-17" type="line" smooth="yes"/>
      <point x="417" y="-80"/>
      <point x="453" y="-111"/>
      <point x="495" y="-111" type="curve" smooth="yes"/>
      <point x="518" y="-111"/>
      <point x="544" y="-101"/>
      <point x="562" y="-80" type="curve"/>
      <point x="556" y="-51" type="line"/>
      <point x="544" y="-73"/>
      <point x="520" y="-86"/>
      <point x="498" y="-86" type="curve" smooth="yes"/>
      <point x="468" y="-86"/>
      <point x="443" y="-64"/>
      <point x="443" y="-17" type="curve" smooth="yes"/>
      <point x="443" y="124" type="line" smooth="yes"/>
      <point x="443" y="167"/>
      <point x="423" y="209"/>
      <point x="371" y="209" type="curve" smooth="yes"/>
      <point x="311" y="209"/>
      <point x="284" y="152"/>
      <point x="284" y="80" type="curve" smooth="yes"/>
      <point x="284" y="27"/>
      <point x="297" y="-11"/>
      <point x="314" y="-60" type="curve"/>
      <point x="323" y="-41" type="line"/>
      <point x="306" y="-48"/>
      <point x="290" y="-52"/>
      <point x="275" y="-52" type="curve" smooth="yes"/>
      <point x="222" y="-52"/>
      <point x="186" y="-7"/>
      <point x="186" y="58" type="curve" smooth="yes"/>
      <point x="186" y="109"/>
      <point x="207" y="152"/>
      <point x="241" y="193" type="curve"/>
      <point x="211" y="196" type="line"/>
      <point x="180" y="155"/>
      <point x="161" y="107"/>
      <point x="161" y="54" type="curve" smooth="yes"/>
      <point x="161" y="-28"/>
      <point x="206" y="-75"/>
      <point x="271" y="-75" type="curve" smooth="yes"/>
      <point x="297" y="-75"/>
      <point x="326" y="-67"/>
      <point x="357" y="-52" type="curve"/>
      <point x="343" y="-68" type="line"/>
      <point x="326" y="-22"/>
      <point x="309" y="28"/>
      <point x="309" y="82" type="curve" smooth="yes"/>
      <point x="309" y="137"/>
      <point x="327" y="187"/>
      <point x="370" y="187" type="curve" smooth="yes"/>
      <point x="397" y="187"/>
      <point x="417" y="168"/>
      <point x="417" y="124" type="curve" smooth="yes"/>
    </contour>
    <contour>
      <point x="213" y="183" type="curve" smooth="yes"/>
      <point x="243" y="183"/>
      <point x="274" y="191"/>
      <point x="308" y="206" type="curve"/>
      <point x="279" y="193" type="line"/>
      <point x="263" y="235"/>
      <point x="245" y="285"/>
      <point x="245" y="347" type="curve" smooth="yes"/>
      <point x="245" y="410"/>
      <point x="258" y="461"/>
      <point x="308" y="461" type="curve" smooth="yes"/>
      <point x="357" y="461"/>
      <point x="357" y="414"/>
      <point x="357" y="392" type="curve" smooth="yes"/>
      <point x="357" y="189" type="line"/>
      <point x="383" y="189" type="line"/>
      <point x="383" y="392" type="line" smooth="yes"/>
      <point x="383" y="449"/>
      <point x="358" y="486"/>
      <point x="309" y="486" type="curve" smooth="yes"/>
      <point x="243" y="486"/>
      <point x="219" y="423"/>
      <point x="219" y="348" type="curve" smooth="yes"/>
      <point x="219" y="288"/>
      <point x="237" y="237"/>
      <point x="252" y="198" type="curve"/>
      <point x="268" y="217" type="line"/>
      <point x="250" y="211"/>
      <point x="230" y="208"/>
      <point x="216" y="208" type="curve" smooth="yes"/>
      <point x="155" y="208"/>
      <point x="114" y="245"/>
      <point x="114" y="320" type="curve" smooth="yes"/>
      <point x="114" y="386"/>
      <point x="143" y="440"/>
      <point x="190" y="492" type="curve"/>
      <point x="172" y="507" type="line"/>
      <point x="122" y="458"/>
      <point x="88" y="392"/>
      <point x="88" y="318" type="curve" smooth="yes"/>
      <point x="88" y="230"/>
      <point x="139" y="183"/>
    </contour>
    <contour>
      <point x="100" y="379" type="curve"/>
      <point x="107" y="407" type="line"/>
      <point x="75" y="445"/>
      <point x="54" y="490"/>
      <point x="54" y="546" type="curve" smooth="yes"/>
      <point x="54" y="655"/>
      <point x="134" y="734"/>
      <point x="252" y="734" type="curve" smooth="yes"/>
      <point x="371" y="734"/>
      <point x="451" y="653"/>
      <point x="451" y="533" type="curve" smooth="yes"/>
      <point x="451" y="489"/>
      <point x="440" y="434"/>
      <point x="406" y="397" type="curve"/>
      <point x="402" y="410" type="line"/>
      <point x="438" y="381" type="line"/>
      <point x="424" y="383" type="line"/>
      <point x="459" y="421"/>
      <point x="477" y="478"/>
      <point x="477" y="537" type="curve" smooth="yes"/>
      <point x="477" y="670"/>
      <point x="384" y="759"/>
      <point x="251" y="759" type="curve" smooth="yes"/>
      <point x="120" y="759"/>
      <point x="28" y="672"/>
      <point x="28" y="548" type="curve" smooth="yes"/>
      <point x="28" y="480"/>
      <point x="56" y="421"/>
    </contour>
  </outline>
</glyph>
<glyph name="ja_va-oriya" format="2">
  <advance width="505"/>
  <anchor x="251" y="751" name="top"/>
  <anchor x="432" y="751" name="topright"/>
  <outline>
    <contour>
      <point x="100" y="379" type="curve"/>
      <point x="107" y="407" type="line"/>
      <point x="75" y="445"/>
      <point x="54" y="490"/>
      <point x="54" y="546" type="curve" smooth="yes"/>
      <point x="54" y="655"/>
      <point x="134" y="734"/>
      <point x="252" y="734" type="curve" smooth="yes"/>
      <point x="371" y="734"/>
      <point x="451" y="653"/>
      <point x="451" y="533" type="curve" smooth="yes"/>
      <point x="451" y="489"/>
      <point x="440" y="434"/>
      <point x="406" y="397" type="curve"/>
      <point x="402" y="410" type="line"/>
      <point x="438" y="381" type="line"/>
      <point x="424" y="383" type="line"/>
      <point x="459" y="421"/>
      <point x="477" y="478"/>
      <point x="477" y="537" type="curve" smooth="yes"/>
      <point x="477" y="670"/>
      <point x="384" y="759"/>
      <point x="251" y="759" type="curve" smooth="yes"/>
      <point x="120" y="759"/>
      <point x="28" y="672"/>
      <point x="28" y="548" type="curve" smooth="yes"/>
      <point x="28" y="480"/>
      <point x="56" y="421"/>
    </contour>
    <contour>
      <point x="286" y="-75" type="curve" smooth="yes"/>
      <point x="320" y="-75"/>
      <point x="351" y="-61"/>
      <point x="372" y="-35" type="curve"/>
      <point x="369" y="-5" type="line"/>
      <point x="351" y="-34"/>
      <point x="320" y="-51"/>
      <point x="288" y="-51" type="curve" smooth="yes"/>
      <point x="242" y="-51"/>
      <point x="217" y="-15"/>
      <point x="217" y="31" type="curve" smooth="yes"/>
      <point x="217" y="55"/>
      <point x="225" y="87"/>
      <point x="238" y="112" type="curve"/>
      <point x="247" y="97" type="line"/>
      <point x="201" y="117" type="line"/>
      <point x="216" y="120" type="line"/>
      <point x="201" y="92"/>
      <point x="191" y="57"/>
      <point x="191" y="28" type="curve" smooth="yes"/>
      <point x="191" y="-28"/>
      <point x="224" y="-75"/>
    </contour>
    <contour>
      <point x="383" y="-151" type="line"/>
      <point x="383" y="392" type="line" smooth="yes"/>
      <point x="383" y="449"/>
      <point x="358" y="486"/>
      <point x="309" y="486" type="curve" smooth="yes"/>
      <point x="243" y="486"/>
      <point x="219" y="423"/>
      <point x="219" y="348" type="curve" smooth="yes"/>
      <point x="219" y="288"/>
      <point x="237" y="237"/>
      <point x="252" y="198" type="curve"/>
      <point x="268" y="217" type="line"/>
      <point x="250" y="211"/>
      <point x="230" y="208"/>
      <point x="216" y="208" type="curve" smooth="yes"/>
      <point x="155" y="208"/>
      <point x="114" y="245"/>
      <point x="114" y="320" type="curve" smooth="yes"/>
      <point x="114" y="386"/>
      <point x="143" y="440"/>
      <point x="190" y="492" type="curve"/>
      <point x="172" y="507" type="line"/>
      <point x="122" y="458"/>
      <point x="88" y="392"/>
      <point x="88" y="318" type="curve" smooth="yes"/>
      <point x="88" y="230"/>
      <point x="139" y="183"/>
      <point x="213" y="183" type="curve" smooth="yes"/>
      <point x="243" y="183"/>
      <point x="274" y="191"/>
      <point x="308" y="206" type="curve"/>
      <point x="279" y="193" type="line"/>
      <point x="263" y="235"/>
      <point x="245" y="285"/>
      <point x="245" y="347" type="curve" smooth="yes"/>
      <point x="245" y="410"/>
      <point x="258" y="461"/>
      <point x="308" y="461" type="curve" smooth="yes"/>
      <point x="357" y="461"/>
      <point x="357" y="414"/>
      <point x="357" y="392" type="curve" smooth="yes"/>
      <point x="357" y="-36" type="line"/>
      <point x="357" y="-45" type="line"/>
      <point x="357" y="-151" type="line"/>
    </contour>
  </outline>
</glyph>
<glyph name="jha-oriya.below" format="2">
  <note>
jhasubscriptorya
</note>
  <guideline x="154" y="155" angle="90"/>
  <anchor x="150" y="203" name="_bottom"/>
  <outline>
    <contour>
      <point x="68" y="-39" type="curve"/>
      <point x="81" y="-17" type="line"/>
      <point x="56" y="11"/>
      <point x="43" y="40"/>
      <point x="43" y="73" type="curve" smooth="yes"/>
      <point x="43" y="140"/>
      <point x="94" y="186"/>
      <point x="158" y="186" type="curve" smooth="yes"/>
      <point x="168" y="186"/>
      <point x="177" y="185"/>
      <point x="179" y="183" type="curve"/>
      <point x="177" y="209" type="line"/>
      <point x="170" y="209"/>
      <point x="162" y="209"/>
      <point x="155" y="209" type="curve" smooth="yes"/>
      <point x="87" y="209"/>
      <point x="18" y="162"/>
      <point x="18" y="71" type="curve" smooth="yes"/>
      <point x="18" y="29"/>
      <point x="33" y="-8"/>
    </contour>
    <contour>
      <point x="245" y="-175" type="line"/>
      <point x="276" y="-128" type="line"/>
      <point x="286" y="-142" type="line"/>
      <point x="199" y="-90" type="line"/>
      <point x="190" y="-111" type="line"/>
      <point x="276" y="-167" type="line"/>
    </contour>
    <contour>
      <point x="217" y="55" type="curve" smooth="yes"/>
      <point x="261" y="55"/>
      <point x="290" y="86"/>
      <point x="290" y="132" type="curve" smooth="yes"/>
      <point x="290" y="159"/>
      <point x="279" y="200"/>
      <point x="244" y="219" type="curve"/>
      <point x="275" y="224" type="line"/>
      <point x="228" y="181" type="line"/>
      <point x="234" y="200" type="line"/>
      <point x="260" y="181"/>
      <point x="265" y="155"/>
      <point x="265" y="135" type="curve" smooth="yes"/>
      <point x="265" y="104"/>
      <point x="247" y="78"/>
      <point x="217" y="78" type="curve" smooth="yes"/>
      <point x="185" y="78"/>
      <point x="170" y="105"/>
      <point x="170" y="135" type="curve" smooth="yes"/>
      <point x="170" y="154"/>
      <point x="178" y="175"/>
      <point x="190" y="193" type="curve"/>
      <point x="177" y="209" type="line"/>
      <point x="155" y="186"/>
      <point x="145" y="163"/>
      <point x="145" y="131" type="curve" smooth="yes"/>
      <point x="145" y="85"/>
      <point x="174" y="55"/>
    </contour>
    <contour>
      <point x="138" y="-155" type="curve" smooth="yes"/>
      <point x="185" y="-155"/>
      <point x="217" y="-117"/>
      <point x="217" y="-59" type="curve" smooth="yes"/>
      <point x="217" y="-1"/>
      <point x="185" y="37"/>
      <point x="138" y="37" type="curve" smooth="yes"/>
      <point x="90" y="37"/>
      <point x="59" y="-1"/>
      <point x="59" y="-59" type="curve" smooth="yes"/>
      <point x="59" y="-116"/>
      <point x="89" y="-155"/>
    </contour>
    <contour>
      <point x="138" y="-132" type="curve" smooth="yes"/>
      <point x="105" y="-132"/>
      <point x="84" y="-102"/>
      <point x="84" y="-58" type="curve" smooth="yes"/>
      <point x="84" y="-15"/>
      <point x="105" y="14"/>
      <point x="138" y="14" type="curve" smooth="yes"/>
      <point x="171" y="14"/>
      <point x="192" y="-16"/>
      <point x="192" y="-59" type="curve" smooth="yes"/>
      <point x="192" y="-102"/>
      <point x="171" y="-132"/>
    </contour>
  </outline>
</glyph>
<glyph name="ka-oriya.REV_BRACKET.141" format="2">
  <advance width="544"/>
  <note>
kaorya
</note>
  <anchor x="388" y="93" name="bottom"/>
  <anchor x="414" y="93" name="bottom_ra"/>
  <anchor x="414" y="103" name="bottom_ta"/>
  <anchor x="274" y="751" name="top"/>
  <anchor x="471" y="751" name="topright"/>
  <outline>
    <contour>
      <point x="97" y="322" type="curve"/>
      <point x="103" y="358" type="line"/>
      <point x="73" y="399"/>
      <point x="54" y="450"/>
      <point x="54" y="506" type="curve" smooth="yes"/>
      <point x="54" y="632"/>
      <point x="148" y="734"/>
      <point x="272" y="734" type="curve" smooth="yes"/>
      <point x="399" y="734"/>
      <point x="490" y="634"/>
      <point x="490" y="499" type="curve" smooth="yes"/>
      <point x="490" y="441"/>
      <point x="474" y="379"/>
      <point x="440" y="335" type="curve"/>
      <point x="435" y="348" type="line"/>
      <point x="473" y="319" type="line"/>
      <point x="460" y="320" type="line"/>
      <point x="495" y="366"/>
      <point x="516" y="431"/>
      <point x="516" y="500" type="curve" smooth="yes"/>
      <point x="516" y="654"/>
      <point x="412" y="759"/>
      <point x="274" y="759" type="curve" smooth="yes"/>
      <point x="131" y="759"/>
      <point x="28" y="647"/>
      <point x="28" y="507" type="curve" smooth="yes"/>
      <point x="28" y="436"/>
      <point x="55" y="368"/>
    </contour>
    <contour>
      <point x="184" y="177" type="curve" smooth="yes"/>
      <point x="239" y="177"/>
      <point x="273" y="226"/>
      <point x="273" y="309" type="curve" smooth="yes"/>
      <point x="273" y="391"/>
      <point x="239" y="439"/>
      <point x="184" y="439" type="curve" smooth="yes"/>
      <point x="128" y="439"/>
      <point x="93" y="390"/>
      <point x="93" y="308" type="curve" smooth="yes"/>
      <point x="93" y="226"/>
      <point x="128" y="177"/>
    </contour>
    <contour>
      <point x="185" y="202" type="curve" smooth="yes"/>
      <point x="145" y="202"/>
      <point x="119" y="241"/>
      <point x="119" y="307" type="curve" smooth="yes"/>
      <point x="119" y="374"/>
      <point x="144" y="414"/>
      <point x="184" y="414" type="curve" smooth="yes"/>
      <point x="224" y="414"/>
      <point x="249" y="375"/>
      <point x="249" y="308" type="curve" smooth="yes"/>
      <point x="249" y="241"/>
      <point x="224" y="202"/>
    </contour>
    <contour>
      <point x="249" y="93" type="line"/>
      <point x="275" y="93" type="line"/>
      <point x="275" y="319" type="line" smooth="yes"/>
      <point x="275" y="381"/>
      <point x="294" y="414"/>
      <point x="331" y="414" type="curve" smooth="yes"/>
      <point x="368" y="414"/>
      <point x="388" y="381"/>
      <point x="388" y="319" type="curve" smooth="yes"/>
      <point x="388" y="93" type="line"/>
      <point x="414" y="93" type="line"/>
      <point x="414" y="319" type="line" smooth="yes"/>
      <point x="414" y="398"/>
      <point x="387" y="439"/>
      <point x="334" y="439" type="curve" smooth="yes"/>
      <point x="279" y="439"/>
      <point x="251" y="398"/>
      <point x="251" y="319" type="curve"/>
      <point x="249" y="254" type="line"/>
    </contour>
  </outline>
</glyph>
<glyph name="ka_sa-oriya" format="2">
  <advance width="505"/>
  <note>
kasaorya
</note>
  <anchor x="251" y="751" name="top"/>
  <anchor x="432" y="751" name="topright"/>
  <outline>
    <contour>
      <point x="95" y="384" type="curve"/>
      <point x="101" y="414" type="line"/>
      <point x="73" y="450"/>
      <point x="54" y="493"/>
      <point x="54" y="546" type="curve" smooth="yes"/>
      <point x="54" y="655"/>
      <point x="134" y="734"/>
      <point x="252" y="734" type="curve" smooth="yes"/>
      <point x="371" y="734"/>
      <point x="451" y="653"/>
      <point x="451" y="533" type="curve" smooth="yes"/>
      <point x="451" y="489"/>
      <point x="440" y="434"/>
      <point x="406" y="397" type="curve"/>
      <point x="402" y="410" type="line"/>
      <point x="438" y="381" type="line"/>
      <point x="424" y="383" type="line"/>
      <point x="459" y="421"/>
      <point x="477" y="478"/>
      <point x="477" y="537" type="curve" smooth="yes"/>
      <point x="477" y="670"/>
      <point x="384" y="759"/>
      <point x="251" y="759" type="curve" smooth="yes"/>
      <point x="120" y="759"/>
      <point x="28" y="672"/>
      <point x="28" y="548" type="curve" smooth="yes"/>
      <point x="28" y="482"/>
      <point x="54" y="425"/>
    </contour>
    <contour>
      <point x="194" y="-28" type="curve"/>
      <point x="208" y="-8" type="line"/>
      <point x="169" y="18"/>
      <point x="151" y="45"/>
      <point x="151" y="90" type="curve" smooth="yes"/>
      <point x="151" y="153"/>
      <point x="197" y="186"/>
      <point x="247" y="186" type="curve" smooth="yes"/>
      <point x="302" y="186"/>
      <point x="360" y="144"/>
      <point x="360" y="56" type="curve"/>
      <point x="382" y="56" type="line"/>
      <point x="382" y="160"/>
      <point x="311" y="209"/>
      <point x="244" y="209" type="curve" smooth="yes"/>
      <point x="184" y="209"/>
      <point x="126" y="169"/>
      <point x="126" y="93" type="curve" smooth="yes"/>
      <point x="126" y="38"/>
      <point x="147" y="3"/>
    </contour>
    <contour>
      <point x="365" y="-155" type="line"/>
      <point x="383" y="-155" type="line"/>
      <point x="383" y="382" type="line" smooth="yes"/>
      <point x="383" y="450"/>
      <point x="358" y="486"/>
      <point x="311" y="486" type="curve" smooth="yes"/>
      <point x="260" y="486"/>
      <point x="234" y="450"/>
      <point x="234" y="382" type="curve" smooth="yes"/>
      <point x="233" y="327" type="line"/>
      <point x="233" y="189" type="line"/>
      <point x="259" y="189" type="line"/>
      <point x="259" y="382" type="line" smooth="yes"/>
      <point x="259" y="434"/>
      <point x="276" y="461"/>
      <point x="308" y="461" type="curve" smooth="yes"/>
      <point x="340" y="461"/>
      <point x="357" y="434"/>
      <point x="357" y="382" type="curve" smooth="yes"/>
      <point x="357" y="130" type="line"/>
      <point x="357" y="115" type="line"/>
      <point x="357" y="-140" type="line"/>
      <point x="372" y="-131" type="line"/>
      <point x="169" y="-59" type="line"/>
      <point x="178" y="-75" type="line"/>
      <point x="292" y="64" type="line"/>
      <point x="297" y="42" type="line"/>
      <point x="255" y="76" type="line"/>
      <point x="278" y="85" type="line"/>
      <point x="152" y="-67" type="line"/>
      <point x="156" y="-81" type="line"/>
    </contour>
    <contour>
      <point x="173" y="262" type="curve" smooth="yes"/>
      <point x="225" y="262"/>
      <point x="256" y="310"/>
      <point x="256" y="374" type="curve" smooth="yes"/>
      <point x="256" y="439"/>
      <point x="227" y="486"/>
      <point x="175" y="486" type="curve" smooth="yes"/>
      <point x="123" y="486"/>
      <point x="91" y="439"/>
      <point x="91" y="374" type="curve" smooth="yes"/>
      <point x="91" y="308"/>
      <point x="121" y="262"/>
    </contour>
    <contour>
      <point x="174" y="287" type="curve" smooth="yes"/>
      <point x="139" y="287"/>
      <point x="117" y="321"/>
      <point x="117" y="373" type="curve" smooth="yes"/>
      <point x="117" y="426"/>
      <point x="140" y="461"/>
      <point x="176" y="461" type="curve" smooth="yes"/>
      <point x="212" y="461"/>
      <point x="233" y="426"/>
      <point x="233" y="374" type="curve" smooth="yes"/>
      <point x="233" y="322"/>
      <point x="211" y="287"/>
    </contour>
  </outline>
</glyph>
<glyph name="la_ga-oriya" format="2">
  <advance width="538"/>
  <note>
lagaorya
</note>
  <anchor x="256" y="751" name="top"/>
  <anchor x="461" y="751" name="topright"/>
  <outline>
    <contour>
      <point x="28" y="548" type="curve" smooth="yes"/>
      <point x="28" y="477"/>
      <point x="60" y="412"/>
      <point x="109" y="372" type="curve"/>
      <point x="118" y="394" type="line"/>
      <point x="80" y="433"/>
      <point x="54" y="488"/>
      <point x="54" y="548" type="curve" smooth="yes"/>
      <point x="54" y="660"/>
      <point x="134" y="734"/>
      <point x="255" y="734" type="curve" smooth="yes"/>
      <point x="390" y="734"/>
      <point x="480" y="643"/>
      <point x="480" y="507" type="curve" smooth="yes"/>
      <point x="480" y="422"/>
      <point x="450" y="372"/>
      <point x="411" y="321" type="curve"/>
      <point x="516" y="158" type="line"/>
      <point x="469" y="166" type="line"/>
      <point x="536" y="207" type="line"/>
      <point x="529" y="178" type="line"/>
      <point x="436" y="326" type="line"/>
      <point x="428" y="309" type="line"/>
      <point x="473" y="362"/>
      <point x="506" y="420"/>
      <point x="506" y="509" type="curve" smooth="yes"/>
      <point x="506" y="659"/>
      <point x="406" y="759"/>
      <point x="256" y="759" type="curve" smooth="yes"/>
      <point x="119" y="759"/>
      <point x="28" y="675"/>
    </contour>
    <contour>
      <point x="163" y="-35" type="curve"/>
      <point x="175" y="-14" type="line"/>
      <point x="154" y="10"/>
      <point x="143" y="41"/>
      <point x="143" y="72" type="curve" smooth="yes"/>
      <point x="143" y="145"/>
      <point x="195" y="186"/>
      <point x="247" y="186" type="curve" smooth="yes"/>
      <point x="302" y="186"/>
      <point x="361" y="141"/>
      <point x="361" y="54" type="curve"/>
      <point x="382" y="64" type="line"/>
      <point x="381" y="168"/>
      <point x="311" y="209"/>
      <point x="249" y="209" type="curve" smooth="yes"/>
      <point x="181" y="209"/>
      <point x="118" y="161"/>
      <point x="118" y="74" type="curve" smooth="yes"/>
      <point x="118" y="33"/>
      <point x="132" y="-6"/>
    </contour>
    <contour>
      <point x="238" y="-155" type="curve" smooth="yes"/>
      <point x="285" y="-155"/>
      <point x="317" y="-117"/>
      <point x="317" y="-59" type="curve" smooth="yes"/>
      <point x="317" y="-1"/>
      <point x="285" y="37"/>
      <point x="238" y="37" type="curve" smooth="yes"/>
      <point x="190" y="37"/>
      <point x="159" y="-1"/>
      <point x="159" y="-59" type="curve" smooth="yes"/>
      <point x="159" y="-116"/>
      <point x="189" y="-155"/>
    </contour>
    <contour>
      <point x="238" y="-132" type="curve" smooth="yes"/>
      <point x="205" y="-132"/>
      <point x="184" y="-102"/>
      <point x="184" y="-58" type="curve" smooth="yes"/>
      <point x="184" y="-15"/>
      <point x="205" y="14"/>
      <point x="238" y="14" type="curve" smooth="yes"/>
      <point x="271" y="14"/>
      <point x="292" y="-16"/>
      <point x="292" y="-59" type="curve" smooth="yes"/>
      <point x="292" y="-102"/>
      <point x="271" y="-132"/>
    </contour>
    <contour>
      <point x="357" y="-151" type="line"/>
      <point x="383" y="-151" type="line"/>
      <point x="383" y="422" type="line" smooth="yes"/>
      <point x="383" y="506"/>
      <point x="347" y="526"/>
      <point x="312" y="526" type="curve" smooth="yes"/>
      <point x="264" y="526"/>
      <point x="238" y="489"/>
      <point x="238" y="422" type="curve"/>
      <point x="255" y="422" type="line"/>
      <point x="255" y="500"/>
      <point x="220" y="526"/>
      <point x="183" y="526" type="curve" smooth="yes"/>
      <point x="142" y="526"/>
      <point x="99" y="495"/>
      <point x="99" y="392" type="curve" smooth="yes"/>
      <point x="99" y="336"/>
      <point x="112" y="276"/>
      <point x="128" y="217" type="curve"/>
      <point x="115" y="232" type="line"/>
      <point x="162" y="245" type="line"/>
      <point x="153" y="225" type="line"/>
      <point x="138" y="274"/>
      <point x="125" y="338"/>
      <point x="125" y="392" type="curve" smooth="yes"/>
      <point x="125" y="454"/>
      <point x="142" y="501"/>
      <point x="183" y="501" type="curve" smooth="yes"/>
      <point x="215" y="501"/>
      <point x="233" y="473"/>
      <point x="233" y="421" type="curve" smooth="yes"/>
      <point x="233" y="249" type="line"/>
      <point x="259" y="249" type="line"/>
      <point x="259" y="421" type="line" smooth="yes"/>
      <point x="259" y="474"/>
      <point x="276" y="501"/>
      <point x="308" y="501" type="curve" smooth="yes"/>
      <point x="338" y="501"/>
      <point x="357" y="474"/>
      <point x="357" y="422" type="curve" smooth="yes"/>
      <point x="357" y="129" type="line"/>
      <point x="357" y="112" type="line"/>
    </contour>
  </outline>
</glyph>
<glyph name="la_pha-oriya" format="2">
  <advance width="538"/>
  <anchor x="256" y="751" name="top"/>
  <anchor x="461" y="751" name="topright"/>
  <outline>
    <contour>
      <point x="516" y="158" type="line"/>
      <point x="469" y="166" type="line"/>
      <point x="536" y="207" type="line"/>
      <point x="529" y="178" type="line"/>
      <point x="436" y="326" type="line"/>
      <point x="428" y="309" type="line"/>
      <point x="473" y="362"/>
      <point x="506" y="420"/>
      <point x="506" y="509" type="curve" smooth="yes"/>
      <point x="506" y="659"/>
      <point x="406" y="759"/>
      <point x="256" y="759" type="curve" smooth="yes"/>
      <point x="119" y="759"/>
      <point x="28" y="675"/>
      <point x="28" y="548" type="curve" smooth="yes"/>
      <point x="28" y="477"/>
      <point x="60" y="412"/>
      <point x="109" y="372" type="curve"/>
      <point x="118" y="394" type="line"/>
      <point x="80" y="433"/>
      <point x="54" y="488"/>
      <point x="54" y="548" type="curve" smooth="yes"/>
      <point x="54" y="660"/>
      <point x="134" y="734"/>
      <point x="255" y="734" type="curve" smooth="yes"/>
      <point x="390" y="734"/>
      <point x="480" y="643"/>
      <point x="480" y="507" type="curve" smooth="yes"/>
      <point x="480" y="422"/>
      <point x="450" y="372"/>
      <point x="411" y="321" type="curve"/>
    </contour>
    <contour>
      <point x="266" y="-155" type="curve" smooth="yes"/>
      <point x="315" y="-155"/>
      <point x="353" y="-125"/>
      <point x="372" y="-76" type="curve"/>
      <point x="361" y="-53" type="line"/>
      <point x="345" y="-100"/>
      <point x="310" y="-132"/>
      <point x="267" y="-132" type="curve" smooth="yes"/>
      <point x="216" y="-132"/>
      <point x="188" y="-93"/>
      <point x="188" y="-51" type="curve" smooth="yes"/>
      <point x="188" y="-17"/>
      <point x="208" y="19"/>
      <point x="248" y="35" type="curve"/>
      <point x="239" y="55" type="line"/>
      <point x="188" y="36"/>
      <point x="163" y="-10"/>
      <point x="163" y="-54" type="curve" smooth="yes"/>
      <point x="163" y="-106"/>
      <point x="198" y="-155"/>
    </contour>
    <contour>
      <point x="167" y="-45" type="curve"/>
      <point x="174" y="-21" type="line"/>
      <point x="148" y="4"/>
      <point x="134" y="38"/>
      <point x="134" y="72" type="curve" smooth="yes"/>
      <point x="134" y="145"/>
      <point x="185" y="186"/>
      <point x="241" y="186" type="curve" smooth="yes"/>
      <point x="300" y="186"/>
      <point x="360" y="143"/>
      <point x="360" y="56" type="curve"/>
      <point x="382" y="56" type="line"/>
      <point x="382" y="160"/>
      <point x="310" y="209"/>
      <point x="241" y="209" type="curve" smooth="yes"/>
      <point x="173" y="209"/>
      <point x="109" y="161"/>
      <point x="109" y="75" type="curve" smooth="yes"/>
      <point x="109" y="27"/>
      <point x="127" y="-16"/>
    </contour>
    <contour>
      <point x="357" y="-151" type="line"/>
      <point x="383" y="-151" type="line"/>
      <point x="383" y="422" type="line" smooth="yes"/>
      <point x="383" y="506"/>
      <point x="347" y="526"/>
      <point x="312" y="526" type="curve" smooth="yes"/>
      <point x="264" y="526"/>
      <point x="238" y="489"/>
      <point x="238" y="422" type="curve"/>
      <point x="255" y="422" type="line"/>
      <point x="255" y="500"/>
      <point x="220" y="526"/>
      <point x="183" y="526" type="curve" smooth="yes"/>
      <point x="142" y="526"/>
      <point x="99" y="495"/>
      <point x="99" y="392" type="curve" smooth="yes"/>
      <point x="99" y="336"/>
      <point x="112" y="276"/>
      <point x="128" y="217" type="curve"/>
      <point x="115" y="232" type="line"/>
      <point x="162" y="245" type="line"/>
      <point x="153" y="225" type="line"/>
      <point x="138" y="274"/>
      <point x="125" y="338"/>
      <point x="125" y="392" type="curve" smooth="yes"/>
      <point x="125" y="454"/>
      <point x="142" y="501"/>
      <point x="183" y="501" type="curve" smooth="yes"/>
      <point x="215" y="501"/>
      <point x="233" y="473"/>
      <point x="233" y="421" type="curve" smooth="yes"/>
      <point x="233" y="249" type="line"/>
      <point x="259" y="249" type="line"/>
      <point x="259" y="421" type="line" smooth="yes"/>
      <point x="259" y="474"/>
      <point x="276" y="501"/>
      <point x="308" y="501" type="curve" smooth="yes"/>
      <point x="338" y="501"/>
      <point x="357" y="474"/>
      <point x="357" y="422" type="curve" smooth="yes"/>
      <point x="357" y="129" type="line"/>
      <point x="357" y="112" type="line"/>
    </contour>
    <contour>
      <point x="411" y="38" type="curve" smooth="yes"/>
      <point x="442" y="38"/>
      <point x="462" y="65"/>
      <point x="462" y="106" type="curve" smooth="yes"/>
      <point x="462" y="147"/>
      <point x="442" y="174"/>
      <point x="411" y="174" type="curve" smooth="yes"/>
      <point x="380" y="174"/>
      <point x="360" y="147"/>
      <point x="360" y="106" type="curve" smooth="yes"/>
      <point x="360" y="65"/>
      <point x="380" y="38"/>
    </contour>
    <contour>
      <point x="411" y="60" type="curve" smooth="yes"/>
      <point x="393" y="60"/>
      <point x="383" y="77"/>
      <point x="383" y="106" type="curve" smooth="yes"/>
      <point x="383" y="135"/>
      <point x="393" y="152"/>
      <point x="411" y="152" type="curve" smooth="yes"/>
      <point x="428" y="152"/>
      <point x="437" y="135"/>
      <point x="437" y="106" type="curve" smooth="yes"/>
      <point x="437" y="77"/>
      <point x="428" y="60"/>
    </contour>
  </outline>
</glyph>
<glyph name="lla_pha-oriya" format="2">
  <advance width="505"/>
  <note>
llaphaorya
</note>
  <anchor x="251" y="751" name="top"/>
  <anchor x="432" y="751" name="topright"/>
  <outline>
    <contour>
      <point x="357" y="-151" type="line"/>
      <point x="383" y="-151" type="line"/>
      <point x="383" y="422" type="line" smooth="yes"/>
      <point x="383" y="506"/>
      <point x="347" y="526"/>
      <point x="312" y="526" type="curve" smooth="yes"/>
      <point x="264" y="526"/>
      <point x="238" y="489"/>
      <point x="238" y="422" type="curve"/>
      <point x="255" y="422" type="line"/>
      <point x="255" y="500"/>
      <point x="220" y="526"/>
      <point x="183" y="526" type="curve" smooth="yes"/>
      <point x="142" y="526"/>
      <point x="99" y="495"/>
      <point x="99" y="392" type="curve" smooth="yes"/>
      <point x="99" y="336"/>
      <point x="112" y="276"/>
      <point x="128" y="217" type="curve"/>
      <point x="115" y="232" type="line"/>
      <point x="162" y="245" type="line"/>
      <point x="153" y="225" type="line"/>
      <point x="138" y="274"/>
      <point x="125" y="338"/>
      <point x="125" y="392" type="curve" smooth="yes"/>
      <point x="125" y="454"/>
      <point x="142" y="501"/>
      <point x="183" y="501" type="curve" smooth="yes"/>
      <point x="215" y="501"/>
      <point x="233" y="473"/>
      <point x="233" y="421" type="curve" smooth="yes"/>
      <point x="233" y="249" type="line"/>
      <point x="259" y="249" type="line"/>
      <point x="259" y="421" type="line" smooth="yes"/>
      <point x="259" y="474"/>
      <point x="276" y="501"/>
      <point x="308" y="501" type="curve" smooth="yes"/>
      <point x="338" y="501"/>
      <point x="357" y="474"/>
      <point x="357" y="422" type="curve" smooth="yes"/>
      <point x="357" y="129" type="line"/>
      <point x="357" y="112" type="line"/>
      <point x="357" y="-81" type="line"/>
      <point x="357" y="-91" type="line"/>
    </contour>
    <contour>
      <point x="266" y="-155" type="curve" smooth="yes"/>
      <point x="315" y="-155"/>
      <point x="353" y="-125"/>
      <point x="372" y="-76" type="curve"/>
      <point x="361" y="-53" type="line"/>
      <point x="345" y="-100"/>
      <point x="310" y="-132"/>
      <point x="267" y="-132" type="curve" smooth="yes"/>
      <point x="216" y="-132"/>
      <point x="188" y="-93"/>
      <point x="188" y="-51" type="curve" smooth="yes"/>
      <point x="188" y="-17"/>
      <point x="208" y="19"/>
      <point x="248" y="35" type="curve"/>
      <point x="239" y="55" type="line"/>
      <point x="188" y="36"/>
      <point x="163" y="-10"/>
      <point x="163" y="-54" type="curve" smooth="yes"/>
      <point x="163" y="-106"/>
      <point x="198" y="-155"/>
    </contour>
    <contour>
      <point x="167" y="-45" type="curve"/>
      <point x="174" y="-21" type="line"/>
      <point x="148" y="4"/>
      <point x="134" y="38"/>
      <point x="134" y="72" type="curve" smooth="yes"/>
      <point x="134" y="145"/>
      <point x="185" y="186"/>
      <point x="241" y="186" type="curve" smooth="yes"/>
      <point x="300" y="186"/>
      <point x="360" y="143"/>
      <point x="360" y="56" type="curve"/>
      <point x="382" y="56" type="line"/>
      <point x="382" y="160"/>
      <point x="310" y="209"/>
      <point x="241" y="209" type="curve" smooth="yes"/>
      <point x="173" y="209"/>
      <point x="109" y="161"/>
      <point x="109" y="75" type="curve" smooth="yes"/>
      <point x="109" y="27"/>
      <point x="127" y="-16"/>
    </contour>
    <contour>
      <point x="411" y="38" type="curve" smooth="yes"/>
      <point x="442" y="38"/>
      <point x="462" y="65"/>
      <point x="462" y="106" type="curve" smooth="yes"/>
      <point x="462" y="147"/>
      <point x="442" y="174"/>
      <point x="411" y="174" type="curve" smooth="yes"/>
      <point x="380" y="174"/>
      <point x="360" y="147"/>
      <point x="360" y="106" type="curve" smooth="yes"/>
      <point x="360" y="65"/>
      <point x="380" y="38"/>
    </contour>
    <contour>
      <point x="411" y="60" type="curve" smooth="yes"/>
      <point x="393" y="60"/>
      <point x="383" y="77"/>
      <point x="383" y="106" type="curve" smooth="yes"/>
      <point x="383" y="135"/>
      <point x="393" y="152"/>
      <point x="411" y="152" type="curve" smooth="yes"/>
      <point x="428" y="152"/>
      <point x="437" y="135"/>
      <point x="437" y="106" type="curve" smooth="yes"/>
      <point x="437" y="77"/>
      <point x="428" y="60"/>
    </contour>
    <contour>
      <point x="105" y="374" type="curve"/>
      <point x="111" y="402" type="line"/>
      <point x="77" y="441"/>
      <point x="54" y="488"/>
      <point x="54" y="546" type="curve" smooth="yes"/>
      <point x="54" y="655"/>
      <point x="134" y="734"/>
      <point x="252" y="734" type="curve" smooth="yes"/>
      <point x="371" y="734"/>
      <point x="451" y="653"/>
      <point x="451" y="533" type="curve" smooth="yes"/>
      <point x="451" y="491"/>
      <point x="441" y="440"/>
      <point x="411" y="403" type="curve"/>
      <point x="429" y="388" type="line"/>
      <point x="461" y="426"/>
      <point x="477" y="481"/>
      <point x="477" y="537" type="curve" smooth="yes"/>
      <point x="477" y="670"/>
      <point x="384" y="759"/>
      <point x="251" y="759" type="curve" smooth="yes"/>
      <point x="120" y="759"/>
      <point x="28" y="672"/>
      <point x="28" y="548" type="curve" smooth="yes"/>
      <point x="28" y="478"/>
      <point x="58" y="418"/>
    </contour>
  </outline>
</glyph>
<glyph name="ma-oriya.base" format="2">
  <advance width="501"/>
  <anchor x="436" y="203" name="bottom"/>
  <anchor x="449" y="199" name="bottom_ta"/>
  <anchor x="239" y="751" name="top"/>
  <anchor x="436" y="751" name="topright"/>
  <outline>
    <contour>
      <point x="131" y="355" type="curve"/>
      <point x="137" y="379" type="line"/>
      <point x="85" y="413"/>
      <point x="54" y="482"/>
      <point x="54" y="550" type="curve" smooth="yes"/>
      <point x="54" y="648"/>
      <point x="117" y="734"/>
      <point x="234" y="734" type="curve" smooth="yes"/>
      <point x="342" y="734"/>
      <point x="425" y="660"/>
      <point x="425" y="527" type="curve"/>
      <point x="449" y="529" type="line"/>
      <point x="449" y="669"/>
      <point x="361" y="759"/>
      <point x="232" y="759" type="curve" smooth="yes"/>
      <point x="97" y="759"/>
      <point x="28" y="661"/>
      <point x="28" y="553" type="curve" smooth="yes"/>
      <point x="28" y="474"/>
      <point x="65" y="393"/>
    </contour>
    <contour>
      <point x="136" y="184" type="curve" smooth="yes"/>
      <point x="160" y="184"/>
      <point x="171" y="203"/>
      <point x="171" y="223" type="curve" smooth="yes"/>
      <point x="171" y="242"/>
      <point x="160" y="261"/>
      <point x="137" y="261" type="curve" smooth="yes"/>
      <point x="120" y="261"/>
      <point x="102" y="249"/>
      <point x="102" y="226" type="curve"/>
      <point x="121" y="228" type="line"/>
      <point x="120" y="236"/>
      <point x="119" y="244"/>
      <point x="119" y="253" type="curve" smooth="yes"/>
      <point x="119" y="365"/>
      <point x="210" y="466"/>
      <point x="344" y="483" type="curve"/>
      <point x="321" y="463" type="line"/>
      <point x="309" y="521" type="line"/>
      <point x="341" y="506" type="line"/>
      <point x="205" y="494"/>
      <point x="93" y="380"/>
      <point x="93" y="257" type="curve" smooth="yes"/>
      <point x="93" y="221"/>
      <point x="103" y="184"/>
    </contour>
    <contour>
      <point x="423" y="189" type="line"/>
      <point x="449" y="189" type="line"/>
      <point x="449" y="751" type="line"/>
      <point x="423" y="751" type="line"/>
      <point x="423" y="612" type="line"/>
      <point x="423" y="600" type="line"/>
    </contour>
  </outline>
</glyph>
<glyph name="ma_ba-oriya" format="2">
  <advance width="501"/>
  <guideline x="453" y="49" angle="0"/>
  <anchor x="239" y="751" name="top"/>
  <anchor x="436" y="751" name="topright"/>
  <outline>
    <contour>
      <point x="131" y="355" type="curve"/>
      <point x="137" y="379" type="line"/>
      <point x="85" y="413"/>
      <point x="54" y="482"/>
      <point x="54" y="550" type="curve" smooth="yes"/>
      <point x="54" y="648"/>
      <point x="117" y="734"/>
      <point x="234" y="734" type="curve" smooth="yes"/>
      <point x="342" y="734"/>
      <point x="425" y="660"/>
      <point x="425" y="527" type="curve"/>
      <point x="449" y="529" type="line"/>
      <point x="449" y="669"/>
      <point x="361" y="759"/>
      <point x="232" y="759" type="curve" smooth="yes"/>
      <point x="97" y="759"/>
      <point x="28" y="661"/>
      <point x="28" y="553" type="curve" smooth="yes"/>
      <point x="28" y="474"/>
      <point x="65" y="393"/>
    </contour>
    <contour>
      <point x="136" y="184" type="curve" smooth="yes"/>
      <point x="160" y="184"/>
      <point x="171" y="203"/>
      <point x="171" y="223" type="curve" smooth="yes"/>
      <point x="171" y="242"/>
      <point x="160" y="261"/>
      <point x="137" y="261" type="curve" smooth="yes"/>
      <point x="120" y="261"/>
      <point x="102" y="249"/>
      <point x="102" y="226" type="curve"/>
      <point x="121" y="228" type="line"/>
      <point x="120" y="236"/>
      <point x="119" y="244"/>
      <point x="119" y="253" type="curve" smooth="yes"/>
      <point x="119" y="365"/>
      <point x="210" y="466"/>
      <point x="344" y="483" type="curve"/>
      <point x="321" y="463" type="line"/>
      <point x="309" y="521" type="line"/>
      <point x="341" y="506" type="line"/>
      <point x="205" y="494"/>
      <point x="93" y="380"/>
      <point x="93" y="257" type="curve" smooth="yes"/>
      <point x="93" y="221"/>
      <point x="103" y="184"/>
    </contour>
    <contour>
      <point x="353" y="5" type="curve" smooth="yes"/>
      <point x="387" y="5"/>
      <point x="417" y="19"/>
      <point x="438" y="45" type="curve"/>
      <point x="435" y="75" type="line"/>
      <point x="417" y="46"/>
      <point x="387" y="29"/>
      <point x="355" y="29" type="curve" smooth="yes"/>
      <point x="308" y="29"/>
      <point x="283" y="66"/>
      <point x="283" y="113" type="curve" smooth="yes"/>
      <point x="283" y="144"/>
      <point x="295" y="188"/>
      <point x="317" y="217" type="curve"/>
      <point x="327" y="201" type="line"/>
      <point x="283" y="231" type="line"/>
      <point x="296" y="228" type="line"/>
      <point x="273" y="197"/>
      <point x="257" y="148"/>
      <point x="257" y="109" type="curve" smooth="yes"/>
      <point x="257" y="53"/>
      <point x="290" y="5"/>
    </contour>
    <contour>
      <point x="449" y="-71" type="line"/>
      <point x="449" y="751" type="line"/>
      <point x="423" y="751" type="line"/>
      <point x="423" y="612" type="line"/>
      <point x="423" y="600" type="line"/>
      <point x="423" y="44" type="line"/>
      <point x="423" y="35" type="line"/>
      <point x="423" y="-71" type="line"/>
    </contour>
  </outline>
</glyph>
<glyph name="ma_bha-oriya" format="2">
  <advance width="588"/>
  <note>
mabhaorya
</note>
  <guideline x="482" y="315" angle="90"/>
  <guideline x="542" y="315" angle="90"/>
  <anchor x="248" y="751" name="top"/>
  <anchor x="469" y="751" name="topright"/>
  <outline>
    <contour>
      <point x="134" y="286" type="curve"/>
      <point x="139" y="315" type="line"/>
      <point x="81" y="363"/>
      <point x="54" y="433"/>
      <point x="54" y="510" type="curve" smooth="yes"/>
      <point x="54" y="654"/>
      <point x="149" y="734"/>
      <point x="251" y="734" type="curve" smooth="yes"/>
      <point x="344" y="734"/>
      <point x="460" y="667"/>
      <point x="460" y="491" type="curve"/>
      <point x="482" y="491" type="line"/>
      <point x="482" y="684"/>
      <point x="356" y="759"/>
      <point x="252" y="759" type="curve" smooth="yes"/>
      <point x="139" y="759"/>
      <point x="28" y="670"/>
      <point x="28" y="511" type="curve" smooth="yes"/>
      <point x="28" y="423"/>
      <point x="62" y="340"/>
    </contour>
    <contour>
      <point x="456" y="243" type="line"/>
      <point x="482" y="243" type="line"/>
      <point x="482" y="751" type="line"/>
      <point x="456" y="751" type="line"/>
      <point x="456" y="588" type="line"/>
      <point x="456" y="573" type="line"/>
    </contour>
    <contour>
      <point x="142" y="85" type="curve" smooth="yes"/>
      <point x="167" y="85"/>
      <point x="179" y="108"/>
      <point x="179" y="130" type="curve" smooth="yes"/>
      <point x="179" y="153"/>
      <point x="166" y="176"/>
      <point x="141" y="176" type="curve" smooth="yes"/>
      <point x="122" y="176"/>
      <point x="104" y="162"/>
      <point x="104" y="135" type="curve"/>
      <point x="141" y="109" type="line"/>
      <point x="131" y="122"/>
      <point x="121" y="138"/>
      <point x="121" y="173" type="curve" smooth="yes"/>
      <point x="121" y="285"/>
      <point x="212" y="414"/>
      <point x="358" y="438" type="curve"/>
      <point x="306" y="404" type="line"/>
      <point x="290" y="472" type="line"/>
      <point x="355" y="463" type="line"/>
      <point x="219" y="448"/>
      <point x="95" y="322"/>
      <point x="95" y="174" type="curve" smooth="yes"/>
      <point x="95" y="122"/>
      <point x="110" y="85"/>
    </contour>
    <contour>
      <point x="351" y="2" type="line"/>
      <point x="559" y="-75" type="line"/>
      <point x="568" y="-52" type="line"/>
      <point x="418" y="4" type="line"/>
      <point x="386" y="12" type="line"/>
      <point x="360" y="25" type="line"/>
    </contour>
    <contour>
      <point x="352" y="226" type="curve"/>
      <point x="364" y="206" type="line"/>
      <point x="389" y="224"/>
      <point x="415" y="232"/>
      <point x="439" y="232" type="curve" smooth="yes"/>
      <point x="490" y="232"/>
      <point x="533" y="197"/>
      <point x="533" y="134" type="curve" smooth="yes"/>
      <point x="533" y="63"/>
      <point x="479" y="15"/>
      <point x="412" y="15" type="curve" smooth="yes"/>
      <point x="396" y="15"/>
      <point x="378" y="18"/>
      <point x="360" y="25" type="curve"/>
      <point x="409" y="-10" type="line"/>
      <point x="510" y="-10"/>
      <point x="559" y="64"/>
      <point x="559" y="137" type="curve" smooth="yes"/>
      <point x="559" y="212"/>
      <point x="507" y="257"/>
      <point x="444" y="257" type="curve" smooth="yes"/>
      <point x="414" y="257"/>
      <point x="382" y="247"/>
    </contour>
  </outline>
</glyph>
<glyph name="ma_bha_ra-oriya" format="2">
  <advance width="555"/>
  <guideline x="449" y="210" angle="90"/>
  <anchor x="239" y="751" name="top"/>
  <anchor x="436" y="751" name="topright"/>
  <outline>
    <contour>
      <point x="131" y="355" type="curve"/>
      <point x="137" y="379" type="line"/>
      <point x="85" y="413"/>
      <point x="54" y="482"/>
      <point x="54" y="550" type="curve" smooth="yes"/>
      <point x="54" y="648"/>
      <point x="117" y="734"/>
      <point x="234" y="734" type="curve" smooth="yes"/>
      <point x="342" y="734"/>
      <point x="425" y="660"/>
      <point x="425" y="527" type="curve"/>
      <point x="449" y="529" type="line"/>
      <point x="449" y="669"/>
      <point x="361" y="759"/>
      <point x="232" y="759" type="curve" smooth="yes"/>
      <point x="97" y="759"/>
      <point x="28" y="661"/>
      <point x="28" y="553" type="curve" smooth="yes"/>
      <point x="28" y="474"/>
      <point x="65" y="393"/>
    </contour>
    <contour>
      <point x="136" y="184" type="curve" smooth="yes"/>
      <point x="160" y="184"/>
      <point x="171" y="203"/>
      <point x="171" y="223" type="curve" smooth="yes"/>
      <point x="171" y="242"/>
      <point x="160" y="261"/>
      <point x="137" y="261" type="curve" smooth="yes"/>
      <point x="120" y="261"/>
      <point x="102" y="249"/>
      <point x="102" y="226" type="curve"/>
      <point x="121" y="228" type="line"/>
      <point x="120" y="236"/>
      <point x="119" y="244"/>
      <point x="119" y="253" type="curve" smooth="yes"/>
      <point x="119" y="365"/>
      <point x="210" y="466"/>
      <point x="344" y="483" type="curve"/>
      <point x="321" y="463" type="line"/>
      <point x="309" y="521" type="line"/>
      <point x="341" y="506" type="line"/>
      <point x="205" y="494"/>
      <point x="93" y="380"/>
      <point x="93" y="257" type="curve" smooth="yes"/>
      <point x="93" y="221"/>
      <point x="103" y="184"/>
    </contour>
    <contour>
      <point x="423" y="234" type="line"/>
      <point x="449" y="234" type="line"/>
      <point x="449" y="751" type="line"/>
      <point x="423" y="751" type="line"/>
      <point x="423" y="612" type="line"/>
      <point x="423" y="600" type="line"/>
    </contour>
    <contour>
      <point x="318" y="2" type="line"/>
      <point x="526" y="-75" type="line"/>
      <point x="535" y="-52" type="line"/>
      <point x="385" y="4" type="line"/>
      <point x="353" y="12" type="line"/>
      <point x="327" y="25" type="line"/>
    </contour>
    <contour>
      <point x="319" y="226" type="curve"/>
      <point x="331" y="206" type="line"/>
      <point x="356" y="224"/>
      <point x="382" y="232"/>
      <point x="406" y="232" type="curve" smooth="yes"/>
      <point x="457" y="232"/>
      <point x="500" y="197"/>
      <point x="500" y="134" type="curve" smooth="yes"/>
      <point x="500" y="63"/>
      <point x="446" y="15"/>
      <point x="379" y="15" type="curve" smooth="yes"/>
      <point x="363" y="15"/>
      <point x="345" y="18"/>
      <point x="327" y="25" type="curve"/>
      <point x="376" y="-10" type="line"/>
      <point x="477" y="-10"/>
      <point x="526" y="64"/>
      <point x="526" y="137" type="curve" smooth="yes"/>
      <point x="526" y="212"/>
      <point x="474" y="257"/>
      <point x="411" y="257" type="curve" smooth="yes"/>
      <point x="381" y="257"/>
      <point x="349" y="247"/>
    </contour>
    <contour>
      <point x="449" y="-151" type="line"/>
      <point x="449" y="-32" type="line"/>
      <point x="423" y="-32" type="line"/>
      <point x="423" y="-126" type="line"/>
      <point x="81" y="-126" type="line"/>
      <point x="81" y="-151" type="line"/>
    </contour>
  </outline>
</glyph>
<glyph name="ma_ma-oriya" format="2">
  <advance width="511"/>
  <note>
mamaorya
</note>
  <guideline x="459" y="315" angle="90"/>
  <guideline x="519" y="315" angle="90"/>
  <guideline x="553" y="196" angle="0"/>
  <anchor x="237" y="751" name="top"/>
  <anchor x="446" y="751" name="topright"/>
  <outline>
    <contour>
      <point x="251" y="35" type="curve"/>
      <point x="264" y="56" type="line"/>
      <point x="231" y="83"/>
      <point x="216" y="121"/>
      <point x="216" y="157" type="curve" smooth="yes"/>
      <point x="216" y="213"/>
      <point x="253" y="265"/>
      <point x="319" y="265" type="curve" smooth="yes"/>
      <point x="383" y="265"/>
      <point x="439" y="217"/>
      <point x="439" y="118" type="curve"/>
      <point x="458" y="122" type="line"/>
      <point x="458" y="235"/>
      <point x="394" y="289"/>
      <point x="319" y="289" type="curve" smooth="yes"/>
      <point x="239" y="289"/>
      <point x="190" y="228"/>
      <point x="190" y="160" type="curve" smooth="yes"/>
      <point x="190" y="117"/>
      <point x="209" y="71"/>
    </contour>
    <contour>
      <point x="262" y="-75" type="curve" smooth="yes"/>
      <point x="279" y="-75"/>
      <point x="292" y="-63"/>
      <point x="292" y="-44" type="curve" smooth="yes"/>
      <point x="292" y="-26"/>
      <point x="280" y="-13"/>
      <point x="263" y="-13" type="curve" smooth="yes"/>
      <point x="251" y="-13"/>
      <point x="244" y="-21"/>
      <point x="237" y="-31" type="curve"/>
      <point x="251" y="-45" type="line"/>
      <point x="251" y="-38"/>
      <point x="251" y="-33"/>
      <point x="251" y="-28" type="curve" smooth="yes"/>
      <point x="251" y="35"/>
      <point x="299" y="101"/>
      <point x="389" y="106" type="curve"/>
      <point x="364" y="98" type="line"/>
      <point x="356" y="135" type="line"/>
      <point x="388" y="128" type="line"/>
      <point x="273" y="126"/>
      <point x="226" y="35"/>
      <point x="226" y="-22" type="curve" smooth="yes"/>
      <point x="226" y="-54"/>
      <point x="240" y="-75"/>
    </contour>
    <contour>
      <point x="131" y="355" type="curve"/>
      <point x="137" y="379" type="line"/>
      <point x="85" y="413"/>
      <point x="54" y="482"/>
      <point x="54" y="550" type="curve" smooth="yes"/>
      <point x="54" y="648"/>
      <point x="117" y="734"/>
      <point x="239" y="734" type="curve" smooth="yes"/>
      <point x="352" y="734"/>
      <point x="435" y="660"/>
      <point x="435" y="527" type="curve"/>
      <point x="459" y="529" type="line"/>
      <point x="459" y="669"/>
      <point x="371" y="759"/>
      <point x="237" y="759" type="curve" smooth="yes"/>
      <point x="97" y="759"/>
      <point x="28" y="661"/>
      <point x="28" y="553" type="curve" smooth="yes"/>
      <point x="28" y="474"/>
      <point x="65" y="393"/>
    </contour>
    <contour>
      <point x="136" y="204" type="curve" smooth="yes"/>
      <point x="160" y="204"/>
      <point x="171" y="223"/>
      <point x="171" y="243" type="curve" smooth="yes"/>
      <point x="171" y="262"/>
      <point x="160" y="281"/>
      <point x="137" y="281" type="curve" smooth="yes"/>
      <point x="120" y="281"/>
      <point x="102" y="269"/>
      <point x="102" y="246" type="curve"/>
      <point x="121" y="248" type="line"/>
      <point x="120" y="256"/>
      <point x="119" y="264"/>
      <point x="119" y="273" type="curve" smooth="yes"/>
      <point x="119" y="385"/>
      <point x="210" y="486"/>
      <point x="344" y="503" type="curve"/>
      <point x="311" y="483" type="line"/>
      <point x="299" y="541" type="line"/>
      <point x="341" y="526" type="line"/>
      <point x="205" y="514"/>
      <point x="93" y="400"/>
      <point x="93" y="277" type="curve" smooth="yes"/>
      <point x="93" y="241"/>
      <point x="103" y="204"/>
    </contour>
    <contour>
      <point x="433" y="751" type="line"/>
      <point x="433" y="624" type="line"/>
      <point x="433" y="603" type="line"/>
      <point x="433" y="-71" type="line"/>
      <point x="459" y="-71" type="line"/>
      <point x="459" y="751" type="line"/>
    </contour>
  </outline>
</glyph>
<glyph name="ma_pa_ra-oriya" format="2">
  <advance width="557"/>
  <anchor x="272" y="831" name="top"/>
  <anchor x="469" y="751" name="topright"/>
  <outline>
    <contour>
      <point x="473" y="650" type="line"/>
      <point x="538" y="608" type="line"/>
      <point x="551" y="627" type="line"/>
      <point x="473" y="679" type="line"/>
    </contour>
    <contour>
      <point x="376" y="514" type="curve" smooth="yes"/>
      <point x="327" y="514"/>
      <point x="294" y="551"/>
      <point x="294" y="605" type="curve" smooth="yes"/>
      <point x="294" y="658"/>
      <point x="326" y="696"/>
      <point x="376" y="696" type="curve" smooth="yes"/>
      <point x="424" y="696"/>
      <point x="456" y="659"/>
      <point x="456" y="604" type="curve" smooth="yes"/>
      <point x="456" y="551"/>
      <point x="424" y="514"/>
    </contour>
    <contour>
      <point x="188" y="834" type="line"/>
      <point x="389" y="702" type="line"/>
      <point x="376" y="720" type="line"/>
      <point x="313" y="720"/>
      <point x="268" y="672"/>
      <point x="268" y="604" type="curve" smooth="yes"/>
      <point x="268" y="537"/>
      <point x="313" y="489"/>
      <point x="375" y="489" type="curve" smooth="yes"/>
      <point x="436" y="489"/>
      <point x="480" y="537"/>
      <point x="480" y="604" type="curve" smooth="yes"/>
      <point x="480" y="672" type="line"/>
      <point x="202" y="855" type="line"/>
    </contour>
    <contour>
      <point x="142" y="85" type="curve" smooth="yes"/>
      <point x="167" y="85"/>
      <point x="179" y="108"/>
      <point x="179" y="130" type="curve" smooth="yes"/>
      <point x="179" y="153"/>
      <point x="166" y="176"/>
      <point x="141" y="176" type="curve" smooth="yes"/>
      <point x="122" y="176"/>
      <point x="104" y="162"/>
      <point x="104" y="135" type="curve"/>
      <point x="141" y="109" type="line"/>
      <point x="131" y="122"/>
      <point x="121" y="138"/>
      <point x="121" y="173" type="curve" smooth="yes"/>
      <point x="121" y="285"/>
      <point x="212" y="414"/>
      <point x="358" y="438" type="curve"/>
      <point x="286" y="404" type="line"/>
      <point x="270" y="472" type="line"/>
      <point x="355" y="463" type="line"/>
      <point x="219" y="448"/>
      <point x="95" y="322"/>
      <point x="95" y="174" type="curve" smooth="yes"/>
      <point x="95" y="122"/>
      <point x="110" y="85"/>
    </contour>
    <contour>
      <point x="365" y="701" type="curve"/>
      <point x="403" y="702" type="line"/>
      <point x="358" y="736"/>
      <point x="300" y="751"/>
      <point x="252" y="751" type="curve" smooth="yes"/>
      <point x="138" y="751"/>
      <point x="28" y="664"/>
      <point x="28" y="509" type="curve" smooth="yes"/>
      <point x="28" y="423"/>
      <point x="62" y="340"/>
      <point x="134" y="286" type="curve"/>
      <point x="139" y="315" type="line"/>
      <point x="81" y="363"/>
      <point x="54" y="433"/>
      <point x="54" y="508" type="curve" smooth="yes"/>
      <point x="54" y="648"/>
      <point x="149" y="726"/>
      <point x="251" y="726" type="curve" smooth="yes"/>
      <point x="284" y="726"/>
      <point x="329" y="718"/>
    </contour>
    <contour>
      <point x="456" y="573" type="line"/>
      <point x="456" y="-22" type="line"/>
      <point x="94" y="-22" type="line"/>
      <point x="94" y="-47" type="line"/>
      <point x="482" y="-47" type="line"/>
      <point x="482" y="751" type="line"/>
      <point x="456" y="751" type="line"/>
      <point x="456" y="588" type="line"/>
    </contour>
  </outline>
</glyph>
<glyph name="na-oriya.base" format="2">
  <advance width="485"/>
  <anchor x="326" y="203" name="bottom"/>
  <anchor x="339" y="199" name="bottom_ta"/>
  <anchor x="240" y="751" name="top"/>
  <anchor x="412" y="751" name="topright"/>
  <outline>
    <contour>
      <point x="93" y="264" type="curve" smooth="yes"/>
      <point x="93" y="221"/>
      <point x="104" y="183"/>
      <point x="137" y="183" type="curve" smooth="yes"/>
      <point x="161" y="183"/>
      <point x="173" y="203"/>
      <point x="173" y="222" type="curve" smooth="yes"/>
      <point x="173" y="242"/>
      <point x="160" y="261"/>
      <point x="139" y="261" type="curve" smooth="yes"/>
      <point x="121" y="261"/>
      <point x="107" y="251"/>
      <point x="105" y="225" type="curve"/>
      <point x="121" y="230" type="line"/>
      <point x="120" y="239"/>
      <point x="119" y="245"/>
      <point x="119" y="259" type="curve" smooth="yes"/>
      <point x="119" y="379"/>
      <point x="181" y="461"/>
      <point x="288" y="461" type="curve" smooth="yes"/>
      <point x="299" y="461"/>
      <point x="315" y="459"/>
      <point x="333" y="455" type="curve"/>
      <point x="313" y="470" type="line"/>
      <point x="313" y="189" type="line"/>
      <point x="339" y="189" type="line"/>
      <point x="339" y="481" type="line"/>
      <point x="322" y="484"/>
      <point x="305" y="486"/>
      <point x="289" y="486" type="curve" smooth="yes"/>
      <point x="171" y="486"/>
      <point x="93" y="394"/>
    </contour>
    <contour>
      <point x="127" y="363" type="curve"/>
      <point x="138" y="385" type="line"/>
      <point x="83" y="421"/>
      <point x="54" y="480"/>
      <point x="54" y="547" type="curve" smooth="yes"/>
      <point x="54" y="660"/>
      <point x="129" y="734"/>
      <point x="241" y="734" type="curve" smooth="yes"/>
      <point x="355" y="734"/>
      <point x="431" y="658"/>
      <point x="431" y="540" type="curve" smooth="yes"/>
      <point x="431" y="485"/>
      <point x="415" y="433"/>
      <point x="384" y="394" type="curve"/>
      <point x="379" y="406" type="line"/>
      <point x="420" y="381" type="line"/>
      <point x="406" y="382" type="line"/>
      <point x="438" y="421"/>
      <point x="457" y="478"/>
      <point x="457" y="540" type="curve" smooth="yes"/>
      <point x="457" y="671"/>
      <point x="370" y="759"/>
      <point x="240" y="759" type="curve" smooth="yes"/>
      <point x="113" y="759"/>
      <point x="28" y="675"/>
      <point x="28" y="548" type="curve" smooth="yes"/>
      <point x="28" y="470"/>
      <point x="63" y="400"/>
    </contour>
  </outline>
</glyph>
<glyph name="na_na-oriya" format="2">
  <advance width="485"/>
  <note>
nanaorya
</note>
  <guideline x="339" y="575" angle="90"/>
  <guideline x="399" y="575" angle="90"/>
  <anchor x="240" y="751" name="top"/>
  <anchor x="412" y="751" name="topright"/>
  <outline>
    <contour>
      <point x="127" y="363" type="curve"/>
      <point x="138" y="385" type="line"/>
      <point x="83" y="421"/>
      <point x="54" y="480"/>
      <point x="54" y="547" type="curve" smooth="yes"/>
      <point x="54" y="660"/>
      <point x="129" y="734"/>
      <point x="241" y="734" type="curve" smooth="yes"/>
      <point x="355" y="734"/>
      <point x="431" y="658"/>
      <point x="431" y="540" type="curve" smooth="yes"/>
      <point x="431" y="485"/>
      <point x="415" y="433"/>
      <point x="384" y="394" type="curve"/>
      <point x="379" y="406" type="line"/>
      <point x="420" y="381" type="line"/>
      <point x="406" y="382" type="line"/>
      <point x="438" y="421"/>
      <point x="457" y="478"/>
      <point x="457" y="540" type="curve" smooth="yes"/>
      <point x="457" y="671"/>
      <point x="370" y="759"/>
      <point x="240" y="759" type="curve" smooth="yes"/>
      <point x="113" y="759"/>
      <point x="28" y="675"/>
      <point x="28" y="548" type="curve" smooth="yes"/>
      <point x="28" y="470"/>
      <point x="63" y="400"/>
    </contour>
    <contour>
      <point x="219" y="-75" type="curve" smooth="yes"/>
      <point x="243" y="-75"/>
      <point x="254" y="-54"/>
      <point x="254" y="-36" type="curve" smooth="yes"/>
      <point x="254" y="-17"/>
      <point x="243" y="3"/>
      <point x="219" y="3" type="curve" smooth="yes"/>
      <point x="201" y="3"/>
      <point x="186" y="-10"/>
      <point x="186" y="-34" type="curve"/>
      <point x="203" y="-30" type="line"/>
      <point x="201" y="-19"/>
      <point x="200" y="-7"/>
      <point x="200" y="4" type="curve" smooth="yes"/>
      <point x="200" y="106"/>
      <point x="281" y="184"/>
      <point x="367" y="184" type="curve" smooth="yes"/>
      <point x="376" y="184"/>
      <point x="391" y="184"/>
      <point x="402" y="181" type="curve"/>
      <point x="383" y="199" type="line"/>
      <point x="383" y="-71" type="line"/>
      <point x="409" y="-71" type="line"/>
      <point x="409" y="206" type="line"/>
      <point x="403" y="207"/>
      <point x="388" y="209"/>
      <point x="372" y="209" type="curve" smooth="yes"/>
      <point x="262" y="209"/>
      <point x="174" y="116"/>
      <point x="174" y="1" type="curve" smooth="yes"/>
      <point x="174" y="-36"/>
      <point x="183" y="-75"/>
    </contour>
    <contour>
      <point x="137" y="183" type="curve" smooth="yes"/>
      <point x="161" y="183"/>
      <point x="173" y="203"/>
      <point x="173" y="222" type="curve" smooth="yes"/>
      <point x="173" y="242"/>
      <point x="160" y="261"/>
      <point x="139" y="261" type="curve" smooth="yes"/>
      <point x="121" y="261"/>
      <point x="107" y="251"/>
      <point x="105" y="225" type="curve"/>
      <point x="121" y="230" type="line"/>
      <point x="120" y="239"/>
      <point x="119" y="245"/>
      <point x="119" y="259" type="curve" smooth="yes"/>
      <point x="119" y="379"/>
      <point x="181" y="461"/>
      <point x="288" y="461" type="curve" smooth="yes"/>
      <point x="299" y="461"/>
      <point x="315" y="459"/>
      <point x="333" y="455" type="curve"/>
      <point x="313" y="470" type="line"/>
      <point x="313" y="189" type="line"/>
      <point x="339" y="189" type="line"/>
      <point x="339" y="481" type="line"/>
      <point x="322" y="484"/>
      <point x="305" y="486"/>
      <point x="289" y="486" type="curve" smooth="yes"/>
      <point x="171" y="486"/>
      <point x="93" y="394"/>
      <point x="93" y="264" type="curve" smooth="yes"/>
      <point x="93" y="221"/>
      <point x="104" y="183"/>
    </contour>
  </outline>
</glyph>
<glyph name="na_ta-oriya" format="2">
  <advance width="491"/>
  <note>
nataorya
</note>
  <anchor x="240" y="751" name="top"/>
  <anchor x="412" y="751" name="topright"/>
  <outline>
    <contour>
      <point x="127" y="363" type="curve"/>
      <point x="138" y="385" type="line"/>
      <point x="83" y="421"/>
      <point x="54" y="480"/>
      <point x="54" y="547" type="curve" smooth="yes"/>
      <point x="54" y="660"/>
      <point x="129" y="734"/>
      <point x="241" y="734" type="curve" smooth="yes"/>
      <point x="355" y="734"/>
      <point x="431" y="658"/>
      <point x="431" y="540" type="curve" smooth="yes"/>
      <point x="431" y="485"/>
      <point x="415" y="433"/>
      <point x="384" y="394" type="curve"/>
      <point x="379" y="406" type="line"/>
      <point x="420" y="381" type="line"/>
      <point x="406" y="382" type="line"/>
      <point x="438" y="421"/>
      <point x="457" y="478"/>
      <point x="457" y="540" type="curve" smooth="yes"/>
      <point x="457" y="671"/>
      <point x="370" y="759"/>
      <point x="240" y="759" type="curve" smooth="yes"/>
      <point x="113" y="759"/>
      <point x="28" y="675"/>
      <point x="28" y="548" type="curve" smooth="yes"/>
      <point x="28" y="470"/>
      <point x="63" y="400"/>
    </contour>
    <contour>
      <point x="252" y="22" type="curve" smooth="yes"/>
      <point x="364" y="22"/>
      <point x="463" y="90"/>
      <point x="463" y="220" type="curve" smooth="yes"/>
      <point x="463" y="285"/>
      <point x="437" y="322"/>
      <point x="391" y="322" type="curve" smooth="yes"/>
      <point x="337" y="322"/>
      <point x="313" y="273"/>
      <point x="313" y="226" type="curve" smooth="yes"/>
      <point x="313" y="177"/>
      <point x="338" y="130"/>
      <point x="386" y="130" type="curve" smooth="yes"/>
      <point x="420" y="130"/>
      <point x="441" y="153"/>
      <point x="452" y="193" type="curve"/>
      <point x="434" y="180" type="line"/>
      <point x="420" y="91"/>
      <point x="340" y="47"/>
      <point x="252" y="47" type="curve" smooth="yes"/>
      <point x="194" y="47"/>
      <point x="133" y="66"/>
      <point x="85" y="103" type="curve"/>
      <point x="106" y="104" type="line"/>
      <point x="75" y="55" type="line"/>
      <point x="68" y="86" type="line"/>
      <point x="121" y="43"/>
      <point x="189" y="22"/>
    </contour>
    <contour>
      <point x="137" y="183" type="curve" smooth="yes"/>
      <point x="161" y="183"/>
      <point x="173" y="203"/>
      <point x="173" y="222" type="curve" smooth="yes"/>
      <point x="173" y="242"/>
      <point x="160" y="261"/>
      <point x="139" y="261" type="curve" smooth="yes"/>
      <point x="121" y="261"/>
      <point x="107" y="251"/>
      <point x="105" y="225" type="curve"/>
      <point x="121" y="230" type="line"/>
      <point x="120" y="239"/>
      <point x="119" y="245"/>
      <point x="119" y="259" type="curve" smooth="yes"/>
      <point x="119" y="379"/>
      <point x="181" y="461"/>
      <point x="288" y="461" type="curve" smooth="yes"/>
      <point x="299" y="461"/>
      <point x="315" y="459"/>
      <point x="333" y="455" type="curve"/>
      <point x="313" y="470" type="line"/>
      <point x="313" y="226" type="line"/>
      <point x="339" y="268" type="line"/>
      <point x="339" y="481" type="line"/>
      <point x="322" y="484"/>
      <point x="305" y="486"/>
      <point x="289" y="486" type="curve" smooth="yes"/>
      <point x="171" y="486"/>
      <point x="93" y="394"/>
      <point x="93" y="264" type="curve" smooth="yes"/>
      <point x="93" y="221"/>
      <point x="104" y="183"/>
    </contour>
    <contour>
      <point x="389" y="155" type="curve" smooth="yes"/>
      <point x="358" y="155"/>
      <point x="339" y="182"/>
      <point x="339" y="229" type="curve" smooth="yes"/>
      <point x="339" y="272"/>
      <point x="357" y="297"/>
      <point x="388" y="297" type="curve" smooth="yes"/>
      <point x="419" y="297"/>
      <point x="437" y="271"/>
      <point x="437" y="227" type="curve" smooth="yes"/>
      <point x="437" y="181"/>
      <point x="420" y="155"/>
    </contour>
  </outline>
</glyph>
<glyph name="na_ta_ra-oriya" format="2">
  <advance width="485"/>
  <note>
nataraorya
</note>
  <guideline x="350" y="445" angle="90"/>
  <guideline x="410" y="445" angle="90"/>
  <anchor x="240" y="751" name="top"/>
  <anchor x="412" y="751" name="topright"/>
  <outline>
    <contour>
      <point x="383" y="-139" type="line"/>
      <point x="398" y="-126" type="line"/>
      <point x="257" y="-126"/>
      <point x="135" y="-64"/>
      <point x="45" y="1" type="curve"/>
      <point x="28" y="-21" type="line"/>
      <point x="115" y="-81"/>
      <point x="245" y="-149"/>
      <point x="382" y="-151" type="curve"/>
      <point x="409" y="-151" type="line"/>
      <point x="409" y="246" type="line"/>
      <point x="403" y="248"/>
      <point x="390" y="249"/>
      <point x="381" y="249" type="curve" smooth="yes"/>
      <point x="293" y="249"/>
      <point x="204" y="175"/>
      <point x="204" y="54" type="curve" smooth="yes"/>
      <point x="204" y="16"/>
      <point x="224" y="-2"/>
      <point x="244" y="-2" type="curve" smooth="yes"/>
      <point x="263" y="-2"/>
      <point x="278" y="14"/>
      <point x="278" y="34" type="curve" smooth="yes"/>
      <point x="278" y="54"/>
      <point x="264" y="69"/>
      <point x="245" y="69" type="curve" smooth="yes"/>
      <point x="234" y="69"/>
      <point x="225" y="64"/>
      <point x="217" y="52" type="curve"/>
      <point x="230" y="45" type="line"/>
      <point x="230" y="48"/>
      <point x="230" y="50"/>
      <point x="230" y="53" type="curve" smooth="yes"/>
      <point x="230" y="159"/>
      <point x="302" y="224"/>
      <point x="375" y="224" type="curve" smooth="yes"/>
      <point x="385" y="224"/>
      <point x="393" y="222"/>
      <point x="402" y="219" type="curve"/>
      <point x="383" y="234" type="line"/>
    </contour>
    <contour>
      <point x="93" y="264" type="curve" smooth="yes"/>
      <point x="93" y="221"/>
      <point x="104" y="183"/>
      <point x="137" y="183" type="curve" smooth="yes"/>
      <point x="161" y="183"/>
      <point x="173" y="203"/>
      <point x="173" y="222" type="curve" smooth="yes"/>
      <point x="173" y="242"/>
      <point x="160" y="261"/>
      <point x="139" y="261" type="curve" smooth="yes"/>
      <point x="121" y="261"/>
      <point x="107" y="251"/>
      <point x="105" y="225" type="curve"/>
      <point x="121" y="230" type="line"/>
      <point x="120" y="239"/>
      <point x="119" y="245"/>
      <point x="119" y="259" type="curve" smooth="yes"/>
      <point x="119" y="379"/>
      <point x="181" y="461"/>
      <point x="288" y="461" type="curve" smooth="yes"/>
      <point x="299" y="461"/>
      <point x="315" y="459"/>
      <point x="333" y="455" type="curve"/>
      <point x="313" y="470" type="line"/>
      <point x="313" y="214" type="line"/>
      <point x="339" y="231" type="line"/>
      <point x="339" y="481" type="line"/>
      <point x="322" y="484"/>
      <point x="305" y="486"/>
      <point x="289" y="486" type="curve" smooth="yes"/>
      <point x="171" y="486"/>
      <point x="93" y="394"/>
    </contour>
    <contour>
      <point x="127" y="363" type="curve"/>
      <point x="138" y="385" type="line"/>
      <point x="83" y="421"/>
      <point x="54" y="480"/>
      <point x="54" y="547" type="curve" smooth="yes"/>
      <point x="54" y="660"/>
      <point x="129" y="734"/>
      <point x="241" y="734" type="curve" smooth="yes"/>
      <point x="355" y="734"/>
      <point x="431" y="658"/>
      <point x="431" y="540" type="curve" smooth="yes"/>
      <point x="431" y="485"/>
      <point x="415" y="433"/>
      <point x="384" y="394" type="curve"/>
      <point x="379" y="406" type="line"/>
      <point x="420" y="381" type="line"/>
      <point x="406" y="382" type="line"/>
      <point x="438" y="421"/>
      <point x="457" y="478"/>
      <point x="457" y="540" type="curve" smooth="yes"/>
      <point x="457" y="671"/>
      <point x="370" y="759"/>
      <point x="240" y="759" type="curve" smooth="yes"/>
      <point x="113" y="759"/>
      <point x="28" y="675"/>
      <point x="28" y="548" type="curve" smooth="yes"/>
      <point x="28" y="470"/>
      <point x="63" y="400"/>
    </contour>
  </outline>
</glyph>
<glyph name="na_ta_uMatra-oriya" format="2">
  <advance width="491"/>
  <anchor x="240" y="751" name="top"/>
  <anchor x="412" y="751" name="topright"/>
  <outline>
    <contour>
      <point x="127" y="363" type="curve"/>
      <point x="138" y="385" type="line"/>
      <point x="83" y="421"/>
      <point x="54" y="480"/>
      <point x="54" y="547" type="curve" smooth="yes"/>
      <point x="54" y="660"/>
      <point x="129" y="734"/>
      <point x="241" y="734" type="curve" smooth="yes"/>
      <point x="355" y="734"/>
      <point x="431" y="658"/>
      <point x="431" y="540" type="curve" smooth="yes"/>
      <point x="431" y="485"/>
      <point x="415" y="433"/>
      <point x="384" y="394" type="curve"/>
      <point x="379" y="406" type="line"/>
      <point x="420" y="381" type="line"/>
      <point x="406" y="382" type="line"/>
      <point x="438" y="421"/>
      <point x="457" y="478"/>
      <point x="457" y="540" type="curve" smooth="yes"/>
      <point x="457" y="671"/>
      <point x="370" y="759"/>
      <point x="240" y="759" type="curve" smooth="yes"/>
      <point x="113" y="759"/>
      <point x="28" y="675"/>
      <point x="28" y="548" type="curve" smooth="yes"/>
      <point x="28" y="470"/>
      <point x="63" y="400"/>
    </contour>
    <contour>
      <point x="252" y="42" type="curve" smooth="yes"/>
      <point x="364" y="42"/>
      <point x="463" y="110"/>
      <point x="463" y="240" type="curve" smooth="yes"/>
      <point x="463" y="305"/>
      <point x="437" y="342"/>
      <point x="391" y="342" type="curve" smooth="yes"/>
      <point x="337" y="342"/>
      <point x="313" y="293"/>
      <point x="313" y="246" type="curve" smooth="yes"/>
      <point x="313" y="197"/>
      <point x="338" y="150"/>
      <point x="386" y="150" type="curve" smooth="yes"/>
      <point x="420" y="150"/>
      <point x="441" y="173"/>
      <point x="452" y="213" type="curve"/>
      <point x="434" y="200" type="line"/>
      <point x="420" y="111"/>
      <point x="340" y="67"/>
      <point x="252" y="67" type="curve" smooth="yes"/>
      <point x="194" y="67"/>
      <point x="133" y="86"/>
      <point x="85" y="123" type="curve"/>
      <point x="106" y="124" type="line"/>
      <point x="75" y="75" type="line"/>
      <point x="68" y="106" type="line"/>
      <point x="121" y="63"/>
      <point x="189" y="42"/>
    </contour>
    <contour>
      <point x="137" y="203" type="curve" smooth="yes"/>
      <point x="161" y="203"/>
      <point x="173" y="223"/>
      <point x="173" y="242" type="curve" smooth="yes"/>
      <point x="173" y="262"/>
      <point x="160" y="281"/>
      <point x="139" y="281" type="curve" smooth="yes"/>
      <point x="121" y="281"/>
      <point x="107" y="271"/>
      <point x="105" y="245" type="curve"/>
      <point x="121" y="250" type="line"/>
      <point x="120" y="259"/>
      <point x="119" y="265"/>
      <point x="119" y="279" type="curve" smooth="yes"/>
      <point x="119" y="399"/>
      <point x="181" y="481"/>
      <point x="288" y="481" type="curve" smooth="yes"/>
      <point x="299" y="481"/>
      <point x="315" y="479"/>
      <point x="333" y="475" type="curve"/>
      <point x="313" y="490" type="line"/>
      <point x="313" y="246" type="line"/>
      <point x="339" y="288" type="line"/>
      <point x="339" y="501" type="line"/>
      <point x="322" y="504"/>
      <point x="305" y="506"/>
      <point x="289" y="506" type="curve" smooth="yes"/>
      <point x="171" y="506"/>
      <point x="93" y="414"/>
      <point x="93" y="284" type="curve" smooth="yes"/>
      <point x="93" y="241"/>
      <point x="104" y="203"/>
    </contour>
    <contour>
      <point x="389" y="175" type="curve" smooth="yes"/>
      <point x="358" y="175"/>
      <point x="339" y="202"/>
      <point x="339" y="249" type="curve" smooth="yes"/>
      <point x="339" y="292"/>
      <point x="357" y="317"/>
      <point x="388" y="317" type="curve" smooth="yes"/>
      <point x="419" y="317"/>
      <point x="437" y="291"/>
      <point x="437" y="247" type="curve" smooth="yes"/>
      <point x="437" y="201"/>
      <point x="420" y="175"/>
    </contour>
    <contour>
      <point x="195" y="-170" type="curve" smooth="yes"/>
      <point x="255" y="-170"/>
      <point x="327" y="-116"/>
      <point x="327" y="41" type="curve" smooth="yes"/>
      <point x="327" y="63" type="line"/>
      <point x="301" y="63" type="line"/>
      <point x="301" y="32" type="line" smooth="yes"/>
      <point x="301" y="-100"/>
      <point x="243" y="-145"/>
      <point x="196" y="-145" type="curve" smooth="yes"/>
      <point x="161" y="-145"/>
      <point x="144" y="-121"/>
      <point x="144" y="-96" type="curve" smooth="yes"/>
      <point x="144" y="-70"/>
      <point x="163" y="-46"/>
      <point x="198" y="-46" type="curve" smooth="yes"/>
      <point x="276" y="-46"/>
      <point x="310" y="-170"/>
      <point x="412" y="-170" type="curve" smooth="yes"/>
      <point x="432" y="-170"/>
      <point x="451" y="-165"/>
      <point x="466" y="-154" type="curve"/>
      <point x="458" y="-178" type="line"/>
      <point x="440" y="-118" type="line"/>
      <point x="457" y="-134" type="line"/>
      <point x="443" y="-141"/>
      <point x="425" y="-145"/>
      <point x="410" y="-145" type="curve" smooth="yes"/>
      <point x="324" y="-145"/>
      <point x="289" y="-21"/>
      <point x="195" y="-21" type="curve" smooth="yes"/>
      <point x="144" y="-21"/>
      <point x="118" y="-58"/>
      <point x="118" y="-95" type="curve" smooth="yes"/>
      <point x="118" y="-133"/>
      <point x="145" y="-170"/>
    </contour>
  </outline>
</glyph>
<glyph name="na_tha-oriya" format="2">
  <advance width="485"/>
  <note>
nathaorya
</note>
  <guideline x="339" y="575" angle="90"/>
  <guideline x="419" y="575" angle="90"/>
  <anchor x="240" y="751" name="top"/>
  <anchor x="412" y="751" name="topright"/>
  <outline>
    <contour>
      <point x="93" y="264" type="curve" smooth="yes"/>
      <point x="93" y="221"/>
      <point x="104" y="183"/>
      <point x="137" y="183" type="curve" smooth="yes"/>
      <point x="161" y="183"/>
      <point x="173" y="203"/>
      <point x="173" y="222" type="curve" smooth="yes"/>
      <point x="173" y="242"/>
      <point x="160" y="261"/>
      <point x="139" y="261" type="curve" smooth="yes"/>
      <point x="121" y="261"/>
      <point x="107" y="251"/>
      <point x="105" y="225" type="curve"/>
      <point x="121" y="230" type="line"/>
      <point x="120" y="239"/>
      <point x="119" y="245"/>
      <point x="119" y="259" type="curve" smooth="yes"/>
      <point x="119" y="379"/>
      <point x="181" y="461"/>
      <point x="288" y="461" type="curve" smooth="yes"/>
      <point x="299" y="461"/>
      <point x="315" y="459"/>
      <point x="333" y="455" type="curve"/>
      <point x="313" y="470" type="line"/>
      <point x="313" y="127" type="line"/>
      <point x="339" y="136" type="line"/>
      <point x="339" y="481" type="line"/>
      <point x="322" y="484"/>
      <point x="305" y="486"/>
      <point x="289" y="486" type="curve" smooth="yes"/>
      <point x="171" y="486"/>
      <point x="93" y="394"/>
    </contour>
    <contour>
      <point x="127" y="363" type="curve"/>
      <point x="138" y="385" type="line"/>
      <point x="83" y="421"/>
      <point x="54" y="480"/>
      <point x="54" y="547" type="curve" smooth="yes"/>
      <point x="54" y="660"/>
      <point x="129" y="734"/>
      <point x="241" y="734" type="curve" smooth="yes"/>
      <point x="355" y="734"/>
      <point x="431" y="658"/>
      <point x="431" y="540" type="curve" smooth="yes"/>
      <point x="431" y="485"/>
      <point x="415" y="433"/>
      <point x="384" y="394" type="curve"/>
      <point x="379" y="406" type="line"/>
      <point x="420" y="381" type="line"/>
      <point x="406" y="382" type="line"/>
      <point x="438" y="421"/>
      <point x="457" y="478"/>
      <point x="457" y="540" type="curve" smooth="yes"/>
      <point x="457" y="671"/>
      <point x="370" y="759"/>
      <point x="240" y="759" type="curve" smooth="yes"/>
      <point x="113" y="759"/>
      <point x="28" y="675"/>
      <point x="28" y="548" type="curve" smooth="yes"/>
      <point x="28" y="470"/>
      <point x="63" y="400"/>
    </contour>
    <contour>
      <point x="346" y="-75" type="curve" smooth="yes"/>
      <point x="402" y="-75"/>
      <point x="437" y="-29"/>
      <point x="437" y="38" type="curve" smooth="yes"/>
      <point x="437" y="107"/>
      <point x="401" y="150"/>
      <point x="350" y="150" type="curve" smooth="yes"/>
      <point x="253" y="150"/>
      <point x="215" y="-51"/>
      <point x="136" y="-51" type="curve" smooth="yes"/>
      <point x="102" y="-51"/>
      <point x="74" y="-13"/>
      <point x="74" y="39" type="curve" smooth="yes"/>
      <point x="74" y="92"/>
      <point x="103" y="126"/>
      <point x="135" y="126" type="curve" smooth="yes"/>
      <point x="213" y="126"/>
      <point x="247" y="-75"/>
    </contour>
    <contour>
      <point x="138" y="-75" type="curve" smooth="yes"/>
      <point x="237" y="-75"/>
      <point x="275" y="126"/>
      <point x="350" y="126" type="curve" smooth="yes"/>
      <point x="383" y="126"/>
      <point x="412" y="92"/>
      <point x="412" y="39" type="curve" smooth="yes"/>
      <point x="412" y="-13"/>
      <point x="384" y="-51"/>
      <point x="350" y="-51" type="curve" smooth="yes"/>
      <point x="270" y="-51"/>
      <point x="233" y="150"/>
      <point x="136" y="150" type="curve" smooth="yes"/>
      <point x="85" y="150"/>
      <point x="49" y="107"/>
      <point x="49" y="38" type="curve" smooth="yes"/>
      <point x="49" y="-31"/>
      <point x="85" y="-75"/>
    </contour>
  </outline>
</glyph>
<glyph name="nine-oriya.REV_BRACKET.141" format="2">
  <advance width="411"/>
  <note>
nineorya
</note>
  <outline>
    <contour>
      <point x="375" y="419" type="line"/>
      <point x="375" y="751" type="line"/>
      <point x="349" y="751" type="line"/>
      <point x="349" y="529" type="line" smooth="yes"/>
      <point x="349" y="493"/>
      <point x="350" y="474"/>
      <point x="351" y="452" type="curve"/>
      <point x="190" y="759" type="line"/>
      <point x="77" y="677"/>
      <point x="22" y="539"/>
      <point x="22" y="410" type="curve" smooth="yes"/>
      <point x="22" y="245"/>
      <point x="112" y="93"/>
      <point x="291" y="85" type="curve"/>
      <point x="292" y="110" type="line"/>
      <point x="131" y="121"/>
      <point x="48" y="258"/>
      <point x="48" y="409" type="curve" smooth="yes"/>
      <point x="48" y="526"/>
      <point x="96" y="652"/>
      <point x="199" y="735" type="curve"/>
      <point x="172" y="737" type="line"/>
      <point x="342" y="414" type="line"/>
    </contour>
  </outline>
</glyph>
<glyph name="nna-oriya.below" format="2">
  <note>
nnasubscriptorya
</note>
  <guideline x="150" y="144" angle="90"/>
  <anchor x="186" y="203" name="_bottom"/>
  <outline>
    <contour>
      <point x="18" y="-23" type="curve" smooth="yes"/>
      <point x="18" y="-103"/>
      <point x="65" y="-155"/>
      <point x="131" y="-155" type="curve" smooth="yes"/>
      <point x="183" y="-155"/>
      <point x="216" y="-123"/>
      <point x="216" y="-76" type="curve" smooth="yes"/>
      <point x="216" y="-24"/>
      <point x="172" y="8"/>
      <point x="112" y="8" type="curve" smooth="yes"/>
      <point x="84" y="8"/>
      <point x="55" y="1"/>
      <point x="28" y="-14" type="curve"/>
      <point x="29" y="-37" type="line"/>
      <point x="54" y="-22"/>
      <point x="83" y="-15"/>
      <point x="108" y="-15" type="curve" smooth="yes"/>
      <point x="158" y="-15"/>
      <point x="191" y="-36"/>
      <point x="191" y="-75" type="curve" smooth="yes"/>
      <point x="191" y="-109"/>
      <point x="168" y="-132"/>
      <point x="131" y="-132" type="curve" smooth="yes"/>
      <point x="78" y="-132"/>
      <point x="43" y="-88"/>
      <point x="43" y="-22" type="curve" smooth="yes"/>
      <point x="43" y="40"/>
      <point x="75" y="80"/>
      <point x="123" y="80" type="curve" smooth="yes"/>
      <point x="142" y="80"/>
      <point x="163" y="74"/>
      <point x="184" y="60" type="curve"/>
      <point x="162" y="52" type="line"/>
      <point x="188" y="109" type="line"/>
      <point x="187" y="84" type="line"/>
      <point x="165" y="98"/>
      <point x="143" y="103"/>
      <point x="123" y="103" type="curve" smooth="yes"/>
      <point x="59" y="103"/>
      <point x="18" y="52"/>
    </contour>
    <contour>
      <point x="256" y="-151" type="line"/>
      <point x="282" y="-151" type="line"/>
      <point x="282" y="205" type="line"/>
      <point x="256" y="205" type="line"/>
      <point x="256" y="125" type="line"/>
      <point x="256" y="117" type="line"/>
    </contour>
    <contour>
      <point x="85" y="83" type="curve"/>
      <point x="109" y="90" type="line"/>
      <point x="102" y="104"/>
      <point x="99" y="118"/>
      <point x="99" y="130" type="curve" smooth="yes"/>
      <point x="99" y="163"/>
      <point x="126" y="186"/>
      <point x="158" y="186" type="curve" smooth="yes"/>
      <point x="200" y="186"/>
      <point x="259" y="153"/>
      <point x="259" y="56" type="curve"/>
      <point x="281" y="56" type="line"/>
      <point x="281" y="168"/>
      <point x="209" y="209"/>
      <point x="156" y="209" type="curve" smooth="yes"/>
      <point x="110" y="209"/>
      <point x="74" y="178"/>
      <point x="74" y="131" type="curve" smooth="yes"/>
      <point x="74" y="116"/>
      <point x="78" y="100"/>
    </contour>
  </outline>
</glyph>
